<svg xmlns="http://www.w3.org/2000/svg" fill="none" height="571" width="1960"><g stroke="#fff" clip-rule="evenodd" opacity=".12"><path d="M718.661 206.629c-.112-7.502-44.665-15.939-63.696-20.288-37.631-8.603-76.768-16.547-115.543-24.618-38.774-8.072-77.653-16.121-114.627-24.982-24.008-5.752-52.216-12.23-68.498-20.444-34.685-17.503 74.674-14.904 103.001-15.286 72.064-.978 154.721-.532 222.27-9.647 40.324-5.441 56.403-14.567 47.742-27.867-2.791-4.326-11.054-9.303-4.054-13.517 7.474-4.5 24.67-7.098 38.942-8.84 52.055-6.344 111.906-7.08 166.983-7.876 59.39-.875 119.339-.619 178.309-.687 25.01-.028 51.12-2.844 74.93-5.132 31.22-3 62.07-6.37 93.02-9.627 68.11-7.15 138.29-14.681 210.35-16.497 45.12-1.138 94.44.4 129.5 10.296 17.6 4.97 26.81 12.355 36.99 18.917 12.31 7.927 24.14 15.93 37.26 23.732 42.24 25.128 102.55 49.683 200.44 50.917 14.81.186 29.36-.42 44.09-.534 9.39-.07 17.75.641 21.23 3.719 8.78 7.722-18.8 19.91-30.1 26.036-24.76 13.41-52.67 26.218-78.82 39.359-17.3 8.69-47.25 20.566-47.56 31.125-.28 9.408 39.64 16.208 61.37 20.841 20.36 4.339 57.26 10.411 59.49 19.236 1.09 4.28-7.92 7.827-17.32 10.579-16.47 4.813-35.46 8.209-50.28 13.701-24.31 9.009-44.62 21.406-41.31 33.547 2.28 8.412 17.6 13.921 37.07 19.188 8.19 2.214 14.83 3.78 15.27 7.375.69 5.708-6.44 11.749-12.31 17.041-21.02 18.941-50.88 37.256-84.09 54.357-16.6 8.546-34.53 17.065-56.53 24.355-14.41 4.787-33.85 10.485-55.83 10.478-25.45 0-52.39-2.879-77.13-5.032-46.2-4.024-91.85-8.675-137.32-13.447a16464.97 16464.97 0 0 1-312.48-35.803c-72.67-9.051-146.881-18.115-215.205-30.149-13.324-2.363-25.901-5.118-37.56-8.229-12.457-3.266-27.915-4.728-43.59-5.817-97.285-6.763-203.867-1.571-301.557 1.685-24.796.824-49.591 1.654-74.457 2.231-21.376.497-46.968 1.921-67.744-.219-40.938-4.211-5.15-19.734 9.98-26.06 53.269-22.27 121.997-41.112 185.7-60.348 30.289-9.161 60.807-18.298 89.448-27.977 14.914-5.032 44.323-13.215 44.226-19.792z"></path><path d="M737.018 205.365c-16.328-7.939-44.975-13.806-68.754-19.328-34.22-7.95-69.516-15.458-104.28-23.182-32.872-7.304-65.814-14.692-96.256-22.987-18.562-5.058-41.853-11.107-50.645-18.589-19.073-16.216 83.531-13.756 108.861-14.18 62.971-1.05 134.365-1.29 192.623-9.828 36.378-5.332 51.323-14.173 43.564-26.449-2.682-4.247-7.515-7.873-1.397-12.098 7.075-4.89 23.347-7.938 38.264-10.09 46.727-6.743 101.961-8.175 152.613-9.367 52.329-1.231 106.849-2.1 157.499-1.198 20.25.358 43.56-1.678 63.6-3.24 30.84-2.405 61.37-5.18 92.06-7.76 62.36-5.25 126.34-10.305 191.22-10.88 46.84-.416 95.68 1.836 134.65 10.543 39.49 8.828 57.01 22.514 78.91 35.524 37.82 22.493 88.91 49.84 176.42 54.593 13.26.721 26.02.33 39.27.507 6.82.09 14.58.374 18.03 2.48 8.98 5.467-15.61 15.464-23.89 19.652-22.86 11.573-48.57 22.58-72.53 33.93-19.03 9.012-43.15 19.026-50.51 29.709-8.93 12.965 49.43 22.189 69.95 31.317 35.58 15.829-31.83 24.848-65.06 32.395-38.17 8.665-69.67 24.472-35.46 37.878 13.09 5.126 29.19 8.181 35.04 14.871 9.14 10.462 2.22 22.418-5.19 32.76-11.18 15.547-28.86 30.926-52.9 44.977-17.22 10.06-45.79 25.834-87.63 24.651-28.16-.79-56.8-3.674-84.22-6.224-41.06-3.816-81.61-8.166-121.94-12.684-93.1-10.401-185.17-21.87-275.44-34.484-61.59-8.61-233.383-43.795-246.31-45.051-38.543-3.739-82.365-3.081-122.102-2.502-52.859.77-105.453 2.765-158.005 4.613-25.016.875-50.157 1.944-75.305 2.375-17.899.306-41.406.568-57.084-2.692-30.603-6.362 3.492-20.918 17.592-27.077 43.194-18.88 97.834-35.229 149.066-51.946 25.141-8.208 50.666-16.402 73.489-25.268 9.204-3.58 32.278-10.768 22.187-15.671z"></path><path d="M759.607 201.293c-44.591-15.886-106.136-27.701-159.253-40.968-26.66-6.661-53.487-13.504-76.481-21.438-11.961-4.126-26.897-9.343-29.201-15.094-6.159-15.385 86.319-13.305 113.998-13.889 53.515-1.133 113.971-1.993 162.521-9.844 29.662-4.8 44.27-12.677 38.725-23.03-2.458-4.594-6.284-8.497 0-13.007 6.368-4.57 19.636-7.794 33.07-10.212 38.607-6.952 86.585-9.174 130.051-10.83a3334.893 3334.893 0 0 1 153.713-2.254c44.96.37 89.72-3.788 133.62-6.53 58.17-3.629 117.39-6.798 176.91-6.32 47 .382 94.38 3.372 134.57 11.32 40.83 8.093 65.38 20.208 87.52 33.28 33.46 19.763 75.16 46.245 148.57 53.751 10.67 1.093 20.62 1.214 31.63 1.404 5.35.092 12.26.12 14.91 1.868 6.38 4.209-17.21 12.369-23.8 15.212-21.01 9.079-43.8 17.748-65.34 26.706-20.11 8.363-42.01 17.078-54.5 26.878-19.88 15.608 43.67 24.735 41.89 39.608-1.11 9.234-29.33 15.855-51.67 20.436-27.51 5.633-67.12 9.337-80.89 19.616-10.26 7.656 5.83 12.112 18.23 17.922 21 9.844 22.43 23.188 20.25 34.583-2.95 15.398-14.46 31.024-34.06 45.177-8.89 6.417-19.77 13.091-35.78 18.074-15.01 4.67-29.21 5.867-49.27 4.911-61.39-2.931-123.37-11.102-182.24-18.399-73.97-9.171-146.92-19.295-217.69-30.685-48.25-7.768-97.6-15.987-139.955-26.719-11.039-2.798-22.344-5.838-30.416-9.529-6.103-2.774-8.694-5.064-18.979-6.648-30.486-4.692-72.892-3.465-105.556-2.977-52.23.777-104.209 2.844-156.118 4.705-30.29 1.094-87.352 4.535-111.54-3.718-20.878-7.127 4.315-19.279 17.184-25.557 32.553-15.878 74.428-29.812 113.279-44.16 17.806-6.576 36.31-13.202 51.015-20.513 3.757-1.864 9.776-4.334 10.809-6.598 1.159-2.594-4.252-4.574-9.726-6.532z"></path><path d="M763.44 204.991c-41.204-14.046-90.844-25.585-135.078-38.729-19.834-5.894-39.863-12.076-54.975-19.266-8.129-3.866-16.761-8.732-14.52-13.538 6.432-13.792 82.492-12.546 113.22-13.354 45.659-1.187 98.113-2.382 138.486-9.819 26.447-4.871 36.364-12.065 31.426-21.343-5.3-9.952 6.551-17.176 33.522-22.728 33.815-6.955 76.499-9.79 115.761-11.804a2516.86 2516.86 0 0 1 143.128-3.199c46.6.28 91.75-2.167 138.04-3.759 61.38-2.108 124.73-3.148 185.42 1.174 52.84 3.763 100.56 12.056 136.34 24.88 37.37 13.385 55.87 30.249 86.21 45.057 18.93 9.236 45.32 21.454 80.69 25.044 11.79 1.198 33.29-.418 23.87 5.474-5.39 3.369-15.47 6.324-23.43 9.078-12.86 4.451-26.15 8.779-39.23 13.169-27.88 9.356-57.74 18.912-78.63 29.992-26.33 13.95 12.81 24.686 8.04 38.83-2.57 7.612-19.45 13.687-37.32 18.46-11.55 3.091-24.2 5.769-37.11 8.266-13.49 2.61-29.45 4.598-41.21 7.971-16.76 4.801-9.48 10.485-6.34 16.691 5.53 10.907 6.75 21.987 3.62 32.987-3.83 13.484-12.8 27.353-31.71 39.606-7.35 4.77-16.67 9.827-30.5 13.026-13.84 3.198-28.15 2.979-44 2.016-47.02-2.846-93.94-9.468-138.55-15.745-55.83-7.857-110.56-16.638-162.82-26.628-36.08-6.896-72.28-14.346-102.46-23.696-8.78-2.721-17.13-5.635-23.884-8.888-4.637-2.231-7.123-5.11-13.842-6.787-21.02-5.234-63.223-3.671-87.875-3.367-49.2.607-97.625 3.49-146.762 4.19-26.817.384-68.817 1.347-88.511-5.81-18.52-6.727-1.746-17.323 9.323-23.805 21.755-12.746 50.981-24.102 77.177-35.95 10.769-4.875 22.571-9.976 29.548-15.543 6.201-4.961-4.505-8.551-15.064-12.153z"></path><path d="M773.575 205.221c-32.797-12.36-72.335-23.332-105.369-35.893-19.336-7.356-52.635-19.723-37.681-30.094 16.405-11.396 73.59-11.707 106.645-12.625 39.342-1.093 85.544-2.586 119.213-9.702 10.649-2.249 19.72-5.227 23.565-9.148 4.117-4.198-.384-7.87-.97-12.072-1.228-8.814 15.561-15.89 37.779-20.75 31.401-6.871 70.667-10.12 107.753-12.385 42.02-2.554 84.74-3.813 127.54-3.76 40.9.044 81.38-.24 122.32-.568 53.55-.437 107.86.269 159.8 4.726 51.17 4.394 97.69 12.63 134.24 24.742 35.65 11.82 59.7 26.269 80.77 40.985 11.95 8.353 32.15 20.836 60.66 25.055 12.68 1.878 25.12 1.749 11.64 6.633-16.98 6.149-39.86 11.083-59.52 16.343-28.37 7.59-57.45 15.329-81.26 24.353-15.2 5.763-21.98 11.355-20.93 18.816.81 5.684 4.48 11.308 2.62 17.014-4.34 13.392-38 22.576-67.75 31.128-19.14 5.5-36.62 9.695-46.48 17.519-11.65 9.247-16.54 19.308-24.33 28.909-8.55 10.544-18.44 21.511-37.11 30.798-16.62 8.267-36.84 11.975-67.09 9.747-47.2-3.471-93.71-12.023-135.61-19.935-42.64-8.049-84.55-17.099-119.89-28.163-19.07-5.975-32.1-12.99-49.04-19.408-21.309-8.058-69.521-5.006-98.173-4.324-47.562 1.132-197.22 9.606-183.41-17.839 5.764-11.455 28.463-22.027 45.064-32.135 6.88-4.195 16.838-9.23 18.394-14.037 1.696-5.236-13.53-10.209-23.39-13.93z"></path><path d="M790.891 206.271c-25.063-11.201-55.057-21.783-76.562-33.881-13.951-7.834-27.651-18.302-9.654-26.592 20.312-9.355 65.101-11.535 98.011-12.727 33.908-1.227 74.386-2.26 102.099-9.353 8.817-2.259 16.085-5.306 17.439-8.955 1.304-3.499-2.379-6.999-1.158-10.562 2.734-8 18.213-14.593 38.169-19.374 59.035-14.145 146.895-17.29 218.125-17.66 35.65-.184 72.34.78 108.22 1.472 46.56.897 93.19 2.822 137.6 7.46 94.41 9.86 157.69 31.729 201.89 58.94 13.9 8.565 24.55 17.833 46.35 24.716 11.23 3.554 8.78 6.107-2.71 9.348-17.96 5.066-39.87 8.937-59.81 13.165-28.35 6.013-57.31 12.115-82.39 19.318-17.29 4.965-29.56 9.748-33.28 17.193-2.66 5.309-2.04 10.718-3.63 16.059-3.05 10.147-13.46 20.217-31.9 28.633-14.64 6.671-32.08 12.734-50.11 18.515-23.43 7.526-43.24 15.173-61.04 24.105-23.59 11.825-56.74 33.636-112.3 27.864-61.29-6.37-118.73-22.553-158.05-38.233-13.21-5.265-24.05-11.722-41.85-15.604-26.66-5.803-53.714-5.599-85.424-5.575-47.475.033-150.781 3.263-151.897-19.029-.439-8.832 11.754-17.183 17.592-25.678 6.585-9.515-6.612-15.932-23.73-23.565z"></path><path d="M809.558 207.269c-24.79-14.598-80.38-38.586-38.1-54.819 22.334-8.579 61.836-11.803 94.974-13.724 26.668-1.554 58.828-2.138 78.977-8.726 14.81-4.843 8.236-11.892 13.91-17.955 7.042-7.517 23.206-13.668 43.071-18.29 55.5-12.92 132.68-16.885 199.45-17.728 69.35-.875 145.76 3.215 211.01 11.081 81.37 9.812 142.32 28.39 184.95 51.917 7.87 4.343 15.01 8.8 22.57 13.195 5.07 2.949 12.59 5.801 16.59 8.902 6.66 5.172-1.18 9.399-13.76 12.769-18.09 4.853-40.31 8.306-60.94 11.947-28.2 4.984-57.03 9.878-83.27 15.724-17.63 3.935-36.08 8.173-42.39 14.999-4.3 4.655-5.2 9.586-5.04 14.408.33 10.338-1.4 18.698-16.8 28.167-25.33 15.545-64.29 29.522-105.45 41.152-32.3 9.128-83.4 23.306-130.47 17.204-42.22-5.464-66.92-18.544-94.74-29.118-13.52-5.141-28.72-9.836-46.57-13.492-22.51-4.61-43.699-6.544-70.366-7.298-44.884-1.27-112.562-1.6-126.437-18.474-5.122-6.227-2.198-12.677-4.885-18.985-3.511-8.341-13.777-15.492-26.284-22.856z"></path><path d="M835.335 207.81c-17.653-15.974-40.844-36.104 1.793-50.301 20.652-6.877 49.702-10.722 77.817-13.595 20.136-2.059 52.108-2.665 64.453-8.995 9.067-4.659 10.322-11.085 18.525-16.076 11.267-6.862 28.347-12.514 48.377-16.939 52.18-11.529 120.15-15.984 182.14-17.26 134.68-2.768 271.72 19.278 343.79 55.548 21.49 10.812 49.22 22.319 14.5 33.365-37.92 12.05-95.03 17.695-140.28 26.257-17.29 3.269-39.33 7.199-48.97 13.118-5.81 3.558-6.2 8.022-6.47 11.939-.7 9.975-3.34 18.947-16.14 28.255-19.77 14.385-51.28 27.656-87 38.527-31.15 9.479-75.57 20.618-120.81 13.785-34.69-5.252-56.68-16.398-83.63-24.615-30-9.15-67.09-15.316-107.819-18.33-39.624-2.923-83.083-4.894-103.965-17.314-7.163-4.26-14.647-9.777-17.333-14.492-4.334-7.775-10.682-15.426-18.978-22.877z"></path><path d="M864.078 207.922c-8.167-16.129-9.074-32.948 28.87-45.661 17.709-5.93 40.094-10.144 62.731-13.961 16.654-2.809 33.853-5.179 46.291-9.784 11.53-4.263 20.29-9.214 31.41-13.589 14.68-5.799 32.24-10.818 52.01-14.866 49.56-10.126 109.85-14.863 167.52-16.506 27.92-.798 58.21-1.214 85.94.963 26.79 2.1 53.27 5.421 77.89 9.293 52.36 8.224 97.73 20.267 130.62 35.493 22.55 10.444 34.74 20.599 5.54 31.194-32.93 11.942-84.55 18.532-127.1 26.283-29.19 5.316-61.89 10.527-67.35 21.824-4.34 8.989-7.86 17.521-19.09 26.018-16.72 12.533-41.3 23.886-72.28 33.386-28.33 8.654-64.17 15.998-104.7 11.376-32.11-3.669-57.02-11.888-85.07-17.764-31.27-6.563-65.62-10.182-101.787-13.091-32.506-2.625-63.114-6.659-84.125-15.224-4.299-1.75-8.816-3.656-12.131-5.614-4.23-2.498-3.902-4.975-4.733-7.775-2.163-7.39-6.763-14.694-10.456-21.995z"></path><path d="M895.77 206.604c.697-15.321 12.453-29.8 44.652-41.74 13.765-5.108 30.203-9.315 45.35-13.995 12.195-3.773 23.718-7.279 37.748-10.388 33.26-7.363 60.3-16.89 95.65-23.446 47.19-8.765 101.25-13.61 154.89-15.547 26.19-.946 53.24-1.277 79.74-.208 22.76.918 44.56 4.141 64.78 7.439 39.62 6.46 78.1 15.641 103.83 27.256 56.73 25.609-55.11 44.227-112.52 55.131-26.4 5.015-66.74 10.824-77.56 20.759-7.73 7.097-12.44 14.315-22.39 21.193-26.74 18.472-81.03 40.198-153.37 37.305-30.96-1.235-59.18-6.255-88.07-9.625-29.76-3.471-60.47-5.406-91.401-7.529-28.905-1.983-51.943-4.806-70.613-12.372-8.923-3.613-8.135-7.939-8.93-12.371-1.298-7.282-2.1-14.605-1.786-21.862z"></path><path d="M924.627 204.642c11.623-23.126 54.788-48.372 118.253-61.802 74.66-15.798 155.55-29.102 244.75-32.926 41.35-1.773 86.65-2.646 125.68 3.153 29.7 4.411 64.19 11.003 80.54 20.274 39.98 22.677-48.96 40.73-99.63 51.221-27.28 5.648-62.01 11.152-82.57 19.4-11.93 4.782-18.02 11.107-27.66 16.36-29.18 15.916-77.23 28.753-137.08 31.049-27.68 1.061-55.55-.251-83.02-1.294-28.11-1.067-56.57-1.647-84.51-3.136-22.302-1.189-48.585-3.203-56.799-10.684-10.358-9.426-2.696-22.172 2.046-31.615z"></path><path d="M952.926 200.927c16.95-21.742 52.844-42.95 113.184-55.929 32-6.883 69.14-11.634 104.81-16.328 40.42-5.32 82.66-9.449 125.8-11.498 53.71-2.551 140.7-4.851 168.76 14.33 27.85 19.039-42.53 35.89-84.15 45.492-26.68 6.152-55.24 11.798-80.74 18.523-13.82 3.646-24.47 7.859-36.17 12.135-32.34 11.848-78.43 21.227-125.42 26.234-45.53 4.854-101.87 7.003-149.936 5.399-20.74-.689-35.565-3.015-41.837-9.629-8.692-9.193-1.308-19.748 5.699-28.729z"></path><path d="M981.044 195.071c16.839-19.143 53.156-36.627 106.136-48.116 59.39-12.88 135.86-20.037 206.14-23.676 37.36-1.933 118.32-7.174 137.36 7.826 19.04 15-36 29.782-67.69 37.919-38.45 9.862-79.91 19.383-121.32 28.231-35.98 7.693-74.37 15.558-113.34 21.498-21.98 3.37-44.88 6.122-68.42 8.223-17.43 1.543-39.6 3.844-57.87 2.696-46.097-2.901-29.049-25.448-20.996-34.601z"></path><path d="M1015.75 189.339c36.95-36.202 154.01-54.006 266.72-60.212 26.19-1.441 99.61-6.634 114.24 4.424 14.19 10.722-30.93 23.438-52.05 29.462-65.45 18.668-146.31 32.51-222.94 46.222-23.92 4.28-67.05 13.568-96.72 9.284-32.216-4.661-16.9-21.674-9.25-29.18z"></path><path d="M1053.6 182.371c32.13-26.66 125.58-41.95 211.51-46.991 21.04-1.233 74.49-5.073 90.43 2.366 14.75 6.882-20.45 16.854-33.62 20.817-29.32 8.824-64.07 16.093-98.39 23.08-31.74 6.464-63.82 13.09-97.22 18.557-17.59 2.878-50.58 9.018-70.57 4.575-21.52-4.781-9.28-16.484-2.14-22.404z"></path><path d="M1095.3 174.582c24.49-17.41 90.08-28.715 147.94-32.472 15.57-1.009 49.21-3.625 62.35 1.024 12.09 4.282-7.4 10.559-16.05 13.458-38.33 12.85-94.45 24.328-145.88 31.378-12.93 1.772-36.18 5.251-49.48 1.674-13.64-3.674-4.5-11.065 1.12-15.062z"></path><path d="M1139.54 167.269c13.8-8.645 49.87-15.168 79.75-17.244 21.02-1.46 46.29-.199 27.97 7.326-18.2 7.468-51.98 14.289-80.61 17.312-21.84 2.306-38.96.031-27.11-7.394zM20.501 227.145c-.885-17.079-29.84-34.83-15.54-52.233 11.742-14.293 70.86-15.486 106.325-21.962 28.182-5.144 44.176-14.258 59.417-23.002 13.694-7.85 25.994-15.936 40.42-23.657 9.339-4.992 25.374-14.794 45.626-14.97 19.387-.171 37.165 7.467 48.427 11.982 14.684 5.886 27.702 12.16 41.96 18.14 24.029 10.086 52.86 17.551 85.872 24.617a5808.517 5808.517 0 0 0 114.562 23.295c28.573 5.531 57.341 11.021 84.805 17.099 17.228 3.813 55.25 10.969 55.425 17.999.083 3.355-10.057 7.07-16.893 9.752-11.569 4.539-24.754 8.689-37.981 12.75-24.635 7.564-50.316 14.785-75.718 22.093-32.97 9.485-64.463 18.815-93.446 29.582-29.967 11.146-58.595 22.659-87.809 34.015-19.785 7.693-39.549 16.332-68.087 21.053-35.744 5.9-65.083-.322-101.231-.394-31.095-.063-28.803-22.652-32.754-28.933-3.965-6.358-12.704-12.276-16.091-18.649-4.223-7.955-4.279-16.094-5.318-24.134-1.261-9.835-1.763-19.197-35.29-22.947-19.081-2.131-39.723-2.579-59.473-3.856-12.795-.828-36.929-2.244-37.208-7.64z"></path><path d="M35.788 224.107c-3.26-14.317-22.516-32.641-4.306-47.42 15.557-12.629 64.211-14.266 96.973-20.901 27.046-5.471 39.085-14.426 52.605-23.222 10.846-7.057 21.364-14.182 33.676-21.013 9.073-5.034 22.928-13.533 41.793-14.575 16.961-.937 35.149 6.567 44.669 10.384 13.889 5.572 25.769 11.624 38.038 17.549 21.56 10.408 43.636 19.767 75.191 27.413 31.694 7.678 66.368 13.419 101.412 19.394 27.416 4.676 54.692 9.487 80.739 14.884 19.403 4.019 47.3 9.162 56.178 16.328 7.029 5.669-28.616 15.077-39.127 18.397-21.636 6.827-44.564 13.236-67.534 19.605-28.002 7.761-56.897 14.549-81.625 23.402-44.229 15.83-81.2 35.542-138.111 47.306-34.325 7.096-72.524 8.911-110.702 7.849-15.117-.42-18.747-7.111-20.652-11.014-3.169-6.483-3.567-13.078-6.003-19.587-2.282-6.094-7.349-11.883-11.432-17.858-4.132-6.054-5.29-12.257-8.333-18.353-1.885-3.785-3.748-8.188-11.991-11.231-8.529-3.149-22.6-4.469-34.898-5.472-23.095-1.865-84.256-1.762-86.56-11.865z"></path><path d="M55.464 218.114c-5.482-13.142-13.156-29.51 9.175-41.618 18.254-9.9 57.184-12.036 84.99-18.487 23.128-5.364 31.864-13.895 43.344-21.824 9.42-6.503 18.889-13.034 30.306-19.223 8.659-4.693 19.818-11.056 37.01-12.693 14.699-1.399 31.305 4.868 39.454 7.987 13.875 5.316 25.188 11.273 36.423 17.151 18.379 9.618 35.292 19.892 61.451 27.715 25.418 7.592 55.612 12.073 86.372 17.111 23.561 3.861 46.975 7.87 69.174 12.473 17.045 3.533 38.169 7.719 47.051 13.597 7.681 5.069-12.039 11.069-21.892 14.645-16.27 5.902-34.328 11.317-52.135 16.753-19.217 5.865-40.501 11.275-59.097 17.284-39.104 12.646-70.346 26.647-118.543 36.335-31.214 6.275-73.217 11.976-110.115 10.951-26.535-.739-24.789-19.149-27.338-25.031-4.19-9.618-12.283-19.723-25.139-28.583-11.04-7.592-37.275-9.933-61.408-11.636-15.119-1.069-30.963-1.646-45.585-3.298-16.927-1.915-21.2-4.101-23.498-9.609z"></path><path d="M73.816 211.954c-3.264-11.111-2.53-24.25 18.612-33.861 18.527-8.418 51.515-10.635 74.977-17.266 18.311-5.174 25.502-13.61 35.35-20.453 12.035-8.366 28.899-23.817 59.259-26.965 28.242-2.927 57.777 15.769 68.002 21.344 16.186 8.824 29.724 18.501 49.356 26.65 16.906 7.016 39.557 10.894 63.599 15.061 30.653 5.323 77.193 11.635 93.582 22.009 12.216 7.73-27.509 19.222-41.074 24.578-14.188 5.595-24.874 12.227-39.516 17.624-23.105 8.517-60.545 15.375-91.457 20.608-30.052 5.091-69.078 10.725-103.17 10.389-22.406-.219-26.67-11.066-31.45-16.365-6.849-7.533-15.956-14.283-35.518-19.407-19.911-5.215-43.38-7.673-68.051-9.823-12.664-1.097-27.11-1.952-38.439-4.166-12.517-2.409-12.804-5.687-14.062-9.957z"></path><path d="M96.178 205.55c.18-9.599 7.182-19.835 27.941-27.239 17.291-6.168 44.355-8.229 60.906-14.534 13.111-4.991 19.785-11.998 28.562-17.795 10.735-7.103 25.914-19.511 52.609-21.977 26.054-2.399 49.098 11.268 59.088 16.676 14.629 7.93 26.472 16.336 41.233 24.244 11.564 6.204 25.706 10.203 44.536 14.202 22.104 4.696 52.943 9.899 64.751 17.67 8.513 5.626-12.093 14.617-19.575 19.573-5.016 3.329-9.607 6.71-12.129 10.319-1.964 2.81-2.159 5.41-7.85 7.823-14.33 6.069-45.748 6.861-67.065 8.861-28.311 2.655-58.349 5.672-87.977 6.248-18.209.36-27.502-4.9-37.896-8.6-12.281-4.374-29.669-7.519-44.856-10.82-20.042-4.363-41.853-7.077-64.417-9.856-10.177-1.255-22.131-2.485-30.017-4.979-8.234-2.585-7.907-6.352-7.844-9.816z"></path><path d="M119.664 199.851c3.598-8.062 14.811-15.767 33.751-21.466 14.518-4.375 33.8-6.838 45.452-12.096 10.858-4.9 18.424-10.472 27.392-15.712 9.49-5.539 23.59-14.797 45.48-16.305 23.591-1.623 41.763 7.716 51.826 12.893 12.712 6.541 22.37 13.579 33.737 20.345 8.563 5.044 19.486 9.656 32.405 13.684 13.549 4.247 31.924 8.314 38.779 14.153 6.06 5.171-5.279 11.428-7.28 16.672-2.141 5.603 1.611 11.488-10.258 16.299-24.476 9.921-85.905 8.081-121.023 8.293-34.65.219-62.509-5.852-90.549-11.628-18.521-3.813-37.809-7.042-56.798-10.595-19.358-3.625-26.08-7.442-22.914-14.537z"></path><path d="M141.484 195.237c10.641-11.679 43.875-17.887 67.634-26.713 19.44-7.225 34.016-22.189 66.755-24.168 37.169-2.246 59.421 17.58 72.343 25.23 14.339 8.485 39.877 15.386 50.497 24.368 5.582 4.714.788 9.113-2.184 13.825-3.259 5.174-5.708 10.464-16.956 14.628-22.139 8.196-65.379 8.139-96.52 8.364-32.237.235-60.754-5.382-86.439-10.987-27.24-5.936-66.029-12.57-55.13-24.547z"></path><path d="M159.307 192.07c11.99-8.321 37.186-15.086 57.632-21.472 17.064-5.324 35.422-16.041 61.441-16.805 30.58-.901 49.113 10.543 61.146 17.56 11.842 6.896 28.907 14.176 35.464 21.744 6.839 7.884-11.371 18.501-28.738 24.079-19.37 6.221-51.061 8.519-78.253 8.271-28.471-.252-54.596-5.393-76.158-10.726-23.053-5.7-46.478-12.992-32.534-22.651z"></path><path d="M175.844 190.503c11.453-6.921 31.306-12.775 49.612-17.997 14.126-4.032 34.971-10.888 55.352-11.055 22.421-.186 41.423 5.569 50.336 11.467 8.787 5.817 18.045 13.111 19.361 19.493 2.856 13.899-55.296 29.467-98.963 28.2-41.402-1.201-98.534-16.318-75.698-30.108z"></path><path d="M191.138 189.74c15.8-9.017 54.179-21.872 89.71-22.178 40.784-.349 51.022 13.957 45.706 24.324-5.4 10.581-52.421 25.896-89.914 23.827-36.593-2.02-64.228-15.279-45.502-25.973z"></path><path d="M207.286 188.282c13.378-7.55 41.924-16.98 71.698-17.266 35.476-.337 34.807 11.74 26.762 19.258-8.365 7.805-45.208 21.136-76.271 19.031-30.206-2.055-35.009-13.786-22.189-21.023z"></path><path d="M221.351 187.413c8.83-5.387 30.93-12.196 51.939-12.414 25.679-.262 20.687 9.318 14.052 13.942-7.886 5.501-34.32 15.061-56.504 13.512-21.841-1.525-16.772-10.601-9.487-15.04zM1429.35 495.224c-56.84 10.809-121.1 19.731-181.69 28.8-88.55 13.25-178.4 26.145-271.438 36.015-49.882 5.291-114.521 12.919-168.046 8.774-19.569-1.515-37.415-6.098-54.962-9.075-24.195-4.106-48.745-8.008-73.254-11.92-49.165-7.839-98.482-15.6-146.803-23.943-23.267-4.018-45.843-9.08-70.066-12.508-14.155-2.004-31.095-1.066-46.22-.94-35.037.296-70.052.855-105.068 1.332-42.83.581-85.757 1.2-128.635.97-19.339-.104-66.704.971-77.35-4.25-5.728-2.811 7.772-7.881 14.03-10.227 11.49-4.311 24.697-8.196 37.73-12.041 30.139-8.894 62.147-17.364 88.938-27.298 13.764-5.107 31.799-11.346 22.813-18.318-9.069-7.042-24.781-13.139-34.367-20.157-11.037-8.076-15.613-16.48-20.825-25.043-3.858-6.33-12.844-11.937-21.293-17.772-9.334-6.45-19.004-12.954-25.485-19.755-4.284-4.493-11.198-12.575 3.788-15.42 21.293-4.044 61.22-.769 85.492.422 33.543 1.644 66.843 3.739 100.296 5.543 24.285 1.311 48.655 2.75 73.345 2.903 39.802.247 79.736-.608 119.433-1.404 73.506-1.473 146.485-3.471 220.238-3.471 64.616 0 213.939 23.429 248.889 27.555 69.77 8.235 141.39 16.042 207.41 27 17.86 2.966 45.35 6.919 54.75 13.025 5.79 3.763 3.13 5.938 16.8 8.363 18.66 3.307 42.56 4.606 63.21 6.086 33.26 2.383 66.78 4.401 100.19 6.559 67.57 4.353 134.69 9.276 201.98 14.013 20.35 1.432 44.96 1.749 64.36 4.272 12.5 1.62 11.2 3.66 1.52 6.122-16.97 4.32-40.76 6.718-60.81 9.182-29.38 3.609-59.24 6.83-89.11 10.004-29.88 3.175-59.91 6.251-89.79 9.432-19.75 2.094-42.26 3.797-60 7.17z"></path><path d="M1382.58 492.847c-60.13 10.83-126.87 19.459-191.21 27.877-82.34 10.78-166.54 20.884-253.302 27.623-50.94 3.954-111.043 8.319-163.093 3.785-18.569-1.618-32.441-5.254-48.358-8.464-18.143-3.663-36.984-7.019-55.825-10.323a7992.236 7992.236 0 0 0-117.582-19.704c-20.976-3.369-44.067-7.882-67.764-9.051-18.841-.93-40.243.416-59.168.808-34.081.705-68.156 1.432-102.251 2.049-39.342.712-78.797 1.369-118.223 1.255-21.974-.064-59.698.985-75.239-3.466-13.558-3.884 35.805-17.931 44.486-20.599 27.11-8.333 55.623-16.267 80.856-25.178 14.912-5.254 33.069-11.645 39.356-18.61 5.353-5.935-4.975-12.698-11.074-18.184-7.627-6.873-13.782-13.997-22.644-20.725-7.892-5.994-20.453-11.334-31.485-16.783-12.135-5.995-24.424-12.088-33.433-18.627-5.519-4.024-14.654-10.763-3.684-14.599 12.672-4.423 51.736-1.533 67.793-.902 32.574 1.296 64.896 3.223 97.247 4.948 53.732 2.864 104.958 5.368 159.674 4.768 71.253-.783 142.437-2.627 213.677-3.647 26.308-.381 53.034-1.147 79.362-.734 15.094.239 26.587 1.684 35.366 4.944 11.988 4.449 39.6 6.912 58.804 9.465 29.943 3.978 60.263 7.678 90.5 11.426 66.374 8.232 134.024 16.166 196.974 26.813 19.92 3.367 42.72 7.122 57.46 12.685 8.22 3.102 6.14 6.091 11.16 9.388 6.64 4.337 28.49 6.294 41.54 7.713 25.2 2.741 51.43 4.578 77.46 6.299 58.89 3.892 117.93 6.452 177.78 8.337 14.03.438 69.26 1.955 40.25 9.267-32.05 8.081-78.33 12.042-116.06 16.596-33.99 4.094-68.01 7.903-99.35 13.55z"></path><path d="M1299.49 490.844c-56.52 9.528-119.12 16.637-179.99 23.437-73.86 8.252-149.57 15.608-227.033 19.728-48.662 2.586-102.312 4.573-150.646.275-33.007-2.933-58.54-10.864-87.53-16.32-28.99-5.456-59.154-10.577-90.22-14.846-19.28-2.65-40.02-5.319-61.473-4.969-52.162.848-104.261 2.87-156.479 3.852-34.544.655-69.158 1.195-103.806 1.034-20.894-.097-49.599.297-68.097-3.148-20.446-3.81 88.425-36.341 98.715-40.003 25.798-9.18 57.037-21.365 52.05-34.421-4.771-12.482-25.449-21.8-48.837-31.58-13.273-5.563-55.836-20.425-40.063-27.661 9.012-4.136 38.715-2.704 52.826-2.422 27.81.555 55.466 1.749 83.129 2.785 40.335 1.502 81.781 3.821 122.291 4.501 28.208.472 56.583-.16 84.84-.173 40.517-.017 81.034.079 121.551.192 34.02.097 68.326 0 102.227 1.023 21.076.63 37.073 2.044 52.19 6.04 13.154 3.476 33 5.511 49.766 7.721 27.691 3.648 55.745 7.03 83.709 10.466 58.55 7.196 117.76 14.241 173.8 23.234 25.58 4.103 68.59 9.848 74.6 19.796 2.16 3.587 3.75 5.137 14.93 7.176 15.87 2.894 34.87 4.199 52.67 5.334 41.49 2.645 84.19 2.249 125.61 4.864 16.87 1.077 38.9 3.403 19.64 8.728-22.47 6.228-55.19 9.651-82.11 13.498-13.44 1.919-27.29 3.716-40.05 6.059-9.8 1.806-18.19 4.121-28.21 5.8z"></path><path d="M1192.45 487.869c-52.22 7.739-108.92 13.366-164.6 18.438-61.855 5.627-125.199 10.288-189.379 12.271-44.317 1.374-91.535 1.779-134.547-2.426-27.201-2.66-45.642-8.254-69.049-12.945-35.326-7.091-73.547-12.709-115.988-11.341a8880.618 8880.618 0 0 1-143.209 3.442c-28.889.462-57.89.808-86.813.486-18.288-.201-41.848-.541-57.757-3.137-21.287-3.478 58.67-29.938 68.637-33.794 24.718-9.565 42.838-19.6 53.425-31.45 8.635-9.669-9.004-17.27-27.2-24.503-11.313-4.492-47.867-15.79-36.422-21.623 6.277-3.216 26.964-3.05 38.075-3.214 21.174-.311 42.44.013 63.615.156 31.267.219 64.55-1.287 95.552-.075 68.707 2.682 137.24 5.005 206.372 6.843 38.109 1.012 76.449 1.933 114.216 3.885 13.559.701 27.564 1.444 40.411 3.03 8.265 1.019 12.771 2.754 19.745 4.179 33.255 6.779 76.665 10.267 114.119 14.612 49.787 5.776 99.847 11.462 148.317 18.286 25.49 3.589 61.1 7.712 78.64 15.037 5.3 2.213 3.04 3.984 6.37 6.111 3.84 2.455 15.49 3.186 23.02 3.87 17.08 1.554 88.58 3.902 55.63 13.015-15.72 4.341-35.75 7.126-53.48 10.538-6.41 1.235-12.67 2.478-18.02 4.145-8.95 2.796-17.76 4.391-29.68 6.164z"></path><path d="M1078.4 484.518c-103.077 12.521-223.874 21.051-336.249 19.399-37.37-.552-77.578-2.393-109.972-8.693-19.101-3.721-34.365-7.921-57.309-9.266-16.564-.969-34.4.132-51.062.53a10891.94 10891.94 0 0 1-72.447 1.513c-29.962.51-60.022.904-90.039.694-21.449-.151-51.069.019-69.701-3.592-22.246-4.308 34.379-24.517 42.346-28.118 19.311-8.727 32.848-17.183 37.741-27.701 1.439-3.064 6.29-6.206 5.661-9.294-.657-3.155-6.857-5.963-12.581-8.443-7.485-3.251-33.456-10.96-26.02-14.924 4.11-2.189 19.535-2.465 27.53-2.929 14.998-.876 30.213-1.346 45.303-2.043 25.6-1.186 51.019-5.05 76.71-4.94 69.086.289 139.172 7.005 206.874 10.693 40.249 2.2 80.771 4.196 120.531 7.175 12.581.944 25.538 1.92 37.496 3.52 8.345 1.117 13.706 3.106 21.435 4.356 29.641 4.801 63.726 7.714 95.553 10.945 41.32 4.203 82.78 8.279 123.81 12.753 25.72 2.804 58.79 5.271 80.95 10.472 16.19 3.798 5.13 4.934-3.41 8.471-4.37 1.804-3.36 3.581-5.25 5.624-2.71 2.915-10.35 5.015-17.52 6.902-9.89 2.607-23.07 4.754-31.15 7.95-2.86 1.125-2.72 2.522-5.03 3.502-6.71 2.857-24.51 4.267-34.2 5.444z"></path><path d="M968.809 480.057c-83.656 7.872-176.737 12.355-265.164 10.274-30.767-.724-61.721-2.408-90.381-6.107-13.039-1.677-22.827-3.547-37.115-3.648-33.152-.232-66.409.581-99.555.775-23.72.141-47.559.191-71.223-.407-15.823-.398-37.22-.876-50.182-3.917-18.837-4.43 15.167-19.489 22.087-23.649 11.47-6.9 22.848-14.57 18.3-22.554-1.396-2.442-3.865-4.598-4.186-7.088-.307-2.139.551-4.115-1.87-6.16-2.993-2.535-16.304-6.47-11.727-8.805 3.118-1.594 12.369-1.668 18.522-2.178a507.791 507.791 0 0 0 29.134-3.245c9.907-1.411 18.341-3.589 28.604-4.754 16.66-1.888 35.308-2.065 52.819-2.057 69.87.036 140.626 4.356 208.724 8.873 35.461 2.352 71.118 4.859 105.582 8.426 10.465 1.084 22.325 2.172 31.527 4.174 5.742 1.246 9.635 2.807 16.158 3.744 55.721 8.001 120.143 10.973 179.297 16.751 15.4 1.505 100.73 9.105 56.11 16.255-27.1 4.344-55.74 6.319-80.47 12.262-7.54 1.807-12.56 3.302-15.5 6.059-1.94 1.835 2.72.904-3.79 2.822-7.907 2.306-25.955 3.237-35.701 4.154z"></path><path d="M881.826 475.403c-97.942 6.425-201.662 6.731-301.149 1.034-25.08-1.434-51.182-1.091-76.57-1.456-24.667-.349-68.524.378-86.44-5.567-12.992-4.31 1.105-13.469 5.981-18.289 6.212-6.142 11.641-12.487 1.441-18.451-5.974-3.494-14.159-6.819-20.567-10.279-3.065-1.653-9.375-4.186-6.744-5.751 4.351-2.583 24.709-3.67 34.587-4.888 31.572-3.893 65.005-4.886 98.76-4.859 62.347.051 125.016 2.723 186.173 6.348 28.137 1.668 56.666 3.447 83.803 6.346 15.356 1.64 26.682 4.804 41.346 6.679 47.214 6.043 97.941 9.272 145.968 14.798 13.905 1.601 65.825 6.928 39.665 13.209-25.32 6.081-62.262 5.358-88.594 11.078-2.981.655-6.667 1.439-8.395 2.498-1.022.633.776 1.838 0 2.198-8.087 3.915-36.833 4.537-49.265 5.352z"></path><path d="M818.371 471.156c-50.247 2.16-101.598 2.696-152.691 2.832-27.928.074-58.612.632-85.939-1.585-16.786-1.366-32.998-2.56-50.302-3.42-18.619-.927-48.596-1.601-59.934-6.621-8.47-3.751-2.665-11.463-2.357-16.025.329-5.002-2.945-8.712-14.212-12.292-7.085-2.255-39.588-10.438-35.832-12.798 3.574-2.248 26.222-2.593 36.014-3.177 30.949-1.852 62.311-2.498 93.792-2.397 48.757.154 97.696 1.713 145.691 4.391 19.842 1.113 40.349 2.265 59.304 4.489 12.764 1.499 23.409 4.157 36.09 5.707 36.314 4.445 74.712 7.464 111.152 11.99 11.695 1.455 49.799 5.33 40.665 11.301-7.617 4.985-33.523 6.502-46.253 9.843-21.654 5.698-47.575 6.576-75.188 7.762z"></path><path d="M786.717 468.291c-39.859 1.43-80.644 2.055-121.088 2.086-26.101.02-53.637.131-79.251-1.708-12.866-.922-24.046-3.08-36.222-4.62-12.539-1.583-29.842-3.35-35.262-6.979-5.092-3.411-3.19-8.388-7.662-12.501-3.978-3.649-12.302-5.904-21.267-8.37-5.712-1.576-35.046-8.401-31.653-9.907 3.636-1.614 21.253-1.483 30.42-1.706 25.257-.625 50.603-.824 75.928-.597 34.565.333 69.394 1.26 103.36 3.359 24.095 1.487 42.269 5.029 64.734 7.627 29.103 3.373 59.252 6.041 88.077 9.732 14.363 1.839 35.623 4.205 42.979 8.952 2.828 1.819 5.573 6.446 2.424 8.265-3.782 2.186-17.86 3.114-24.506 3.675-16.648 1.402-34.07 2.084-51.011 2.692z"></path></g></svg>