<svg height="100%" width="auto" id="Vector_Graphics" data-name="Vector Graphics"
  xmlns="http://www.w3.org/2000/svg" viewBox="0 0 386 444">
  <defs>
    <linearGradient id="myGradient" gradientTransform="rotate(90)">
      <stop offset="100%" stop-opacity="1" stop-color="#034188">
        <animate attributeName="offset" to="0%" dur="2s" repeatCount="once" fill="freeze" />
      </stop>
      <stop offset="0%" stop-color="#0087ca">
        <animate attributeName="offset" to="100%" dur="2s" repeatCount="once" fill="freeze" />
      </stop>
    </linearGradient>
  </defs>
  <g class="tree" fill="url(#myGradient)">
    <path class="cls-1" d="M378.73,388.15,376,385.39V304l2.75-2.75,6.71-6.71,10.26-10.26,8-8,.19-.18V211.28l-.19-.18-8-8-1.8-1.81V186.66l1.8-1.8,1.49-1.49h27.1l.18-.19,13.61-13.61a3.72,3.72,0,0,0,2,.6h0a3.67,3.67,0,0,0,2.23-.75,3.73,3.73,0,0,0,.36-.32,3.63,3.63,0,0,0,1.08-2.6h0a3.66,3.66,0,0,0-1.07-2.59,2.73,2.73,0,0,0-.37-.32,3.62,3.62,0,0,0-2.23-.76h0a3.65,3.65,0,0,0-3.67,3.67h0a3.61,3.61,0,0,0,.72,2.18l-13.4,13.4h-27.1l-.18.19-.78.77-2.89,2.9-.19.18v15.65l.19.19,2.89,2.89,6.95,6.95v63.67l-6.95,6.95-10.26,10.26-6.71,6.71-3.84,3.84-.19.18v82.5l.19.19,3.84,3.84.54.54-.06,6.25-.48.48-4,4-.19.18v16l-.67.5-1.23.91v-117l1.23-1.23,4.84-4.84,6.71-6.71,10.26-10.26,4.58-4.58.18-.19V214.05l-.18-.19-4.58-4.58L390.37,204V183.81l4.05-4H420.7l.18-.19,13.71-13.71.19-.19v-4.92a3.45,3.45,0,1,0-1.28,0v4.39l-13.33,13.34H393.9l-.19.19-4.43,4.42-.19.19v21.19l.19.19,6.42,6.42,3.49,3.49v58.85l-3.49,3.49-10.26,10.26-6.71,6.71-4.84,4.85-2.32,2.31-.19.19V421.29l1-.76,1.49-1.1,1.69-1.25.26-.2V401.92l2.89-2.9,1.56-1.56.18-.18V397l.07-6.79V390l-.19-.19ZM437.55,166.5a2.55,2.55,0,0,1,.75-1.8,2.51,2.51,0,0,1,1.81-.75h0a2.52,2.52,0,0,1,1.8.74,2.67,2.67,0,0,1,.43.57,2.46,2.46,0,0,1,.32,1.24h0a2.5,2.5,0,0,1-.32,1.25,2.93,2.93,0,0,1-.42.56,2.57,2.57,0,0,1-1.81.75h0a2.56,2.56,0,0,1-2.56-2.55h0Z" transform="translate(-132.82 -42.64)" />
    <path class="cls-1" d="M300.49,54.51a4.24,4.24,0,0,0,.69.93A4.11,4.11,0,0,0,303,56.5v4.08l.19.18.88.88h0l3.28,3.28,3.33,3.33,0,27.85-3.36,3.36L306,100.84l-.19.19v41.5l-1.73,1.74-3.59,3.58-.48.48-6.47,6.47,0,0-.17.16v10.69l.17.16,0,0,2.58,2.59a3.4,3.4,0,0,0-.6,1.94,3.46,3.46,0,0,0,3.45,3.46,3.5,3.5,0,0,0,1.52-.35,3.45,3.45,0,0,0,0-6.2,3.37,3.37,0,0,0-1.52-.36,3.41,3.41,0,0,0-1.94.61l-2.4-2.4v-9.63l5.29-5.29.57-.57,3.59-3.59,2.82-2.82.19-.19v-41.5l.27-.28,3.89-3.89.56-.56.08-.08.11-.1v-.27L312,68v-.26l-.07-.08-.11-.11-.53-.52-3.89-3.89-3.07-3.08V56.63A4.1,4.1,0,0,0,307,55.44h0a3.47,3.47,0,0,0,.4-.46,4,4,0,0,0,.8-2.43h0a4.06,4.06,0,0,0-.8-2.42,5.58,5.58,0,0,0-.39-.46h0a4.07,4.07,0,0,0-2.89-1.2h0a4.07,4.07,0,0,0-2.87,1.2,4,4,0,0,0-.7.93,4,4,0,0,0-.5,1.95h0A4,4,0,0,0,300.49,54.51Zm.77-2a2.83,2.83,0,0,1,2.8-2.81h0a2.86,2.86,0,0,1,2,.83h0a2.83,2.83,0,0,1,.82,2h0a2.84,2.84,0,0,1-.82,2h0a2.82,2.82,0,0,1-2,.83h0a2.82,2.82,0,0,1-2.81-2.81h0Z" transform="translate(-132.82 -42.64)" />
    <path class="cls-1" d="M273.59,70.35v2.89l.19.19h0L277,76.57l2.7,2.66,5.93,5.84v6.17l.19.19,4.12,4.11,1.37,1.38v14.13l.17.19,2.07,2.16,3,3.09v20.74l-3,3-3.61,3.61L279.7,154l0,0-.16.15v12.34l.16.16,0,0,10.21,10.2,3.61,3.61,2.21,2.22V188l.19.19,4.57,4.57,3.59,3.58,1.72,1.73v21.22l.19.18,1.37,1.38,3.89,3.89.64.63.29.3.4.4v26.65l-.4.39-.29.3-.64.63L307.36,258l-3.28,3.29-.44.44-.19.19V287.1l-3,3-5.73,5.73V241.37l-.18-.19-1.06-1.06-3.61-3.61-10.09-10.09V170.81l-.15-.15,0,0L277,168l-9.32-9.33v-5.09a3.45,3.45,0,0,0-.64-6.84,3.91,3.91,0,0,0-.49,0,3.45,3.45,0,0,0-.15,6.81v5.62l.15.15,0,0L277,169.77l1.57,1.57V227l.19.19.94.94,10.24,10.23,3.58,3.58v57l0,0,1.06-1.06,5.91-5.91,3.59-3.59.46-.46.19-.19V262.41l2.63-2.64,3.89-3.89.64-.64.29-.29,1.22-1.22.27-.27.19-.19V225.56l-.19-.18-.27-.27-1.22-1.22-.29-.29-.64-.64-3.89-3.89-.28-.29V197.57l-.19-.19-2.81-2.81L300.49,191,297,187.5v-4.75a4.19,4.19,0,0,0,.59.73,4,4,0,0,0,2.88,1.2h0a4.1,4.1,0,0,0,2.88-1.19,4.28,4.28,0,0,0,.7-.93,4.16,4.16,0,0,0,.5-2h0a4.16,4.16,0,0,0-.5-2,4.22,4.22,0,0,0-.7-.92h0a4.06,4.06,0,0,0-2.89-1.2h0a4.1,4.1,0,0,0-2.88,1.19h0a3.33,3.33,0,0,0-.25.28l-3.83-3.84-3.61-3.6-4.42-4.42V154.9l4.42-4.41,3.61-3.61,1.4-1.4,5.57-5.57,2.12-2.12.19-.19V101.77l1.28-1.28,3.28-3.29.51-.5.18-.19V68.25l-.18-.19-.51-.5-3.28-3.29-3.59-3.58-7-7-3.61-3.61-1.41-1.4a3.45,3.45,0,1,0-2.4,1,3.37,3.37,0,0,0,1.31-.26l2.5,2.5,3.61,3.61,7,7,3.59,3.59,2.7,2.7V96l-2.7,2.7-2.37,2.37-.19.19v35.83l-1,1-5.72,5.72-1.25,1.26-3.61,3.61-5.51,5.5-.18.18v12.29l.18.18,5.51,5.5,3.61,3.61,3.16,3.16a4.06,4.06,0,0,0-.28,1.48h0a4.07,4.07,0,0,0,.17,1.16l-3.05-3.05-3.61-3.61L280.79,166V154.71l9.12-9.12,3.61-3.6,4-4,.18-.19V116l-.18-.18-4-4.25-1-1V96.39l-.19-.19-2.45-2.46-3-3V84.54l-.19-.19-7-6.91L277,74.79l-2.1-2.08V70.35a3.45,3.45,0,0,0,2.1-1.3,3.46,3.46,0,0,0-2.74-5.55,3.46,3.46,0,0,0-.64,6.85Zm24.08,110.24a2.79,2.79,0,0,1,.35-1.34l.3-.3-.06-.06a2.2,2.2,0,0,1,.24-.28h0a2.8,2.8,0,0,1,2-.83h0a2.8,2.8,0,0,1,2,.83h0a2.79,2.79,0,0,1,.82,2h0a2.8,2.8,0,0,1-.82,2,2.83,2.83,0,0,1-2,.82h0a2.79,2.79,0,0,1-2-.82,2.84,2.84,0,0,1-.83-2h0Z" transform="translate(-132.82 -42.64)" />
    <path class="cls-1" d="M316.26,90.5l4.07,4.07v20l.19.18,1.72,1.73.64.64,4.09,4.09v4.25a3.45,3.45,0,1,0,1.28,0v-4.77l-.19-.19-1.25-1.25-3.93-3.93-.64-.64-.64-.64V94l-.18-.19-5.16-5.16-.74-.74V63.78l.74-.69,2.65-2.46a3.41,3.41,0,0,0,2,.68,3.6,3.6,0,0,0,1.28-.24,3.28,3.28,0,0,0,.64-.34,3.44,3.44,0,0,0,0-5.74,3.28,3.28,0,0,0-.64-.34,3.39,3.39,0,0,0-1.28-.24,3.44,3.44,0,0,0-3.44,3.45A3.49,3.49,0,0,0,318,59.7l-1.78,1.65L314.44,63l-.2.19V88.48l.19.18Z" transform="translate(-132.82 -42.64)" />
    <path class="cls-1" d="M385.44,387.8l-5.73-5.72V305.2l5.73-5.72,10.26-10.26,11.5-11.5.18-.18V203.09L420,190.43h8.81l.19-.18,10.49-10.49h7.74l.18-.18,3.83-3.82,2.27-2.28.18-.18V159.17l-.18-.18-2.27-2.28-2.66-2.66v-2.58a3.48,3.48,0,0,0,2.66-2.37,3.81,3.81,0,0,0,.15-1,3.88,3.88,0,0,0-.15-1,3.45,3.45,0,1,0-3.94,4.42v3.11l.14.15,0,0,3.75,3.75,1.18,1.19v13L451.28,174l-4.54,4.54H439l-.19.18-10.48,10.49H419.5l-.18.19-13,13-.18.18V277L395.7,287.41l-10.26,10.26-6.71,6.71-.11.11-.18.18v77.94l.18.18.11.11,6.71,6.71,2.4,2.4v6.82l-2.4,2.4-4.32,4.33-.19.19v62l.19.19,4.32,4.32.47.47V485h1.27V472.16L387,472l-1.56-1.55-3.24-3.24v-60.9l3.24-3.24,3.49-3.49.19-.19v-7.88l-.19-.18Z" transform="translate(-132.82 -42.64)" />
    <path class="cls-1" d="M389.65,219a3.46,3.46,0,0,0,0,6.91,3.41,3.41,0,0,0,2-.6l2.2,2.19v27.74l-3,3a3.45,3.45,0,0,0-5.33,2.18,3.79,3.79,0,0,0-.06.67,3.63,3.63,0,0,0,.06.67,3.45,3.45,0,1,0,6.24-2.61l3.21-3.21.18-.19V227l-.18-.19-2.39-2.38a3.42,3.42,0,0,0,.61-1.95A3.46,3.46,0,0,0,389.65,219Z" transform="translate(-132.82 -42.64)" />
    <path class="cls-1" d="M242.73,162.27a3.45,3.45,0,0,0,3.39-2.81h3.72l9,9,7.68,7.68,4.93,4.93v46.65l.19.19,5.33,5.34,2.7,2.69,5.7,5.7v37l-3,3a4.13,4.13,0,0,0-2.7-1h0a4.13,4.13,0,0,0-2.69,1l-.19.18a4.07,4.07,0,0,0-1.2,2.89h0a4,4,0,0,0,1.2,2.88l.19.18a4.08,4.08,0,0,0,2.69,1h0a4.07,4.07,0,0,0,2.88-1.2h0a4.09,4.09,0,0,0,1.2-2.88h0a4.17,4.17,0,0,0-.57-2.07l3.27-3.27.19-.19v-38l-.19-.18-6.79-6.8-2.7-2.69-4.25-4.25V180.54l-.18-.19-6-6-7.68-7.67-8.28-8.29-.19-.19h-4.25a3.45,3.45,0,1,0-3.39,4.09Zm39.75,122.41a2.79,2.79,0,0,1-.82,2h0a2.84,2.84,0,0,1-2,.83h0a2.8,2.8,0,0,1-2-.83,2.9,2.9,0,0,1-.71-1.18,3.43,3.43,0,0,1-.12-.8h0a3,3,0,0,1,.12-.81,2.9,2.9,0,0,1,.71-1.18,2.79,2.79,0,0,1,2-.82h0a2.8,2.8,0,0,1,2,.82h0a2.79,2.79,0,0,1,.82,2h0Z" transform="translate(-132.82 -42.64)" />
    <path class="cls-1" d="M258.84,105.15a3.44,3.44,0,0,0,.91.12,3.39,3.39,0,0,0,1.89-.56l4.24,4.44.19.2h14.5l9.34,9.77.4.43v4.08a2.79,2.79,0,0,0-.4.07,4,4,0,0,0-2,1.1h0a4,4,0,0,0-1.2,2.88h0a4.1,4.1,0,0,0,1.19,2.88,4,4,0,0,0,2,1.1,3.44,3.44,0,0,0,.86.1h0a4.12,4.12,0,0,0,2.74-1.06l.14-.14a4.07,4.07,0,0,0,1.2-2.89h0a4.1,4.1,0,0,0-1.19-2.88h0l-.15-.15a4.15,4.15,0,0,0-1.93-1V119l-.18-.18-1.5-1.58-8.6-9-.19-.19H266.61l-.09-.1-4-4.15a3.4,3.4,0,0,0,.65-2,3.46,3.46,0,1,0-4.37,3.33Zm31.93,19.73h0a2.81,2.81,0,0,1,2,.82h0a2.87,2.87,0,0,1,.75,1.34,3.3,3.3,0,0,1,.07.64h0a3.32,3.32,0,0,1-.07.65,2.83,2.83,0,0,1-2.74,2.17h0a3,3,0,0,1-.86-.14,2.84,2.84,0,0,1-2-2.67h0a2.8,2.8,0,0,1,.83-2h0a2.82,2.82,0,0,1,1.12-.69,2.65,2.65,0,0,1,.85-.13h0Z" transform="translate(-132.82 -42.64)" />
    <path class="cls-1" d="M322.88,303.72l-.45-.45V226.65l.45-.45,8.64-8.64.19-.19V202.55l-.19-.19-8.64-8.64-.64-.63-1-1v-21l-.22-.2L318,168.11a4.09,4.09,0,0,0,.74-2.34h0a4.07,4.07,0,0,0-1.19-2.88,4.41,4.41,0,0,0-1.24-.85,4.13,4.13,0,0,0-1.65-.35h0a4.28,4.28,0,0,0-1.19.18,4.5,4.5,0,0,0-1.22.61l-.29.24c-.06.06-.12.11-.17.17a4.13,4.13,0,0,0-.47.55,4.05,4.05,0,0,0-.73,2.33h0a4.07,4.07,0,0,0,1.19,2.88l.18.17.29.24a4.5,4.5,0,0,0,1.22.61,4.3,4.3,0,0,0,1.2.18h0a4.27,4.27,0,0,0,1.65-.35,4.12,4.12,0,0,0,.81-.48l2.91,2.62v21l.19.18,2.07,2.07.64.64,7.55,7.55v13.76l-7.55,7.55-.64.64-.9.9-.18.18v77.7l.18.18.9.9.64.63,8.79,8.8V437l-2.87,2.88V313.65l-.19-.19-5.73-5.73-.64-.64L319.11,304V226.92l3.13-3.13.64-.63,5.18-5.19.19-.18v-14.4l-.19-.19L322.88,198l-.45-.45-.19-.19h-2.43a4.08,4.08,0,0,0-4.05-3.55h0a4.06,4.06,0,0,0-2.35.75,4.51,4.51,0,0,0-.53.45,3.9,3.9,0,0,0-.69.91,4.88,4.88,0,0,0-.29.66,4,4,0,0,0-.22,1.31h0a4,4,0,0,0,.22,1.31,4.88,4.88,0,0,0,.29.66,4.12,4.12,0,0,0,.69.91,4.65,4.65,0,0,0,.53.45,4.08,4.08,0,0,0,2.35.75h0a4,4,0,0,0,.49,0,4.11,4.11,0,0,0,2.39-1.17h0a4.08,4.08,0,0,0,1.13-2.15h1.93l.53.52.64.64,4.09,4.1v13.34l-4.09,4.09-.64.64L318,226.2l-.18.19V304.5l.18.18,4.22,4.22.64.64,4.64,4.64V442.9l1.09-1.09,4.15-4.15.19-.19V313.79l-.19-.18Zm-5.46-138a2.8,2.8,0,0,1-.76,1.92l-.07.07-.06.06a2,2,0,0,1-.27.23,2.9,2.9,0,0,1-1.65.54h0a3,3,0,0,1-1.2-.27,2.91,2.91,0,0,1-.79-.56,3.37,3.37,0,0,1-.43-.55,3.16,3.16,0,0,1-.29-.68,3.08,3.08,0,0,1-.1-.75h0a2.66,2.66,0,0,1,.1-.75,3.16,3.16,0,0,1,.29-.68,3.37,3.37,0,0,1,.43-.55,2.91,2.91,0,0,1,.79-.56,3,3,0,0,1,1.19-.27h0a2.86,2.86,0,0,1,1.65.55,2.22,2.22,0,0,1,.33.28,2.8,2.8,0,0,1,.83,2h0Zm1.06,32.89a2.92,2.92,0,0,1-.73,1.25h0a2.76,2.76,0,0,1-1.49.78,2.63,2.63,0,0,1-.49,0h0a2.79,2.79,0,0,1-2-.82,3.16,3.16,0,0,1-.37-.45,2.87,2.87,0,0,1-.46-1.53h0a2.87,2.87,0,0,1,.46-1.53,3.16,3.16,0,0,1,.37-.45,2.84,2.84,0,0,1,2-.83h0a2.73,2.73,0,0,1,.5.05,2.76,2.76,0,0,1,1.49.78,2.81,2.81,0,0,1,.77,1.45h-.1v1.28Z" transform="translate(-132.82 -42.64)" />
    <path class="cls-1" d="M470.94,339.23a3.46,3.46,0,0,0-2.88,1.55,3.56,3.56,0,0,0-.51,1.26h-5.74l-3.42-3.41-4.71-4.71-.19-.19H425.23l-.19.19-7.85,7.85H406.77l-.18.19L395.7,352.84l-.47.48-.19.18v18.41a4.13,4.13,0,0,0-2.23,1.14h0a4.12,4.12,0,0,0-1.2,2.89h0a4.09,4.09,0,0,0,1.2,2.88,4,4,0,0,0,2.88,1.2h0a4.08,4.08,0,0,0,4.08-4.08h0a4,4,0,0,0-1.2-2.87,4.07,4.07,0,0,0-2.27-1.16V354l11-11h10.42l.19-.18,7.85-7.86H453l5.43,5.43,2.7,2.7.19.19h6.27a3.6,3.6,0,0,0,.51,1.26,3.45,3.45,0,1,0,2.88-5.35ZM397.69,374a2.79,2.79,0,0,1,.82,2h0a2.82,2.82,0,0,1-2.8,2.81h0a2.82,2.82,0,0,1-2.8-2.81h0a2.8,2.8,0,0,1,.82-2h0a2.79,2.79,0,0,1,2-.82h0A2.8,2.8,0,0,1,397.69,374Z" transform="translate(-132.82 -42.64)" />
    <path class="cls-1" d="M480.78,166l-.18.19-8.69,8.68H459.13V161l5.76-5.77.19-.18V136.55l3-3,2.81-2.81a3.41,3.41,0,0,0,1.95.6,3.45,3.45,0,1,0-3.45-3.45,3.5,3.5,0,0,0,.59,2l-1.9,1.9L464,135.83l-.19.19v18.45l-5.41,5.41-.35.35-.19.19v15.74h14.59l.19-.19,8.68-8.68h7.46l.18-.19,4.33-4.32a3.41,3.41,0,0,0,2,.6,3.44,3.44,0,1,0-2.85-1.5L488.24,166h-7.46Z" transform="translate(-132.82 -42.64)" />
    <path class="cls-1" d="M448.82,201.15a3.45,3.45,0,0,0,2.46,3.31,3.53,3.53,0,0,0,1,.14,3.45,3.45,0,0,0,0-6.9,3.53,3.53,0,0,0-1,.14A3.45,3.45,0,0,0,448.82,201.15Z" transform="translate(-132.82 -42.64)" />
    <path class="cls-1" d="M512.24,314.35a3.46,3.46,0,0,0-1.95.6l-.75-.76-.19-.19h-.27l-3.78,0-9.87.13L485,303.75v-5.41l-.19-.19-1.59-1.59-3.12-3.12-.19-.19H470.6a3.46,3.46,0,0,0-2.54-2.7,3.41,3.41,0,0,0-.85-.11,3.45,3.45,0,0,0,0,6.9,3.47,3.47,0,0,0,3.39-2.81h8.79l3.83,3.83.51.5v5.42l.18.19,10.8,10.8.19.19h.27l12.44-.16,1.22,0,.56.57a3.46,3.46,0,1,0,2.85-1.5Z" transform="translate(-132.82 -42.64)" />
    <path class="cls-1" d="M452.9,190.89l5.49-5.49,4.53-4.53h13.94l.19-.17,3.65-3.32a4.07,4.07,0,0,0,2.51.86h0a4.08,4.08,0,0,0,4.08-4.08h0a4.1,4.1,0,0,0-4.09-4.08h0a4.1,4.1,0,0,0-2.88,1.19,4.16,4.16,0,0,0-1.2,2.89h0a4.12,4.12,0,0,0,.7,2.27l-3.46,3.15h-14l-.19.19-3.81,3.81-6.57,6.58-.19.18v7.35h1.27Zm27.51-16.74a2.82,2.82,0,0,1,2.8-2.81h0a2.83,2.83,0,0,1,2.82,2.81h0a2.82,2.82,0,0,1-2.81,2.81h0a2.79,2.79,0,0,1-1.84-.69l-.43-.48a2.74,2.74,0,0,1-.53-1.63h0Z" transform="translate(-132.82 -42.64)" />
    <path class="cls-1" d="M492,194h-.26l-.19.19-8.31,8.31-1.1,1.1-.19.19v7.49l-11.46,11.46-.18.18v19.41l-2.25,2.18-3.09,3-.2.19v10.44l-6.38,6.38-5,5h-5.63a3.46,3.46,0,1,0,0,1.27h6.16l.19-.18,4.3-4.3,7.47-7.47.19-.19V248.25l2-2,3.33-3.23.19-.19v-19.4L483,212l.18-.18v-7.5l0,0,9-9h14.07l.18-.16,3.92-3.34a3.41,3.41,0,1,0-.83-1L505.86,194Z" transform="translate(-132.82 -42.64)" />
    <path class="cls-1" d="M346.28,76.08a3.41,3.41,0,0,0,2,.6,3.45,3.45,0,1,0-3.45-3.45,3.53,3.53,0,0,0,.59,2l-2.46,2.46-.19.19V99.69l.19.19,1.61,1.61,14.76,14.76v11l-15.87,15.87-.19.19v6.26l-5.61,5.62a3.45,3.45,0,1,0,1.5,2.85,3.35,3.35,0,0,0-.61-2l5.81-5.81.19-.19v-6.25l15-15,.83-.83.19-.18V115.72l-.19-.19-.83-.83L344.77,99.93l-.77-.77V78.36Z" transform="translate(-132.82 -42.64)" />
    <path class="cls-1" d="M287.12,352.51V300.73l-.19-.19-7.26-7.26-2.7-2.7-10.45-10.46-2.58-2.57V266.61l2.58-2.58,1-1,.19-.19V257l-.19-.19-1-1-2.85-2.85-4.83-4.83-1-1V224.71l1-1,4.48-4.48v21.74l.19.18,1.75,1.76a3.41,3.41,0,0,0-.6,2,3.45,3.45,0,1,0,1.86-3.06,3.35,3.35,0,0,0-.36.21l-1.57-1.57V216.12l-1.08,1.09-4.67,4.67L256.73,224l-.19.19v23.41l.19.18,2.11,2.12L263,254l3.47,3.47v4.81l-3.59,3.59-.18.19v12l.18.19,3.67,3.66L277,292.39l2.7,2.69,6.17,6.18V352l-1.68,1.69v-51l-.19-.18-4.3-4.31-2.7-2.69L266.52,285l-7.68-7.67-.25-.26V262.9l.25-.08a4,4,0,0,0,1.58-1,4.07,4.07,0,0,0,1.2-2.89h0a4.07,4.07,0,0,0-1.2-2.87h0a4.14,4.14,0,0,0-1.58-1,4.33,4.33,0,0,0-1.31-.21h0a4.08,4.08,0,0,0-4.08,4.08h0v0h0a4.11,4.11,0,0,0,3.87,4.07v14.55l.19.19,1.34,1.34,7.68,7.68L277,297.25l2.7,2.7,3.22,3.22v53.57l1.08-1.09,3-2.95Zm-29.59-90.74h0a2.8,2.8,0,0,1-2-.83,2.75,2.75,0,0,1-.82-2h0v0h0a2.8,2.8,0,0,1,2.8-2.81h0a2.85,2.85,0,0,1,1.31.32,3.1,3.1,0,0,1,.68.51h0a2.8,2.8,0,0,1,.83,2h0a2.82,2.82,0,0,1-.83,2,3.41,3.41,0,0,1-.68.5,2.84,2.84,0,0,1-1.3.32h0Z" transform="translate(-132.82 -42.64)" />
    <path class="cls-1" d="M337.43,84.62a3.45,3.45,0,0,0,.64-6.84V75.42l9.73-9.73h13.41l.18-.19,2.17-2.16L364.94,62a4.42,4.42,0,0,0,.94.42,4.28,4.28,0,0,0,1.19.17h0A4.1,4.1,0,0,0,370,61.36a4,4,0,0,0,1.12-2.13,3.77,3.77,0,0,0,.08-.76h0v0h0a3.74,3.74,0,0,0-.08-.75A4,4,0,0,0,370,55.58a4.07,4.07,0,0,0-2.89-1.2h0a3.94,3.94,0,0,0-1.19.18,4.15,4.15,0,0,0-1.69,1h0a4.15,4.15,0,0,0-1.2,2.89h0a4.11,4.11,0,0,0,.57,2.06,4,4,0,0,0,.41.58l-.41.42-1.79,1.79-1.09,1.08H347.27l-.19.19L337,74.7l-.19.19v2.89a3.45,3.45,0,0,0,.64,6.84Zm26.83-26.16a2.84,2.84,0,0,1,.83-2h0a2.94,2.94,0,0,1,.79-.55,2.77,2.77,0,0,1,1.19-.27h0a2.83,2.83,0,0,1,2.82,2.8h0v0h0a2.82,2.82,0,0,1-2.81,2.81h0a2.8,2.8,0,0,1-1.19-.26l0,0,0,0-.43-.43L365,60.1l-.12.12a2.88,2.88,0,0,1-.62-1.74h0Z" transform="translate(-132.82 -42.64)" />
    <path class="cls-1" d="M198.94,161.78l3.52-3.52.19-.18v-2.87a3.45,3.45,0,1,0-3.71-5,3.45,3.45,0,0,0,2.43,5v2.34L198.94,160l-1.51,1.51-.19.18v15.44l.19.19,1.51,1.51,3.14,3.14.19.19h7.86l1.07,1.07,1.9,1.9,1.23,1.23,2.17,2.17,4.12,4.12.19.18h11.05l12.63,12.64v75.14l.19.19,1.87,1.87L258.84,295l7.68,7.67,5.12,5.12v33.58l-5.12,5.12L260.93,352H257.2l1.64-1.64,7.68-7.68,1.52-1.52.18-.18V306.35l-.18-.18-1.52-1.52L258.84,297l-12.29-12.29-4.36-4.36V207.69l-.19-.19-5-5-.19-.18h-3.51a3.46,3.46,0,1,0,0,1.27h3l4.61,4.62v72.63l.19.19,5.45,5.45,12.29,12.29,7.68,7.67.43.43v33.6l-.43.43-7.68,7.67-3.63,3.64-1.09,1.08h7.34l.19-.18,4.87-4.87,6.21-6.21.18-.19V307.21l-.18-.18-6.21-6.21-7.68-7.68-12.29-12.29-.78-.79V204.92l-.19-.19-13-13-.18-.18h-11l-4.84-4.83-2.17-2.18-1.23-1.23-1.9-1.9-.35-.35-.19-.19h-7.87L198.94,177l-.42-.42V162.2Z" transform="translate(-132.82 -42.64)" />
    <path class="cls-1" d="M409.29,208.79V277.7L395.7,291.29l-10.26,10.26-3.5,3.49-.18.19v32.32l.18.19,3.5,3.49,8.75,8.75.45.46.45-.46.61-.6,9.94-9.94h8l.18-.19,9-9h22.26l.19-.18,6-6,3.75-3.76H462a3.46,3.46,0,0,0,3.39,2.82,3.46,3.46,0,0,0,2.72-5.58A3.45,3.45,0,0,0,462,319H454.5l-.19.18-3,3L444.52,329H422.25l-.18.18-9,9h-8l-.18.18-9.22,9.22-1.06,1.06-9.2-9.2L383,337V305.76l2.41-2.41,10.26-10.26,14.68-14.68.19-.18V209.32l3.12-3.13a3.44,3.44,0,1,0-.9-.9l-3.31,3.31Z" transform="translate(-132.82 -42.64)" />
    <path class="cls-1" d="M448.26,181.26h-5.52l-.19.19-.21.21-2.23,2.23L437,187l-.18.19v15.26L424,215.25l-.18.18v9.73l-10.61,10.61L413,236v44.94l-7.85,7.84-1.09,1.09h7.62l.19-.19,8.3-8.3.19-.19V254l8.36-8.35,3.37,3.38v5.79a3.46,3.46,0,0,0,0,6.73v22.55L420.7,295.47H398.44l-.19.19-2.55,2.55-10.26,10.26-.45.45-.19.19v23l.19.19.45.45,2.87,2.87,1.09,1.09V312.13l6.3-6.3,4.64-4.65h24.89l.19-.18,14.69-14.69,2.23-2.23,7.29-7.29h6.9a4.22,4.22,0,0,0-1,.74h0a4.07,4.07,0,0,0-1.2,2.89h0a4.1,4.1,0,0,0,4.08,4.08h0a4.19,4.19,0,0,0,2.67-1l5.69,5.69.19.19h10.2l.19-.19,2.72-2.72H497.9l.19-.19,5.41-5.4.18-.19V273l1.43-1.43a3.44,3.44,0,1,0-.9-.9l-1.62,1.61-.18.19v7.76l-5,5H479.54l-.19.19-2.72,2.72h-9.16l-5.58-5.58a4.11,4.11,0,0,0,.59-2.11h0a4.1,4.1,0,0,0-4.09-4.08h0a4.1,4.1,0,0,0-1.61.33l.08-.07,1.54-1.54,9.67-9.68,6.93-6.93.19-.19v-19.7l3.69-3.69.18-.18v-8.61l4.17-4.16,8.75-8.75h15.81l.19-.25.95-1.21a3.48,3.48,0,1,0-1-.79l-.76,1H491.44l-.19.19-8,8L478,225.37l-.18.18v8.61l-3.69,3.69-.19.19v19.69l-5.84,5.84-9.67,9.68-2.26,2.26h-7l-.19.19-6.57,6.57-2.23,2.23L424.7,299.91H399.81l-.18.18L395.7,304l-7.39,7.39-.19.19v22.06l-2-2.05v-22L395.7,300l3.27-3.27h22.26l.18-.19,11.8-11.79.18-.19v-23a3.45,3.45,0,0,0,0-6.83v-6.28l-.18-.18-4-4-.45-.45-.46.45-9,9-.19.18v27.19l-7.93,7.93h-4l6.95-6.94.18-.18V236.48l10.61-10.6.18-.19V216l12.82-12.82.19-.18V187.7l2-2,2.23-2.23.93-.93h5.52l.18-.18,2.31-2.3,5.45-5.46.19-.19V150.83l1.47-1.47,4-4,.19-.18V131.28l5.47-5.47,9.73-9.73a3.44,3.44,0,1,0-.9-.9L468.06,124l-6.56,6.57-.19.18v13.88l-2.92,2.92-2.56,2.56-.19.19v23.58l-4.36,4.36Zm10.12,96.35h0a2.82,2.82,0,0,1,2.81,2.81h0a2.8,2.8,0,0,1-2.8,2.81h0a2.79,2.79,0,0,1-2-.82,2.84,2.84,0,0,1-.83-2h0a2.84,2.84,0,0,1,.83-2h0A2.83,2.83,0,0,1,458.38,277.61Z" transform="translate(-132.82 -42.64)" />
    <path class="cls-1" d="M139.72,260.75a3.46,3.46,0,0,0,1.95-.6l2.9,2.91.46.46v7.9l.19.19,6.3,6.3.19.19h17.9l3.23,3.22,4.47,4.48,6.84,6.83.18.18h10.59a4.09,4.09,0,0,0,4,3.36h0a4.08,4.08,0,0,0,4.08-4.08h0a4.06,4.06,0,0,0-1.19-2.87h0A4.11,4.11,0,0,0,199,288h0a4.06,4.06,0,0,0-2.87,1.19,4.12,4.12,0,0,0-1.17,2.35h-10L177.31,284l-4.47-4.48-2.51-2.5-.19-.19H152.23l-5.92-5.92V263l-.19-.19-1.55-1.54-2-2a3.46,3.46,0,1,0-2.85,1.5Zm56.41,31.33a2.84,2.84,0,0,1,.82-2,2.79,2.79,0,0,1,2-.82h0a2.79,2.79,0,0,1,2,.82h0a2.83,2.83,0,0,1,.82,2h0A2.83,2.83,0,0,1,199,294.9h0a2.82,2.82,0,0,1-2.81-2.81h0Z" transform="translate(-132.82 -42.64)" />
    <path class="cls-1" d="M251.64,341.14V306.06l-.19-.19-4.9-4.9-.4-.4-.18-.18H226.39l-9.89-9.89-2.17-2.17-1.23-1.23-1.9-1.9-10.84-10.84-.19-.19H189.89l-4.77-4.76-7.81-7.81-4.47-4.48-3.42-3.42V236.92l-.18-.18-9.7-9.69-.18-.19h-10.7a4.11,4.11,0,0,0-1.17-2.39h0a4.07,4.07,0,0,0-2.89-1.2h0a4.08,4.08,0,0,0-4.06,4.08h0a4.08,4.08,0,0,0,4.06,4.08h0a4.11,4.11,0,0,0,4-3.31h10.22l9.32,9.32v16.78l.18.18,4.51,4.51,4.47,4.47,7.81,7.81,4,4.05.19.19h10.28L211.2,287l1.9,1.9,1.23,1.24,2.17,2.17,9.17,9.17.19.18h19.57l1.12,1.12,3.81,3.81v34l-3.81,3.82h0l-6.63-6.62-.18-.19H226.46L221,332.19l-.19-.19H207.09l-7.59-7.59a3.45,3.45,0,0,0-2.86-5.37,3.51,3.51,0,0,0-1.93.58l-2.51-2.51-2.2-2.2-.19-.19h-3.25a3.44,3.44,0,0,0-1.44-2.2,3.38,3.38,0,0,0-2-.61,3.45,3.45,0,1,0,3.39,4.09h2.73l2.92,2.92,1.6,1.6a3.45,3.45,0,0,0,4.81,4.8l.33.34,7.43,7.43.19.19h13.76l5.42,5.42.19.19h13.28l6.89,6.89.45.45h0l.45-.45,4.45-4.45ZM147.33,226.86V228a2.84,2.84,0,0,1-.74,1.31,2.79,2.79,0,0,1-2,.82h0a2.82,2.82,0,0,1-2.79-2.8h0a2.83,2.83,0,0,1,2.79-2.81h0a2.82,2.82,0,0,1,2,.83h0a3,3,0,0,1,.78,1.49Z" transform="translate(-132.82 -42.64)" />
    <path class="cls-1" d="M266.52,375.68,258.84,368l-7.26-7.27V349.88l7.26-7.26,3.5-3.5.18-.18V306.12l-.18-.19-3.5-3.62-12.29-12.73-13.5-14V252.89l-.18-.19-5.08-5.08V232.94l-.17-.19L224,228.87l-.2-.2h-5.06a4.05,4.05,0,0,0-1.17-2.38,4.17,4.17,0,0,0-1.1-.79,4.09,4.09,0,0,0-1.79-.41h0l-.37,0a4.19,4.19,0,0,0-1.23.31,4.3,4.3,0,0,0-1.28.86,3.78,3.78,0,0,0-.62.81,4,4,0,0,0-.54,1.58h-2.33l-9.39-9.39-1.23-1.23-.18-.18h-9.31a3.46,3.46,0,0,0-3.1-2.8l-.3,0a3.46,3.46,0,0,0,0,6.91l.3,0a3.45,3.45,0,0,0,3.1-2.8H197l1.94,2,8.67,8.67.19.18h2.9a4,4,0,0,0,.5,1.33,3.67,3.67,0,0,0,.62.79,4.06,4.06,0,0,0,1.28.88,4.19,4.19,0,0,0,1.23.31l.37,0h0a4.2,4.2,0,0,0,1.78-.42,4.07,4.07,0,0,0,1.1-.78h0a4.09,4.09,0,0,0,1.13-2.13h4.56l3.22,3.49v14.71l.19.19,5.08,5.08v22.72l.18.19,14.59,15.1,12.29,12.72,2.41,2.49v31.78l-2.41,2.4-8.35,8.36-.19.19v11.91l.19.19,8.35,8.35,7.68,7.68,8.43,8.43v61l-7,7-.19.19V485H269V454.67l7-7,.19-.19V385.39l-.19-.18ZM217.71,229.29v0a3,3,0,0,1-1.21,2.27,3,3,0,0,1-1.78.58,2.55,2.55,0,0,1-.39,0,3,3,0,0,1-1.23-.45,3,3,0,0,1-1.36-2.38v-.14a3,3,0,0,1,1.37-2.51,2.91,2.91,0,0,1,1.23-.46l.39,0a3,3,0,0,1,3,3A.49.49,0,0,1,217.71,229.29Z" transform="translate(-132.82 -42.64)" />
    <path class="cls-1" d="M289.9,364.71h0a4.07,4.07,0,0,0,2.87-1.2h0a4,4,0,0,0,1.2-2.89h0a4.09,4.09,0,0,0-.47-1.91,4.61,4.61,0,0,0-.72-1,4.16,4.16,0,0,0-2.25-1.15V241.1l-.19-.18-.45-.46-10.24-10.23-2.7-2.7-.2-.2V180.75l-.18-.18-3.88-3.88-6.19-6.19-7.68-7.68L247.22,151.2l-.67-.67-1-1V146.9a3.52,3.52,0,0,0,1-.36,3.45,3.45,0,0,0,0-6.07,3.39,3.39,0,0,0-1.64-.42,3.46,3.46,0,0,0-.64,6.85v3.16l.19.18,2.09,2.09,1.14,1.15,11.15,11.15,7.68,7.68,5.29,5.29,3.69,3.69v46.57l.19.19,1.28,1.29,2.7,2.69,9.6,9.6v115a4,4,0,0,0-2.25,1.15h0a4,4,0,0,0-1.2,2.88h0a4.08,4.08,0,0,0,4.08,4.08Zm-2-2.1a2.8,2.8,0,0,1-.83-2h0a2.8,2.8,0,0,1,.83-2h0a2.8,2.8,0,0,1,2-.83h0a2.86,2.86,0,0,1,2,.83,2.83,2.83,0,0,1,.82,2h0a2.84,2.84,0,0,1-.82,2h0a2.83,2.83,0,0,1-2,.83h0A2.78,2.78,0,0,1,287.92,362.61Z" transform="translate(-132.82 -42.64)" />
    <path class="cls-1" d="M185.49,301.54l.19.18H210l1.19,1.19,1.9,1.9,1.23,1.23,2.17,2.18,1.92,1.91.19.19h21l3.65,3.65v15.56l1.09-1.09,2.19-2.19,1.2-1.19.18-.19V310l-.18-.19-1.2-1.2-4.31-4.31-.19-.18H221.61L216.5,299l-2.17-2.17-1.23-1.24-1.9-1.9-12.26-12.25-2.36-2.37-.19-.19h-11l-.24-.24-7.81-7.81-4.47-4.47-8.73-8.73V239.3l-.19-.19-1-1a3.39,3.39,0,0,0,.61-2,3.46,3.46,0,1,0-3.45,3.45A3.4,3.4,0,0,0,162,239l.81.81v18.34l.19.19,9.82,9.81,4.47,4.48,7.34,7.33.18.19h11l3.08,3.08L211.2,295.5l1.9,1.9,1.23,1.23,2.17,2.17,4.39,4.4.19.18h20.44l5,5,.11.11v13.82l-.11.11-2,2v-13l-.19-.19-4-4-.19-.19h-21l-2.64-2.63-2.17-2.17L213.1,303l-1.9-1.9-.47-.47-.19-.19H186.21l-1.09-1.08-7.81-7.81-4.47-4.48-1.68-1.68-.19-.19H156v8.5L150,299.78H140.7l-.19.18-2.17,2.17a3.4,3.4,0,0,0-1.94-.6,3.46,3.46,0,1,0,3.45,3.45,3.4,3.4,0,0,0-.6-1.94l2-2h9.26l.19-.18,6.44-6.45.19-.18v-7.75h13.13l2.4,2.4,4.47,4.47,7.81,7.81Z" transform="translate(-132.82 -42.64)" />
    <path class="cls-1" d="M330.52,306.71l-3.39-3.38V225.27l.1-.1,8.3-8.29.18-.19V202l-.18-.19-9.5-9.5v-11.9a4.06,4.06,0,0,0,2.25-1.15h0a4.07,4.07,0,0,0,1.2-2.89h0a4.08,4.08,0,0,0-1.19-2.88h0a4,4,0,0,0-2.88-1.2h0a4.05,4.05,0,0,0-2.5.87,2.91,2.91,0,0,0-.37.33,2.44,2.44,0,0,0-.27.29,4.06,4.06,0,0,0-.93,2.59h0a4.06,4.06,0,0,0,.93,2.59c.08.1.17.19.26.29a4.09,4.09,0,0,0,.38.33,4,4,0,0,0,1.87.82v12.43l.19.19,1,1,8.46,8.46v13.63l-7.28,7.27-1.11,1.12-.19.19v79.13l.19.18,4.54,4.55,5.79,5.78V485h1.27V313.85l-.19-.19ZM325.4,179.18h0a2.81,2.81,0,0,1-2-.82,2.7,2.7,0,0,1-.52-.73,2.78,2.78,0,0,1-.3-1.25h0a2.78,2.78,0,0,1,.3-1.25,2.7,2.7,0,0,1,.52-.73,2.84,2.84,0,0,1,2-.83h0a2.82,2.82,0,0,1,2.81,2.81h0a2.8,2.8,0,0,1-.83,2h0A2.79,2.79,0,0,1,325.4,179.18Z" transform="translate(-132.82 -42.64)" />
    <path class="cls-1" d="M340.56,302.24V256.59l5.35-5.34.18-.19v-64.6L359.54,173l4-4,1.3-1.3.19-.19V109.56l-.19-.19-1.3-1.3-1.66-1.66a4.09,4.09,0,0,0,.51-2h0a4.1,4.1,0,0,0-1.19-2.88h0a4.08,4.08,0,0,0-1.67-1,4.37,4.37,0,0,0-1.21-.19h0a4.1,4.1,0,0,0-4.07,4.09h0a4.08,4.08,0,0,0,4.08,4.08h0a4,4,0,0,0,1.21-.19,4,4,0,0,0,1.57-.91l2.45,2.45.21.21V167l-.21.22-4,4L345,185.74l-.18.18v64.61l-5.35,5.35-.19.18v46.71l.19.19,10.47,10.46V467.83l-2.75-2.74V313.74l-.19-.18-10.19-10.19V256.24l6-6,.19-.19v-67.6L358.5,167l.18-.19V147.68l-.18-.19-4.64-4.63-.45-.46-.45.45-4.22,4.22-.19.19v6.17l-12,12-.18.19v28.46l-4.54-4.53V169.15l-.18-.19-6.32-6.31v-7.52l8.53-8.53.19-.19V118l-.19-.19-5.76-5.76V85.92l-.19-.18-4-4V70.92h0a4.06,4.06,0,0,0,2.25-1.15h0a4.07,4.07,0,0,0,1.2-2.89h0A4.1,4.1,0,0,0,326.22,64h0a4.07,4.07,0,0,0-2.89-1.2h0a3,3,0,0,0-.43,0,3.44,3.44,0,0,0-.64.12,4,4,0,0,0-1.8,1,4,4,0,0,0-1.2,2.88h0a4.07,4.07,0,0,0,3,3.93,3.13,3.13,0,0,0,.44.1v11.4l.19.18h0l3.95,4v26.13l.19.19,5.76,5.76v27.34l-8.53,8.54-.19.18v8.58l.19.18,6.32,6.32v20.39l.18.18,5.81,5.81,1.09,1.09v-31l12-12,.19-.19v-6.17l3.58-3.58,4,4v18L342,181.71l-.19.18V249.5l-6,6-.18.18V303.9l.18.19,10.2,10.19V465.62l.19.19,4,4,1.09,1.09v-158l-.18-.18Zm20.58-197.8a2.83,2.83,0,0,1-.19,1l-.05,0-.1.1-.35.35-.45.45.21.21a2.81,2.81,0,0,1-.67.45,2.69,2.69,0,0,1-1.21.28h0a2.82,2.82,0,0,1-2.81-2.81h0a2.8,2.8,0,0,1,2.8-2.81h0a2.73,2.73,0,0,1,1.21.28,2.61,2.61,0,0,1,.77.54h0a2.8,2.8,0,0,1,.83,2h0ZM323.32,69.68h0a3.13,3.13,0,0,1-.44,0,2.63,2.63,0,0,1-.64-.18,2.8,2.8,0,0,1-.91-.61,2.83,2.83,0,0,1-.82-2h0a2.81,2.81,0,0,1,1.73-2.59,3.17,3.17,0,0,1,.64-.18,3,3,0,0,1,.43,0h0a2.79,2.79,0,0,1,2,.82h0a2.8,2.8,0,0,1,.83,2h0a2.8,2.8,0,0,1-.83,2h0a2.84,2.84,0,0,1-2,.83h0Z" transform="translate(-132.82 -42.64)" />
    <path class="cls-1" d="M280.49,304l-.82-.82-2.7-2.7L266.52,290l-7.68-7.68-6.42-6.41V217.5l6.42-6.42,3.1-3.09.18-.19V186.47l-.18-.19-3.1-3.09-1.2-1.2-.19-.19H230.07l-11.49-11.49-1.71-1.71v-3.27a3.45,3.45,0,0,0-.37-6.83h-.27a3.45,3.45,0,0,0-3.13,2,3.45,3.45,0,0,0,1.23,4.33,3.38,3.38,0,0,0,1.26.51v3.8l.19.19.72.72,2.51,2.51,10.34,10.34.19.18h27.38l1.92,1.93,2,2v20.27l-2,2-7.51,7.5-.18.19v59.45l.18.18,7.51,7.51,7.68,7.68L277,302.24l2.43,2.42V485h1.27V304.13Z" transform="translate(-132.82 -42.64)" />
    <path class="cls-1" d="M276.91,304.49,266.52,294.1l-7.68-7.68L249.41,277V216l9.27-9.27.16-.16,0,0V189l0,0-.16-.17-4-3.95-.18-.19h-27.8L216.5,174.47l-2.17-2.17-.05-.06a.61.61,0,0,0,.05-.12,4.07,4.07,0,0,0,.36-1.67h0a4,4,0,0,0-.36-1.66,4,4,0,0,0-.83-1.21,3.23,3.23,0,0,0-.4-.35,4,4,0,0,0-1.9-.81,3.81,3.81,0,0,0-.59,0h0a4.08,4.08,0,0,0-4.07,4.08h0a4.08,4.08,0,0,0,4.08,4.08h0a5.65,5.65,0,0,0,.59,0,4.11,4.11,0,0,0,1.9-.81,4.32,4.32,0,0,0,.39-.34l0,0,.8.81.11.1,2.06,2.07L226,185.8l.18.19H254l3.58,3.57V206l-9.27,9.27-.18.19v62l.18.19,10.52,10.52,7.68,7.68,9.3,9.3V352.4L269.23,359a4.07,4.07,0,0,0-2.71-1h0a4.1,4.1,0,0,0-4.07,4.08h0a4.08,4.08,0,0,0,4.08,4.08h0a4.11,4.11,0,0,0,2.88-1.2,4.16,4.16,0,0,0,1.2-2.89h0A4.11,4.11,0,0,0,270,360l6.87-6.86.06-.07.12-.12V304.67l-.12-.11Zm-63.49-134a2.87,2.87,0,0,1-.32,1.3,1.75,1.75,0,0,1-.18.29l-.33.33,0,0,0,0a2.69,2.69,0,0,1-1.39.76,2.88,2.88,0,0,1-.59.07h0a2.82,2.82,0,0,1-2.81-2.81h0a2.8,2.8,0,0,1,.82-2,2.83,2.83,0,0,1,2-.82h0a2.88,2.88,0,0,1,.59.06,2.84,2.84,0,0,1,1.39.76,2.63,2.63,0,0,1,.51.69,2.83,2.83,0,0,1,.32,1.29h0Zm55.91,191.6a2.8,2.8,0,0,1-.82,2,2.84,2.84,0,0,1-2,.83h0a2.83,2.83,0,0,1-2.81-2.81h0a2.8,2.8,0,0,1,.83-2,2.83,2.83,0,0,1,2-.83h0a2.78,2.78,0,0,1,1.8.66l-.09.1.45.45.36.35a2.91,2.91,0,0,1,.29,1.25h0Z" transform="translate(-132.82 -42.64)" />
    <path class="cls-1" d="M319.71,471.63a4.09,4.09,0,0,0-2.36-1.17v-67a3.45,3.45,0,0,0,0-6.79V325.88l-.18-.18-.91-.91-2.86-2.86-1.22-1.22-.29-.29-.64-.64-3.89-3.89-.36-.36v-48.9l.36-.37,3.89-3.88.64-.64.29-.29,1.22-1.22,2.86-2.86,1-1,.19-.18V224.46l-.19-.19-1-1-2.86-2.86-1.22-1.21-.29-.3-.64-.63-.86-.87V152.9l.86-.86.64-.64.29-.29,1.22-1.22,2.86-2.85,1.51-1.52a3.46,3.46,0,0,0,4.47-.49,3.61,3.61,0,0,0,.64-.95,3.49,3.49,0,0,0,.29-1.41,3.44,3.44,0,0,0-.29-1.4,3.5,3.5,0,0,0-.64-1,3.45,3.45,0,0,0-5.37,4.31l-.61.61-2.86,2.86-1.22,1.21-.29.3-.64.64-1.95,1.95-.18.18v65.55l.18.19,1.95,1.95.64.64.29.29,1.22,1.22,2.78,2.78v30.66l-2.78,2.77-1.22,1.22-.29.29-.64.64-3.89,3.89-1.45,1.45-.19.19v50l.19.19,1.45,1.45,3.89,3.89.64.64.29.29,1.22,1.22,2.68,2.67v70.28a3.42,3.42,0,0,0-2.81,3.39,3.32,3.32,0,0,0,.13,1,3.46,3.46,0,0,0,2.68,2.44v67a4.1,4.1,0,0,0-2.68,1.78,4.07,4.07,0,0,0-.67,2.24h0v0h0a4.12,4.12,0,0,0,.67,2.24,4,4,0,0,0,.52.63,4.12,4.12,0,0,0,2.34,1.17,4.93,4.93,0,0,0,.55,0h0a4,4,0,0,0,2.88-1.19,4.07,4.07,0,0,0,1.2-2.89h0A4.06,4.06,0,0,0,319.71,471.63Zm-5.29-71.53a2.35,2.35,0,0,1,1.84-2.29,2.1,2.1,0,0,1,.51-.06,2.35,2.35,0,1,1,0,4.69,2.76,2.76,0,0,1-.51-.05A2.35,2.35,0,0,1,314.42,400.1Zm5.21,74.42a2.82,2.82,0,0,1-2.81,2.81h0a3.31,3.31,0,0,1-.55-.05,2.89,2.89,0,0,1-1.44-.77,2.83,2.83,0,0,1-.82-2h0v0h0a2.81,2.81,0,0,1,.82-2,2.63,2.63,0,0,1,1.44-.71,2.91,2.91,0,0,1,2.54.71,2.79,2.79,0,0,1,.83,2h0Z" transform="translate(-132.82 -42.64)" />
    <path class="cls-1" d="M363.56,232.74l2.13-2.14.19-.18V215.93l-.19-.19-2.13-2.13L359.93,210V191l3.63-3.63,2.17-2.17.15.12a3.94,3.94,0,0,0,1.2.67,4.09,4.09,0,0,0,1.36.24h0a4.08,4.08,0,0,0,2.63-1l.25-.22a4.14,4.14,0,0,0,1.2-2.89h0a4.07,4.07,0,0,0-1.2-2.88l-.25-.23a4.08,4.08,0,0,0-2.64-1h0a4,4,0,0,0-1.35.24,3.94,3.94,0,0,0-1.2.67l-.32.29a4,4,0,0,0-1.2,2.88h0a4,4,0,0,0,.56,2l-1.36,1.36-4,4-.7.71-.19.19v20l.19.19.7.7,4,4,1,1.05v13.43l-1,1-4,4-7.89,7.9-.19.18v9.85l-5.35,5.36-.19.18v42.81l-2-2V257l5.21-5.21.19-.19v-8.48l10.26-10.27,2.69-2.69.19-.18V217l-.19-.18-2.69-2.69L356.47,211V186l3.07-3.08,4-4,2.32-2.32,1.2-1.2.27-.27,3.74-3.75,2.8-2.79,2.32-2.32.18-.19V141l-.18-.18-2.32-2.32-1.37-1.37a4,4,0,0,0,.8-2.41h0a4.1,4.1,0,0,0-4.08-4.08h0a4.12,4.12,0,0,0-2.14.62,3.73,3.73,0,0,0-.73.58h0a4.07,4.07,0,0,0-1.19,2.88h0a4.07,4.07,0,0,0,1.19,2.88,4.26,4.26,0,0,0,.74.59,4.12,4.12,0,0,0,2.15.61h0a4,4,0,0,0,1.85-.45,3.55,3.55,0,0,0,.53-.32l2.27,2.27,1.23,1.23v24l-1.23,1.23-2.8,2.8-3.51,3.51-.5.5-1.2,1.2-2.32,2.32-4,4-4.16,4.16-.19.19v26.06l.19.19,4.16,4.16,1.6,1.6v12l-1.6,1.6-11.35,11.36-.19.18v8.48l-5.21,5.21-.19.19v43.23l.19.18,3.32,3.32,1.09,1.09V258.94l5.35-5.35.19-.18v-9.85l6.8-6.81Zm2.07-50.58a2.83,2.83,0,0,1,.83-2,2.89,2.89,0,0,1,.62-.47,3,3,0,0,1,1.35-.36h0a2.82,2.82,0,0,1,2,.83,2.85,2.85,0,0,1,.82,2h0a2.8,2.8,0,0,1-2.8,2.81h0a2.91,2.91,0,0,1-1.36-.33,2.81,2.81,0,0,1-1.45-2.47h0Zm6.42-47.43a2.81,2.81,0,0,1-.64,1.78,1.8,1.8,0,0,1-.19.2v0l-.12.1a2.76,2.76,0,0,1-1.85.71h0a2.8,2.8,0,0,1-2-.83c-.05-.06-.11-.11-.16-.18a2.76,2.76,0,0,1-.66-1.8h0a2.8,2.8,0,0,1,.66-1.8l.17-.18h0a2.75,2.75,0,0,1,2-.82h0a2.76,2.76,0,0,1,1.85.7l.13.12a2.8,2.8,0,0,1,.83,2h0Z" transform="translate(-132.82 -42.64)" />
    <path class="cls-1" d="M169.94,181.39a4.09,4.09,0,0,0,2.89,1.2h0a4.06,4.06,0,0,0,2.33-.74l2.13,2.13.28.28.19.19h11.64l2.78,2.78,3.24,3.24.19.19h20.25l-1.08-1.09-.47-.46-1.23-1.23L211.2,186l-2.27-2.26-.18-.19h-6.69l-3.12-3.12-3.2-3.21V161.08l-.19-.18-3-3V147.57l.93-.93,5.43-5.43,2.52-2.53.19-.18V133a4.09,4.09,0,0,0,3.65-4.06h0v0h0a4.06,4.06,0,0,0-1.19-2.87h0a4.07,4.07,0,0,0-2.89-1.2h0a4.1,4.1,0,0,0-2.26.69,4.92,4.92,0,0,0-.61.5,4.07,4.07,0,0,0-1.2,2.89h0a4.06,4.06,0,0,0,1.19,2.87,4.38,4.38,0,0,0,.62.52,4.22,4.22,0,0,0,1.43.6v5l-1.43,1.43-3.21,3.22-3.53,3.53-.71.71-.18.18v11.42l.18.18.71.71,2.26,2.26v16.11l.19.19,4.29,4.3,2.41,2.4.18.19h6.69l3,3,1.61,1.61H196.16l-4-3.95-2.06-2.07-.18-.18H178.31l-1-1L176.1,181a4.15,4.15,0,0,0,.83-2.47h0a4.09,4.09,0,0,0-1.2-2.88h0a4.12,4.12,0,0,0-2.89-1.2h0a4.1,4.1,0,0,0-4.08,4.08h0A4.1,4.1,0,0,0,169.94,181.39Zm29.28-50.47-.28-.33a2.81,2.81,0,0,1-.54-1.65h0a2.76,2.76,0,0,1,.54-1.65,2.28,2.28,0,0,1,.29-.33,2.76,2.76,0,0,1,2-.83h0a2.82,2.82,0,0,1,2.81,2.8h0v0h0a2.84,2.84,0,0,1-.82,2,2.81,2.81,0,0,1-1.64.8h-.72A2.81,2.81,0,0,1,199.22,130.92ZM170,178.49a2.82,2.82,0,0,1,2.81-2.8h0a2.8,2.8,0,0,1,2,.82h0a2.79,2.79,0,0,1,.82,2h0a2.8,2.8,0,0,1-.82,2,2.84,2.84,0,0,1-2,.83h0a2.84,2.84,0,0,1-2-.83,2.8,2.8,0,0,1-.83-2h0Z" transform="translate(-132.82 -42.64)" />
    <path class="cls-1" d="M307.81,460.2h0a4.19,4.19,0,0,0-.45-.39,4.11,4.11,0,0,0-2.44-.81h0a3.68,3.68,0,0,0-.82.09,4.07,4.07,0,0,0-3.25,4h0a4.09,4.09,0,0,0,3.25,4l.2,0V471l-.2.21-3.59,3.58-2.68,2.68V439.12l2.68-2.69,2.85-2.85.74-.73.74-.75.18-.18V420.86l-.18-.18-.74-.74-1.5-1.5-2.09-2.09-2.68-2.68V373.44l2.4-2.41.28-.27,3.59-3.59.18-.18.19-.19V315l-.19-.18-.18-.19L300.49,311,299,309.54a3.41,3.41,0,0,0,.92-2.34,3.45,3.45,0,0,0-6.42-1.75,3.36,3.36,0,0,0-.49,1.75,3.46,3.46,0,0,0,5,3.11l2.51,2.51,2.68,2.68v50.77L300.49,369l-.36.36-3.41,3.41-.19.19V414.2l.19.18,3.77,3.78,2.18,2.18,1.06,1.05v10l-.48.47-2.76,2.77-3.77,3.77-.19.18v42l1.09-1.09,2.87-2.86,3.59-3.59,1.29-1.29.18-.19v-4.45a4,4,0,0,0,1.81-.76,3.25,3.25,0,0,0,.44-.38,4.07,4.07,0,0,0,1.2-2.89h0A4.07,4.07,0,0,0,307.81,460.2Zm-.08,2.89a2.72,2.72,0,0,1-.37,1.39,2.94,2.94,0,0,1-.45.6,2.9,2.9,0,0,1-1.36.75,3,3,0,0,1-1.27,0l-.2-.06a2.65,2.65,0,0,1-1.15-.69,2.8,2.8,0,0,1-.83-2h0a2.78,2.78,0,0,1,.83-2,2.81,2.81,0,0,1,2-.83h0a2.8,2.8,0,0,1,2,.83h0a2.94,2.94,0,0,1,.45.6,2.71,2.71,0,0,1,.37,1.38h0Z" transform="translate(-132.82 -42.64)" />
    <path class="cls-1" d="M359.54,413.8a3.37,3.37,0,0,0-1.41-.61V270.53l1.41-1.42,4-4,.47-.48.19-.18v-6.95a3.47,3.47,0,0,0,1.66-.82,3.46,3.46,0,0,0,0-5.15,3.47,3.47,0,0,0-1.66-.82V240.1l1.66-1.64,1.2-1.18.72-.71,3.29-3.24.68-.67.19-.18V217.71l1.93-1.92,4.84-4.84.24-.25.19-.18V175l6.28-6.29.45-.45.19-.18v-26.6l-.19-.19-.45-.45-6.71-6.71-.54-.54V121.4l-.18-.18-4.12-4.12-.52-.52a4,4,0,0,0,.52-1.1,4.45,4.45,0,0,0,.17-1.16h0a4.38,4.38,0,0,0-.17-1.15,4.23,4.23,0,0,0-1-1.73,4.16,4.16,0,0,0-1.77-1,4.1,4.1,0,0,0-1.12-.16h0a4.09,4.09,0,0,0-2.88,1.2h0a4.07,4.07,0,0,0-1.2,2.88h0a4.1,4.1,0,0,0,1.19,2.88h0a4.07,4.07,0,0,0,2.88,1.2h0a4.12,4.12,0,0,0,2.53-.89l.17.17,1.21,1.21,3,3v12.14l.18.19,1.63,1.62L384.8,142V167.5l-6.07,6.07-.66.66-.19.19V210l-4,4-2.8,2.8-.22.22-.18.18V232l-2.81,2.76-.8.79-1.2,1.18L363.56,239l-.43.42-.19.19V250.7a3.46,3.46,0,0,0,0,6.79v6.42l-3.4,3.39-2.5,2.51-.18.18v143.2a3.45,3.45,0,0,0,0,6.78V485h1.27V420a3.39,3.39,0,0,0,1.41-.62,3.45,3.45,0,0,0,0-5.55Zm13.24-299.48a2.76,2.76,0,0,1-.39,1.43l-.83.83,0,0a2.58,2.58,0,0,1-.51.29,2.76,2.76,0,0,1-1.11.24h0a2.78,2.78,0,0,1-2-.83,2.84,2.84,0,0,1-.83-2h0a2.82,2.82,0,0,1,2.81-2.8h0a2.77,2.77,0,0,1,1.12.23,2.73,2.73,0,0,1,.87.59,2.79,2.79,0,0,1,.82,2h0ZM361.06,254a2.49,2.49,0,0,1,2.5-2.49h0a2.5,2.5,0,0,1,2.32,1.59,2.44,2.44,0,0,1,.17.9,2.5,2.5,0,0,1-2.49,2.49h0A2.5,2.5,0,0,1,361.06,254Zm-1.52,163.59a2.35,2.35,0,1,1,0-2.27,2.3,2.3,0,0,1,0,2.27Z" transform="translate(-132.82 -42.64)" />
    <path class="cls-1" d="M367.08,295l4-4,1.52-1.52.19-.18V270.25l1.09-1.1,2.87-2.87.19-.18V220.62l1.78-1.78,5.92-5.92.18-.19V176.06l.61-.61,2.66-2.66.19-.19V133.67l-.19-.19-2.66-2.66-4.89-4.9v-9.86l-.19-.19-1.63-1.63-4.84-4.84-2.8-2.79-4-4-1.2-1.2-2.32-2.32-3.21-3.21a3.54,3.54,0,0,0,.6-2,3.46,3.46,0,1,0-1.51,2.85l.1.1,4,4,2.32,2.33,1.2,1.2,4,4,2.8,2.8,4.84,4.84.54.54v9.86l.19.19,6,6L387,134.2v37.88l-1.58,1.57-1.7,1.69-.18.19V212.2L378.73,217l-2.87,2.88-.19.18v45.48l-1.78,1.78-2.18,2.18-.19.19V288.8l-.43.42-4,4-1.2,1.2-2.32,2.32-1,1-.18.19V485h1.27V298.46l2.22-2.22Z" transform="translate(-132.82 -42.64)" />
    <path class="cls-1" d="M174.42,138.17a4.07,4.07,0,0,0,2.89,1.2h0a4,4,0,0,0,2.47-.84l.08.08,5.25,5.25,2.81,2.81v8.21l-2.81,2.81-1.53,1.53a3.54,3.54,0,0,0-2-.6,3.46,3.46,0,1,0,2.85,1.5l.63-.63,3.9-3.89.19-.19v-9.27L189,146l-3.9-3.89-4.44-4.45a4.12,4.12,0,0,0,.72-2.33h0a4.1,4.1,0,0,0-1.19-2.88h0a4.07,4.07,0,0,0-2.88-1.2h0a4.1,4.1,0,0,0-4.07,4.08h0A4.08,4.08,0,0,0,174.42,138.17Zm.08-2.9a2.83,2.83,0,0,1,.82-2,2.79,2.79,0,0,1,2-.82h0a2.8,2.8,0,0,1,2.81,2.8h0a2.81,2.81,0,0,1-.38,1.41l-.28-.29-.46.45-.45.45.32.32a2.85,2.85,0,0,1-1.56.48h0a2.82,2.82,0,0,1-2.81-2.81h0Z" transform="translate(-132.82 -42.64)" />
    <path class="cls-1" d="M160.34,168.85a3.38,3.38,0,0,0,1.78-.49l2.29,2.29V184.1l.18.19,7.41,7.4.19.19h4.9l.22.23,7.81,7.81,3.39,3.38.18.18h9.13l.18-.18.94-.94,3.81-3.8h7.37a4.15,4.15,0,0,0,1.07,1.92h0a4.06,4.06,0,0,0,1.9,1.08,3.93,3.93,0,0,0,1,.12h.25a4.07,4.07,0,0,0,2.17-.78,4.72,4.72,0,0,0,.48-.41,4.16,4.16,0,0,0,1.2-2.89h0a4.07,4.07,0,0,0-1.2-2.88h0a4.72,4.72,0,0,0-.48-.41,4.07,4.07,0,0,0-2.17-.78h-.25a4.46,4.46,0,0,0-1,.12,4.06,4.06,0,0,0-1.9,1.08h0a4.09,4.09,0,0,0-1.19,2.58h-7.79l-.19.19-3.09,3.08-1.65,1.66h-8.07l-4.1-4.1-7.32-7.32-.18-.19h-4.91l-7-7V170.12l-.19-.18-2.42-2.43a3.45,3.45,0,1,0-2.73,1.34Zm50.93,28.73a2.8,2.8,0,0,1,.83-2h0a2.93,2.93,0,0,1,1-.65,3.1,3.1,0,0,1,1-.18h0l.24,0a2.76,2.76,0,0,1,1.75.81h0a3.2,3.2,0,0,1,.42.55,2.7,2.7,0,0,1,.4,1.43h0a2.77,2.77,0,0,1-.4,1.45,3.13,3.13,0,0,1-.42.54,2.82,2.82,0,0,1-1.75.82h-.25a2.93,2.93,0,0,1-1-.17,2.85,2.85,0,0,1-1.83-2.63h0Z" transform="translate(-132.82 -42.64)" />
    <path class="cls-1" d="M142.63,217.51a3.48,3.48,0,0,0,1.94-.6h0l4.45,4.46.19.18h13.34l6.3,6.3.57.58a4.08,4.08,0,0,0-1,2.71h0a4.1,4.1,0,0,0,4.08,4.08h.37a4.12,4.12,0,0,0,2.53-1.19,4,4,0,0,0,1.2-2.88h0a4.11,4.11,0,0,0-1.2-2.88h0a4.11,4.11,0,0,0-2.53-1.18l-.36,0h0a4.19,4.19,0,0,0-2.05.56l-7.14-7.14-.19-.19H149.75L145.48,216a3.46,3.46,0,0,0-2.85-5.4,3.46,3.46,0,0,0,0,6.91Zm27,13.62a2.82,2.82,0,0,1,.67-1.81l0,0,.46-.45.14-.15a2.77,2.77,0,0,1,1.5-.44h0a2.17,2.17,0,0,1,.36,0,2.81,2.81,0,0,1,1.63.8h0a2.8,2.8,0,0,1,.83,2h0a2.84,2.84,0,0,1-2.46,2.79l-.35,0h0a2.83,2.83,0,0,1-2.81-2.81h0Z" transform="translate(-132.82 -42.64)" />
    <path class="cls-1" d="M375.1,292.28l.19-.18V272.05l3.44-3.45,2-2,.19-.19V220.69l3.29-3.28,1.19-1.2,1.28-1.28.19-.19v-36.6l4.38-4.38.18-.19V132.42l-.18-.19-1.56-1.55-4.29-4.29-2.54-2.54v-9.73l-.19-.19-4-4-4.84-4.84-2.2-2.2V90.67l2.2-2.2,4.84-4.84,6.71-6.71,4.05-4,.19-.19V66.05l2.13-1.66a3.45,3.45,0,1,0-1.17-2.59,3.36,3.36,0,0,0,.39,1.58l-2.38,1.86-.25.2v6.71l-3,3-6.71,6.71-4.84,4.84-2.8,2.8-.49.49-.19.19v13.29l.19.19.49.5,2.8,2.79,4.84,4.84,2.89,2.89v9.74l.19.18,3.63,3.63,4.19,4.19.57.57V173l-3.36,3.36-1,1-.19.18v36.6l-.19.19-1.07,1.08-4.5,4.49-.19.19v45.68l-.95,1-4.53,4.53-.19.19v20.05l-.12.12-2.8,2.79-4,4-1.18,1.18,0,0-.17.16V485H367V300.4l.1-.1,4-4,2.8-2.79Z" transform="translate(-132.82 -42.64)" />
    <polygon class="cls-1" points="167.71 321.43 167.89 321.25 167.89 320.98 167.89 282.44 167.67 282.44 166.62 282.44 166.62 282.53 166.62 320.72 160.69 326.64 158.36 328.97 158.18 329.15 158.18 329.42 157.73 435.52 157.09 435.52 155.86 435.52 155.86 329.54 157.09 328.31 160.69 324.71 164.11 321.29 164.29 321.1 164.29 320.84 164.29 282.85 163.66 282.85 163.02 282.85 163.02 320.57 160.69 322.9 157.09 326.51 154.77 328.83 154.58 329.01 154.58 329.28 154.58 436.16 154.58 436.8 155.22 436.8 157.09 436.8 158.36 436.8 158.99 436.8 159 436.17 159.45 329.69 160.69 328.44 167.67 321.47 167.71 321.43" />
    <path class="cls-1" d="M153,177.62a3.43,3.43,0,0,0,2.62-1.21l.39.22,2.12,1.23V189l.18.19,5.49,5.48.19.19h8.65l.18.18,4.47,4.47,4.74,4.74a4.06,4.06,0,0,0-1,2.68h0a4.08,4.08,0,0,0,4.08,4.08h0a4.1,4.1,0,0,0,4.08-4.09h0a4.08,4.08,0,0,0-4.08-4.08h0a4.12,4.12,0,0,0-2.07.58l-5.73-5.72-3.93-3.94-.19-.19h-8.66l-5.11-5.11v-11.3l-.32-.18-2.82-1.63a3.33,3.33,0,0,0,.19-1.14,3.45,3.45,0,1,0-3.45,3.45Zm29.29,29.26a2.81,2.81,0,0,1,.64-1.78h0l.43-.43a2.72,2.72,0,0,1,1.72-.6h0a2.82,2.82,0,0,1,2.81,2.8h0a2.83,2.83,0,0,1-2.81,2.82h0a2.82,2.82,0,0,1-2.81-2.81h0Z" transform="translate(-132.82 -42.64)" />
  </g>
</svg>