<?xml version="1.0" encoding="UTF-8" standalone="no"?>
<svg
   xmlns:dc="http://purl.org/dc/elements/1.1/"
   xmlns:cc="http://creativecommons.org/ns#"
   xmlns:rdf="http://www.w3.org/1999/02/22-rdf-syntax-ns#"
   xmlns:svg="http://www.w3.org/2000/svg"
   xmlns="http://www.w3.org/2000/svg"
   xmlns:sodipodi="http://sodipodi.sourceforge.net/DTD/sodipodi-0.dtd"
   xmlns:inkscape="http://www.inkscape.org/namespaces/inkscape"
   version="1.1"
   id="svg2"
   xml:space="preserve"
   width="271.89334"
   height="210.56"
   viewBox="0 0 271.89334 210.56"
   sodipodi:docname="WIE_logo_purple_RGB.eps"><metadata
     id="metadata8"><rdf:RDF><cc:Work
         rdf:about=""><dc:format>image/svg+xml</dc:format><dc:type
           rdf:resource="http://purl.org/dc/dcmitype/StillImage" /></cc:Work></rdf:RDF></metadata><defs
     id="defs6" /><sodipodi:namedview
     pagecolor="#ffffff"
     bordercolor="#666666"
     borderopacity="1"
     objecttolerance="10"
     gridtolerance="10"
     guidetolerance="10"
     inkscape:pageopacity="0"
     inkscape:pageshadow="2"
     inkscape:window-width="640"
     inkscape:window-height="480"
     id="namedview4" /><g
     id="g10"
     inkscape:groupmode="layer"
     inkscape:label="ink_ext_XXXXXX"
     transform="matrix(1.3333333,0,0,-1.3333333,0,210.56)"><g
       id="g12"
       transform="scale(0.1)"><path
         d="M 1570.23,434.84 V 138.699 c 0,-75.2185 0,-80.0076 54.42,-86.4373 V 29.0898 h -179.28 v 23.9883 c 54.44,6.3907 54.44,12.0039 54.44,86.4339 v 171.297 c -2.41,42.402 7.73,38.39 -44.84,21.66"
         style="fill:#6c258c;fill-opacity:1;fill-rule:nonzero;stroke:none"
         id="path14" /><path
         d="m 1935.17,279.59 c 4.8,55.199 -19.2,123.25 -88.84,123.25 -68.02,0 -96.06,-68.852 -97.65,-123.25 z M 1744.7,249.16 c 0,-78.449 23.2,-194.4686 123.25,-194.4686 53.6,0 100.02,29.5977 131.23,72.8206 l 13.61,-12.793 c -33.59,-55.2502 -89.63,-94.4377 -155.25,-94.4377 -112.05,0 -193.68,91.2307 -193.68,200.8787 0,102.442 71.24,208.07 183.27,208.07 100.05,0 168.87,-85.64 168.87,-180.07 h -271.3"
         style="fill:#6c258c;fill-opacity:1;fill-rule:nonzero;stroke:none"
         id="path16" /><path
         d="m 1565.51,792.547 c 15.44,41.941 0,68.433 -28.69,68.433 -33.14,0 -66.23,-48.558 -79.49,-79.464 -24.27,-50.782 -46.35,-123.649 -59.58,-172.215 41.92,39.746 139.07,110.398 167.76,183.246 z M 578.668,812.422 C 483.746,737.367 413.102,622.535 402.066,532.02 393.23,456.98 417.5,395.16 496.988,390.75 c 83.875,-4.422 172.196,68.441 233.996,134.66 48.567,52.981 92.707,132.457 97.129,178.84 2.219,22.07 0,39.734 -11.035,57.395 -4.41,8.824 -8.836,11.039 -6.648,15.453 2.238,4.418 11.074,0 17.683,-6.629 6.645,-6.614 28.692,-33.102 24.278,-83.879 C 850.195,626.961 810.43,556.32 761.895,501.129 704.488,439.309 591.918,364.262 492.582,370.879 393.23,377.5 344.664,441.52 355.691,536.441 c 11.032,88.309 86.102,203.122 203.122,291.434 105.949,79.461 238.421,134.656 353.207,134.656 125.87,0 267.18,-48.566 245.08,-231.797 C 1143.86,596.047 907.598,300.23 761.895,154.539 v -2.211 c 70.656,48.582 143.488,103.762 251.655,183.242 92.78,66.211 203.18,147.891 273.79,203.078 26.51,75.063 57.42,154.559 97.16,218.579 52.97,83.894 110.36,125.832 156.73,125.832 39.72,0 68.43,-35.321 50.77,-88.305 C 1563.31,704.25 1450.73,626.961 1391.11,569.559 1357.99,432.699 1316.03,247.25 1245.43,152.328 v -2.219 c 75.03,72.86 264.87,231.801 397.34,351.02 211.94,192.078 289.2,335.566 302.45,412.836 4.43,30.906 2.2,59.613 -13.25,75.062 -15.44,13.243 -30.93,8.828 -28.7,15.453 2.2,4.41 15.46,6.62 22.06,6.62 64.04,0 94.93,-50.78 90.51,-108.166 C 2004.82,812.422 1909.87,673.332 1664.85,472.43 1490.44,328.941 1318.26,185.441 1174.78,48.5703 c -13.27,-13.2422 -35.34,-33.1094 -61.81,-33.1094 -22.09,0 -22.09,19.8672 -8.84,37.5274 75.07,101.5507 121.41,320.1017 172.18,445.9337 v 2.207 C 1234.36,465.809 1099.72,364.262 991.473,284.781 898.77,218.559 702.301,75.0508 620.613,22.082 607.367,13.2383 589.691,0 574.246,0 547.75,0 541.133,17.6602 560.996,41.9414 644.906,130.25 744.246,240.629 841.379,377.5 c 97.117,136.879 183.271,284.793 200.921,397.387 17.69,114.793 -44.187,167.777 -134.702,167.777 -110.364,0 -236.227,-59.605 -328.93,-130.242"
         style="fill:#6c258c;fill-opacity:1;fill-rule:nonzero;stroke:none"
         id="path18" /><path
         d="m 1566.18,488.539 c 0,-21.918 -17.8,-39.719 -39.73,-39.719 -21.96,0 -39.76,17.801 -39.76,39.719 0,22 17.8,39.77 39.76,39.77 21.93,0 39.73,-17.77 39.73,-39.77"
         style="fill:#6c258c;fill-opacity:1;fill-rule:nonzero;stroke:none"
         id="path20" /><path
         d="m 9.91797,230.891 c 3.72263,-21.391 5.72653,-23.403 10.80083,-23.75 4.8242,-0.59 14.9218,-0.571 45.8398,1.73 l 52.8434,3.938 c 15.852,1.179 29.032,2.632 37.961,4.019 6.571,0.973 7.481,2.973 8.008,6.621 0.356,2.422 0.563,10.391 0.934,12.571 0.398,1.718 0.59,2.691 1.379,2.761 1.851,0.141 6.711,-0.953 7.539,-1.359 0.918,-19.434 1.379,-29.262 2.304,-38.094 0.782,-10.527 2.489,-22.68 2.805,-23.367 0.106,-1.441 -0.855,-2.723 -1.906,-3.031 -2.582,-0.93 -4.918,-1.571 -6.524,-1.45 -1.8,16.95 -3.515,22.122 -10.714,22.551 -4.25,-0.09 -13.583,0.418 -43.176,-1.781 l -63.1604,-4.691 c -34.6094,-2.59 -37.2305,-3.028 -38.4766,-11.297 -0.0703,-2.641 -0.332,-6.282 -0.0977,-13 0.0743,-0.953 -0.6835,-1.492 -1.4765,-1.551 -0.793,-0.063 -1.8711,0.098 -4.0508,0.898 -1.91797,0.832 -2.46484,1.02 -2.78125,1.719 -0.41016,1.902 -0.51953,3.32 -0.73828,6.203 -0.20313,2.86 -0.54688,11.028 -1.46875,23.469 -1.19531,12.422 -2.67188,28.66 -2.85156,31.059 -0.23438,3.121 0.01562,3.371 0.78906,3.671 l 6.21875,2.161"
         style="fill:#6c258c;fill-opacity:1;fill-rule:nonzero;stroke:none"
         id="path22" /><path
         d="m 81.6367,316.27 c 0.1641,10.8 0.0235,18.96 -0.4219,24.96 -0.8359,14.411 -1.8789,15.629 -17.457,18.989 -0.7812,0.972 -1.2226,6.5 -0.9453,7.703 7.6797,-0.602 19.8438,-2.223 28.0508,-2.371 9.0156,0.121 16.4417,0.73 24.1327,1.32 0.508,-1.922 0.746,-3.84 0.719,-5.519 0.242,-1.211 -0.555,-1.68 -1.629,-2.133 -2.918,-0.918 -7.188,-2.047 -10.371,-2.731 -7.1759,-1.328 -9.6056,-4.179 -10.547,-13.75 -0.6055,-5.289 -0.7305,-13.199 -0.918,-25.437 -0.1797,-11.981 0.043,-14.391 0.293,-15.832 0.2461,-0.957 0.5,-1.688 1.5468,-2.43 1.5782,-0.73 10.8362,-2.309 32.5552,-2.648 19.339,-0.289 26.5,-0.422 30.765,1.929 5.094,3.282 6.539,11.649 6.844,31.34 0.43,28.07 -2.281,41.52 -30.25,49.399 -0.25,0.961 0.047,3.363 0.351,5.761 0.543,0.711 0.809,0.711 2.129,0.692 12.184,-0.672 29.082,-4.762 36.715,-8.024 1.571,-1.199 2.094,-1.929 2.074,-3.129 -0.023,-1.679 -0.054,-3.359 -0.445,-11.269 -0.375,-7.199 -0.894,-24 -1.191,-43.899 -0.293,-19.203 0.468,-38.16 0.972,-57.371 -0.273,-0.468 -5.832,-0.64 -7.953,-0.351 -0.527,0 -1.051,0.73 -1.051,0.961 -1.949,11.07 -3.785,12.07 -7.757,12.359 -3.961,0.539 -20.899,2.012 -47.922,2.422 l -45.8362,0.699 c -35.2343,0.539 -46.914,-0.73 -48.5156,-0.941 -1.5859,-0.219 -2.914,-0.68 -3.4883,-3.059 -1.0898,-2.398 -1.9531,-6.941 -3.63277,-12.672 -0.26563,-0.226 -0.26563,-0.226 -1.0625,-0.226 l -6.08594,0.566 C 0.242188,261.602 -0.0195313,261.59 0,262.809 l 0.132813,8.39 c 0.105468,7.442 0.773437,16.551 1.261717,31.18 l 0.36328,23.269 c 0.21875,14.641 -0.839841,32.18 -0.921872,44.172 0.046875,3.121 0.593752,4.551 1.414062,5.731 1.62109,2.14 1.62109,2.14 6.37109,1.097 11.62891,-2.089 26.99221,-2.558 33.88671,-2.668 -0.1015,-6.242 -0.9023,-7.179 -2.5,-7.402 -19.1328,-3.066 -28.6953,-4.59 -28.9765,-23.316 l -0.25,-16.551 c -0.2188,-14.16 0.1835,-22.07 0.9414,-24.723 1.0195,-3.148 3.6562,-3.656 9.7461,-3.758 18.5468,-0.289 37.0937,-0.32 55.6445,-0.359 2.3867,-0.031 4.2695,1.367 4.289,3.059 l 0.2344,15.34"
         style="fill:#6c258c;fill-opacity:1;fill-rule:nonzero;stroke:none"
         id="path24" /><path
         d="m 91.9102,467.328 c 1.375,10.711 2.1601,18.844 2.4101,24.863 0.7852,14.399 -0.1055,15.719 -15.2148,20.84 -0.6641,1.039 -0.4844,6.578 -0.0664,7.739 7.5586,-1.469 19.4726,-4.45 27.6059,-5.5 8.968,-0.918 16.421,-1.161 24.136,-1.43 0.274,-1.969 0.293,-3.899 0.074,-5.578 0.118,-1.211 -0.738,-1.59 -1.851,-1.942 -3.012,-0.558 -7.363,-1.218 -10.617,-1.531 -7.278,-0.5 -10.008,-3.051 -12.035,-12.469 -1.196,-5.16 -2.207,-13.019 -3.774,-25.16 -1.543,-11.898 -1.582,-14.308 -1.504,-15.762 0.133,-0.988 0.309,-1.75 1.266,-2.597 1.492,-0.91 10.496,-3.531 32.043,-6.313 19.18,-2.476 26.285,-3.386 30.789,-1.558 5.43,2.711 7.816,10.851 10.336,30.371 3.594,27.828 2.426,41.539 -24.473,52.508 -0.14,0.98 0.426,3.332 1,5.679 0.617,0.641 0.879,0.602 2.192,0.442 12.027,-2.051 28.363,-8.02 35.574,-12.102 1.426,-1.379 1.855,-2.18 1.699,-3.348 -0.211,-1.671 -0.422,-3.351 -1.703,-11.171 -1.184,-7.11 -3.598,-23.727 -6.149,-43.457 -2.46,-19.051 -3.828,-37.981 -5.503,-57.122 -0.329,-0.449 -5.875,0.02 -7.946,0.551 -0.531,0.051 -0.961,0.84 -0.926,1.078 -0.695,11.211 -2.41,12.403 -6.32,13.153 -3.887,0.976 -20.543,4.34 -47.348,7.797 l -45.4605,5.871 c -34.9492,4.519 -46.6992,4.59 -48.3047,4.558 -1.6054,-0.047 -2.9882,-0.34 -3.8085,-2.668 -1.3672,-2.23 -2.7422,-6.648 -5.0547,-12.16 -0.293,-0.191 -0.293,-0.191 -1.0782,-0.09 l -5.98434,1.239 c -1.05468,0.14 -1.3164,0.179 -1.16015,1.371 l 1.08203,8.32 c 0.94531,7.379 2.63672,16.352 4.77736,30.852 l 2.9805,23.078 c 1.875,14.519 2.8007,32.058 4.082,43.968 0.3945,3.102 1.1094,4.461 2.0508,5.543 1.8437,1.95 1.8437,1.95 6.4609,0.387 11.3164,-3.406 26.5273,-5.617 33.3516,-6.488 -0.793,-6.192 -1.7071,-7.039 -3.3086,-7.059 -19.3594,-0.883 -29.0352,-1.34 -31.4297,-19.922 L 22.6836,485.711 C 20.8633,471.672 20.375,463.75 20.8281,461.02 c 0.6602,-3.211 3.2188,-4.032 9.2578,-4.809 18.3946,-2.383 36.8243,-4.52 55.2618,-6.66 2.3515,-0.301 4.375,0.879 4.5937,2.539 l 1.9688,15.238"
         style="fill:#6c258c;fill-opacity:1;fill-rule:nonzero;stroke:none"
         id="path26" /><path
         d="m 119.332,616.273 c 2.606,10.485 4.32,18.461 5.254,24.415 2.445,14.226 1.699,15.644 -12.711,22.441 -0.543,1.129 0.277,6.605 0.824,7.715 7.34,-2.321 18.824,-6.664 26.793,-8.649 8.797,-1.937 16.172,-3.027 23.805,-4.187 0.051,-1.985 -0.164,-3.922 -0.567,-5.547 -0.027,-1.227 -0.925,-1.5 -2.062,-1.707 -3.055,-0.231 -7.461,-0.375 -10.723,-0.301 -7.289,0.32 -10.3,-1.894 -13.382,-11.015 -1.793,-4.993 -3.704,-12.68 -6.657,-24.555 -2.89,-11.649 -3.218,-14.031 -3.304,-15.488 0.031,-0.997 0.113,-1.758 0.961,-2.715 1.367,-1.082 10.019,-4.731 31.109,-9.969 18.769,-4.668 25.707,-6.395 30.398,-5.086 5.7,2.055 9.012,9.879 13.758,28.965 6.777,27.246 7.199,40.988 -18.262,54.984 -0.027,0.996 0.805,3.258 1.645,5.524 0.687,0.574 0.945,0.507 2.234,0.187 11.707,-3.41 27.239,-11.222 33.942,-16.105 1.25,-1.555 1.593,-2.375 1.304,-3.539 -0.406,-1.621 -0.808,-3.258 -2.984,-10.879 -1.996,-6.926 -6.305,-23.157 -11.109,-42.489 -4.633,-18.621 -8.176,-37.293 -12.039,-56.101 -0.375,-0.402 -5.84,0.68 -7.832,1.449 -0.516,0.117 -0.856,0.938 -0.801,1.18 0.613,11.219 -0.961,12.609 -4.762,13.789 -3.734,1.422 -19.902,6.691 -46.129,13.23 l -44.4842,11.063 c -34.1992,8.504 -45.8594,9.93 -47.457,10.062 -1.5977,0.164 -3.004,0.016 -4.0977,-2.175 -1.6016,-2.075 -3.4766,-6.321 -6.4102,-11.504 -0.3125,-0.188 -0.3125,-0.188 -1.0859,0.007 l -5.8008,1.946 c -1.0273,0.254 -1.289,0.324 -0.9961,1.48 l 2.0313,8.149 c 1.789,7.226 4.5117,15.937 8.3008,30.074 l 5.6171,22.582 c 3.5313,14.211 6.4727,31.527 9.1172,43.23 0.7461,3.024 1.6094,4.293 2.668,5.278 2.0625,1.707 2.0625,1.707 6.4609,-0.371 10.8516,-4.684 25.7071,-8.629 32.3946,-10.293 -1.5117,-6.051 -2.5078,-6.789 -4.1133,-6.645 -19.332,1.36 -28.9805,2.024 -33.5,-16.137 l -4,-16.062 c -3.418,-13.746 -4.8203,-21.543 -4.6758,-24.309 0.2734,-3.273 2.7344,-4.379 8.6406,-5.851 18.0039,-4.477 36.0547,-8.727 54.1095,-12.965 2.32,-0.582 4.469,0.363 4.875,2 l 3.703,14.894"
         style="fill:#6c258c;fill-opacity:1;fill-rule:nonzero;stroke:none"
         id="path28" /><path
         d="m 235.969,792.543 c -21.61,2.246 -58.879,6.793 -115.457,11.648 -18.426,1.504 -19.828,1.649 -26.3714,-8.777 -0.8633,-1.172 -1.2109,-1.273 -2.164,-0.805 -0.4766,0.227 -2.8399,3.243 -3.4766,4.36 -0.6406,1.113 -0.6914,2.207 0.043,3.711 2,4.101 7.0898,13.363 9.3047,17.89 3.6643,7.551 6.8633,15.328 10.6523,23.09 0.523,1.082 4.273,0.324 6.895,-0.945 0.957,-0.473 1.57,-1.024 1.277,-2.231 -3.246,-9.089 -4.008,-12.461 -0.695,-13.535 1.773,-0.59 5.769,-1.476 9.628,-2.008 40.688,-5.402 96.817,-10.578 119.415,-11.984 1.402,-0.144 2.617,1.129 1.628,2.133 -12.433,13.801 -49.453,51.574 -63.527,65.644 -1.719,1.891 -3.605,2.282 -5.82,2.559 -14.278,2.145 -23.742,3.285 -29.59,4 -6.426,0.719 -7.766,-0.219 -12.832,-10.039 -0.324,-0.637 -1.461,-1.16 -2.164,-0.805 -4.692,3.078 -5.735,5.184 -5,6.684 2.527,5.191 6.68,12.515 10.566,20.492 5.254,10.781 7.578,17.391 9.157,20.633 1.453,1.148 8.406,-0.906 8.25,-2.43 -4.137,-12.125 -4.051,-13.762 3.324,-14.965 29.406,-4.976 89.922,-12.011 125.164,-15.308 1.168,-0.024 1.347,0.965 0.234,2.3 -16.578,17.403 -71.914,75.04 -90.383,88.571 -4.449,2.969 -6.582,1.609 -8.082,-0.863 -2.05,-3.008 -4.05,-7.102 -5.988,-9.895 -0.453,-0.32 -1.043,-0.305 -2.121,0.492 -4.32,2.637 -5.781,3.887 -4.926,5.606 1.039,2.144 8.059,14.757 10.582,19.937 3.363,6.887 6.348,14.247 7.188,15.967 1.258,2.59 2.265,3.44 3.797,2.96 l 5.562,-1.9 c 0.473,-0.24 0.742,-0.9 0.531,-1.33 -5.703,-11.11 -4.246,-12.35 15.59,-34.545 11.731,-13.457 51.582,-54.472 82.098,-85.601 3.441,-3.813 10.902,-13.324 17.394,-19.945 1.36,-1.473 1.575,-3.438 0.946,-4.739 -1.262,-2.586 -3.453,-2.855 -7.313,-2.316 -4.922,0.809 -11.719,1.976 -24.699,3.769 -15.106,2.286 -54.285,7.743 -86.371,10.825 16.598,-17.957 35.062,-38.149 59.344,-63.321 6.129,-6.179 14.273,-15.488 20.632,-21.793 0.981,-1.004 1.25,-1.668 1.172,-2.425 0.188,-1.438 -0.304,-3.063 -1.047,-4.563 -0.523,-1.082 -1.66,-1.598 -3.769,-1.101 -4.102,0.664 -16.981,2.668 -38.578,4.898"
         style="fill:#6c258c;fill-opacity:1;fill-rule:nonzero;stroke:none"
         id="path30" /><path
         d="m 280.945,1002.8 c -2.234,-3.417 -3.097,-8.581 -1.621,-13.577 2.43,-9.348 10.059,-17.52 24.453,-26.969 14.184,-9.309 27.125,-10.336 35.696,-9.359 12.679,1.449 19.277,7.156 22.562,12.175 1.719,2.598 3.633,7.942 2.473,12.442 -1.758,7.468 -6.969,16.906 -20.477,25.778 -13.519,8.87 -30.058,14.57 -44.008,11.67 -6.488,-1.19 -14.601,-5.34 -18.949,-11.95 z m -2.484,14.55 c 9.215,14.04 38.977,27.51 69.32,7.58 22.594,-14.82 25.907,-35.371 25.84,-39.332 0.184,-12.762 -2.25,-24.653 -7.902,-33.282 -4.879,-7.41 -19.883,-19.668 -36.184,-19.871 -12.586,-0.336 -26.133,5.102 -33.89,10.192 -9.079,5.961 -17.598,16.144 -21.305,25.468 -3.125,7.797 -4.039,14.129 -3.805,21.739 0.485,9.426 3.84,21.286 7.789,27.306 l 0.137,0.2"
         style="fill:#6c258c;fill-opacity:1;fill-rule:nonzero;stroke:none"
         id="path32" /><path
         d="m 469.383,1091.39 c -16.235,-18.62 -23.172,-26.59 -28.485,-34.69 -0.476,-0.54 -0.476,-0.54 -1.07,-0.01 -0.398,0.34 -2.797,2.44 -3.64,3.49 -0.395,0.34 -1.043,1.22 -0.926,1.77 3.961,8.95 3.785,10.39 1.148,12.99 -4.762,5.44 -15.066,15.38 -35.234,32.96 -8.383,7.33 -11.649,9.23 -16.024,9.85 -4.851,0.07 -11.23,-1.99 -16.285,-7.77 -3.625,-4.17 -6.429,-12.22 -7.156,-22.73 -0.109,-2.13 0.457,-3.9 2.102,-5.66 3.632,-3.48 15.464,-14.12 24.835,-22.3 22.168,-19.33 23.286,-19.67 31.219,-12.57 1.309,1.08 1.86,0.91 2.461,0.39 0.606,-0.52 4.477,-4.54 4.32,-4.73 -1.418,-1.61 -10.214,-12.09 -13.207,-15.53 -3.464,-3.98 -9.769,-12.82 -11.57,-15.69 -0.68,-0.37 -4.234,2.41 -6.266,4.5 0.704,1.62 2.032,5.55 2.372,7.16 0.664,1.97 0.339,3.22 -1.7,5.31 -2.082,2.45 -7.797,8.39 -23.773,22.33 -14.77,12.88 -19.477,16.35 -22.031,18.26 -3.508,2.42 -4.184,2.06 -8.137,-0.86 -2.77,-2.36 -3.84,-2.4 -4.758,-2.21 -0.707,-0.03 -4.137,1.7 -4.223,2.4 0.618,16.02 1.317,25.28 1.965,28.85 0.262,2.31 0.535,3.03 1.637,4.3 0.949,1.09 1.816,1.28 3.219,0.06 l 14.621,-13.07 c 0.984,6.78 2,22.45 4.168,31.38 0.742,2.86 2.187,5.73 3.922,7.72 8.515,9.77 19.043,10.14 31.644,8.06 2.489,15.35 3.356,21.6 5.465,28.03 1.274,4.3 3.074,8.78 6.703,12.94 2.68,3.07 8.539,6.56 14.571,7.02 5.515,0.29 12.703,0.08 31.351,-15.23 10.348,-8.71 19.731,-16.9 27.914,-24.04 7.59,-6.62 10.141,-8.53 11.613,-8.86 2.946,-0.66 5.594,1.18 13.614,7.55 0.472,0.55 1.195,0.56 1.98,-0.13 0.809,-0.72 4.211,-5.26 3.731,-5.81 l -10.715,-12.3 c -6.153,-7.05 -10.442,-13.17 -13.512,-17.5 -0.473,-0.55 -0.98,-0.74 -1.547,-0.56 -0.754,0.34 -3.472,2.06 -4.269,2.77 -0.395,0.35 -0.797,0.7 -0.528,1.41 0.938,2.68 1.434,6.07 -0.652,8.53 -6.875,8.22 -21.258,20.76 -25.652,24.59 -16.77,14.63 -24.493,17.87 -30.297,18.48 -6.043,1.14 -10.395,-1.44 -15.602,-7.4 -4.414,-5.08 -6.898,-12.77 -8.133,-20.61 -0.253,-2.32 0.188,-3.02 2.383,-4.94 11.422,-10.28 38.141,-33.27 46.153,-38.99 3.308,-2.25 3.824,-2.07 13.117,5.76 0.465,0.54 1.383,0.38 2.379,-0.49 l 4.785,-4.18"
         style="fill:#6c258c;fill-opacity:1;fill-rule:nonzero;stroke:none"
         id="path34" /><path
         d="m 515.898,1240.68 c -4.89,5.58 -19.785,8.73 -27.359,2.1 -1.078,-0.95 -2.367,-3.12 -2.762,-5.95 -1.746,-8.56 3.914,-21.22 11.61,-29.27 6.211,9.65 13.117,18.52 19.312,27.82 0.918,1.52 1.297,2.9 -0.629,5.1 z m -27.668,15.21 c 5.594,4.9 15.051,6.84 21.258,5.94 6.039,-0.71 12.235,-2.68 18.742,-6.83 1.278,1.82 3.825,5.82 5.075,5.5 0.883,0.07 1.418,-0.52 1.933,-1.48 1.028,-2.27 2.903,-6.97 1.641,-8.79 -9.488,-13.94 -28.41,-39.31 -33.902,-48.7 -0.727,-1 -0.227,-2.3 1.875,-4.69 17.828,-19.25 34.543,-19.06 46.457,-8.62 8.308,7.26 12.027,17.21 12.933,28.57 0.199,1.6 2.375,3.48 2.711,2.73 4.016,-4.94 4.871,-6.64 4.84,-8.79 -1.492,-13.98 -6.48,-25.39 -10.859,-32.75 -1.653,-2.87 -3.829,-5.12 -5.821,-6.87 -12.625,-11.06 -28.086,-9.79 -32.703,-8.9 -5.847,0.86 -18.762,5.04 -30.113,17.99 -15.363,17.56 -17.848,38.97 -14.734,55.08 1.367,7.54 5.433,16.01 10.48,20.44 l 0.187,0.17"
         style="fill:#6c258c;fill-opacity:1;fill-rule:nonzero;stroke:none"
         id="path36" /><path
         d="m 592.133,1214.04 c 4.426,6.64 5.719,9.82 2.211,16.09 -3.574,7.21 -12.137,20.29 -19.578,30.94 -5.926,8.46 -11.778,16 -14.707,19.77 -1.52,2.16 -2.922,2.48 -13.637,-1.44 -1.535,0.53 -1.637,-0.18 -3.274,3.85 -0.453,0.64 -0.16,1.5 0.704,2.76 5.281,10.46 10.285,21.73 10.664,23.29 0.281,0.84 0.922,1.61 1.714,2.15 0.973,0.7 2.407,0.73 3.012,-0.13 2.785,-3.56 5.863,-7.55 8.453,-11.25 0.746,-1.08 1.559,-1.82 2.344,-1.27 4.848,11.49 6.992,15.56 10.473,21.87 1.926,3.94 5.343,8.28 8.886,10.75 5.7,3.98 10.696,5.21 16.711,4.56 8.153,-0.75 16.375,-6.64 23.68,-15.44 3.59,-4.29 7.227,-9.49 13.766,-18.83 11.074,-15.85 17.793,-25.06 21.304,-30.05 1.356,-1.95 1.692,-2.03 2.286,-1.63 1.773,1.25 7.027,5.88 9.824,8.16 0.586,0.42 1.586,-0.18 2.504,-1.48 0.902,-1.3 2.445,-4.76 2.84,-5.76 0.382,-1.37 -0.016,-1.63 -0.801,-2.19 -17.504,-12.22 -22.797,-17.22 -30.262,-22.45 -1.191,-0.83 -2.168,-1.51 -2.965,-0.79 l -4.027,3.67 c 4.183,6.15 5.125,9.4 1.676,16.03 -3.582,7.2 -8.996,15.37 -19.778,30.8 -8.347,11.94 -12.801,17.89 -21.117,20.14 -5.726,1.5 -11.262,0.21 -16.969,-3.77 -4.726,-3.3 -10.074,-11.57 -12.422,-17.42 -0.71,-2.77 0.004,-4.2 1.481,-6.72 4.918,-7.89 26.641,-38.93 34.836,-50.65 1.969,-2.83 2.664,-2.99 14.098,2.43 1.343,0.6 1.835,0.31 2.253,-0.69 l 2.153,-5.62 -16.711,-11.68 c -7.863,-5.5 -13.391,-10.99 -17.328,-13.73 -0.395,-0.28 -0.899,0.01 -1.504,0.88 l -2.793,4.85"
         style="fill:#6c258c;fill-opacity:1;fill-rule:nonzero;stroke:none"
         id="path38" /><path
         d="m 716.285,1383.83 c -0.812,1.08 -2.441,1.14 -13.476,-2.01 -0.977,-0.18 -1.43,0.19 -1.383,1.69 -0.629,5.02 -0.649,5.6 0.297,6.38 6.828,7.27 12.57,14.57 20.226,22.84 0.313,0.45 0.531,0.56 0.961,0.77 0.434,0.22 0.66,-0.25 1.383,-1.67 7.199,-16.55 22.832,-50.51 29.004,-62.83 6.035,-12.07 8.164,-16.35 9.805,-19.08 2.089,-3.1 3.222,-4.31 5.246,-3 6.418,3.8 8.136,4.65 8.781,4.97 0.644,0.32 2.644,-0.45 2.793,-1.27 l 2.43,-6.48 c 0.5,-1.53 0.07,-1.75 -1.004,-2.28 -6.219,-3.11 -12.469,-5.64 -19.336,-9.08 -9.449,-4.71 -17.324,-10.44 -17.965,-10.74 -1.074,-0.55 -1.629,-0.52 -2.309,0.32 -1.265,1.43 -2.445,3.8 -3.16,5.23 -0.465,0.94 -0.156,1.41 0.5,1.71 7.235,4.82 8.602,6.39 6.574,13.66 -1.257,4.13 -8.261,21.36 -16.144,36.07 z m -24.051,79.21 c 5.582,2.8 11.836,-0.59 14.68,-6.29 4.027,-8.05 1.25,-15.36 -4.32,-18.15 -5.156,-2.58 -11.696,-0.23 -14.899,6.17 -4.148,8.3 -0.394,15.82 4.325,18.17 l 0.214,0.1"
         style="fill:#6c258c;fill-opacity:1;fill-rule:nonzero;stroke:none"
         id="path40" /><path
         d="m 794.805,1336.29 c 5.879,5.4 7.898,8.16 5.996,15.1 -1.758,7.83 -6.934,22.61 -11.621,34.71 -3.719,9.63 -7.61,18.37 -9.551,22.72 -0.957,2.48 -2.246,3.12 -13.582,1.86 -1.379,0.89 -1.621,0.22 -2.27,4.52 -0.281,0.75 0.196,1.49 1.352,2.52 7.621,8.91 15.172,18.64 15.906,20.07 0.477,0.74 1.278,1.34 2.188,1.68 1.113,0.44 2.507,0.12 2.91,-0.86 1.836,-4.12 3.875,-8.73 5.488,-12.92 0.488,-1.24 1.102,-2.15 1.981,-1.8 7.472,9.97 10.507,13.43 15.402,18.72 2.82,3.37 7.168,6.77 11.199,8.33 6.496,2.5 11.621,2.49 17.317,0.44 7.734,-2.7 14.304,-10.39 19.304,-20.67 2.461,-5.01 4.739,-10.94 8.852,-21.58 6.98,-18.03 11.304,-28.58 13.496,-34.27 0.879,-2.22 1.18,-2.38 1.875,-2.12 2,0.78 8.191,4.03 11.461,5.57 0.676,0.27 1.504,-0.54 2.07,-2.03 0.578,-1.48 1.25,-5.21 1.399,-6.28 0.039,-1.42 -0.411,-1.59 -1.301,-1.94 -19.918,-7.69 -26.258,-11.27 -34.766,-14.56 -1.347,-0.52 -2.449,-0.95 -3.066,-0.05 l -3.028,4.52 c 5.539,4.97 7.239,7.9 5.461,15.16 -1.757,7.86 -5.058,17.08 -11.847,34.63 -5.242,13.59 -8.164,20.43 -15.692,24.62 -5.195,2.82 -10.879,2.89 -17.383,0.39 -5.363,-2.09 -12.539,-8.83 -16.222,-13.94 -1.336,-2.51 -0.996,-4.09 -0.156,-6.89 2.89,-8.82 16.554,-44.16 21.699,-57.5 1.25,-3.23 1.894,-3.54 14.289,-1.03 1.433,0.27 1.863,-0.12 2.012,-1.2 l 0.761,-5.96 -19.035,-7.36 c -8.945,-3.46 -15.625,-7.46 -20.105,-9.19 -0.442,-0.18 -0.86,0.23 -1.243,1.22 l -1.55,5.37"
         style="fill:#6c258c;fill-opacity:1;fill-rule:nonzero;stroke:none"
         id="path42" /><path
         d="m 1003.07,1489.34 c 10.62,1.92 18.65,3.62 24.47,5.2 13.98,3.6 14.98,4.85 15.26,20.79 0.8,0.95 6.15,2.47 7.38,2.41 0.89,-7.64 1.64,-19.9 3.1,-27.98 1.83,-8.83 3.84,-16.01 5.92,-23.44 -1.8,-0.85 -3.64,-1.46 -5.3,-1.76 -1.13,-0.46 -1.74,0.23 -2.4,1.19 -1.47,2.7 -3.4,6.65 -4.66,9.65 -2.69,6.8 -5.95,8.63 -15.53,7.71 -5.29,-0.41 -13.13,-1.82 -25.2,-4 -11.805,-2.11 -14.118,-2.81 -15.477,-3.33 -0.906,-0.42 -1.57,-0.81 -2.078,-1.99 -0.43,-1.68 -0.207,-11.07 3.64,-32.44 3.438,-19.04 4.7,-26.09 7.805,-29.83 4.2,-4.35 12.7,-4.17 32.14,-0.68 27.62,4.97 40.33,10.22 42.67,39.19 0.91,0.42 3.3,0.6 5.71,0.76 0.8,-0.4 0.85,-0.67 1.09,-1.97 1.69,-12.08 0.91,-29.44 -0.79,-37.56 -0.91,-1.78 -1.51,-2.42 -2.7,-2.64 -1.66,-0.3 -3.31,-0.6 -11.15,-1.74 -7.13,-1.02 -23.7,-3.73 -43.31,-7.25 -18.94,-3.41 -37.41,-7.83 -56.16,-12 -0.527,0.17 -1.746,5.6 -1.887,7.74 -0.097,0.51 0.528,1.17 0.766,1.2 10.476,4.04 11.101,6.05 10.633,10 -0.235,3.99 -2.051,20.9 -6.856,47.5 l -8.125,45.11 c -6.238,34.67 -9.718,45.89 -10.246,47.43 -0.515,1.52 -1.219,2.73 -3.672,2.83 -2.566,0.62 -7.175,0.58 -13.125,1.14 -0.293,0.21 -0.293,0.21 -0.437,0.99 l -0.606,6.09 c -0.175,1.04 -0.226,1.3 0.957,1.5 l 8.25,1.5 c 7.317,1.32 16.399,2.41 30.852,4.74 l 22.91,4.14 c 14.396,2.6 31.456,7 43.226,9.39 3.05,0.55 4.59,0.28 5.89,-0.29 2.41,-1.18 2.41,-1.18 2.31,-6.04 0.19,-11.83 2.68,-26.97 3.9,-33.77 -6.16,-1.1 -7.23,-0.49 -7.76,1.04 -6.68,18.18 -10.03,27.27 -28.46,23.95 l -16.332,-2.94 c -13.934,-2.51 -21.633,-4.44 -24.094,-5.68 -2.879,-1.6 -2.891,-4.29 -1.793,-10.29 3.277,-18.26 6.793,-36.46 10.32,-54.68 0.422,-2.34 2.168,-3.91 3.817,-3.6 l 15.132,2.71"
         style="fill:#6c258c;fill-opacity:1;fill-rule:nonzero;stroke:none"
         id="path44" /><path
         d="m 1103.98,1417.95 c 7.31,3.23 10.1,5.2 10.52,12.39 0.87,7.98 0.7,23.62 0.17,36.6 -0.42,10.31 -1.32,19.82 -1.75,24.59 -0.11,2.64 -1.11,3.66 -12.26,6.11 -1.01,1.28 -1.48,0.73 -0.69,5 -0.03,0.82 0.66,1.36 2.09,1.96 10.07,5.99 20.35,12.79 21.5,13.88 0.72,0.55 1.64,0.87 2.61,0.9 1.21,0.06 2.43,-0.7 2.47,-1.74 0.43,-4.49 0.88,-9.51 1.06,-14.02 0.06,-1.31 0.35,-2.37 1.31,-2.33 10.27,7.06 14.25,9.35 20.59,12.78 3.75,2.29 8.96,4.1 13.28,4.27 6.95,0.3 11.83,-1.36 16.55,-5.14 6.44,-5.03 10.19,-14.43 11.63,-25.78 0.71,-5.53 0.98,-11.88 1.45,-23.27 0.8,-19.33 1.52,-30.7 1.76,-36.79 0.11,-2.38 0.36,-2.64 1.07,-2.61 2.16,0.09 9.08,1.18 12.67,1.59 0.71,0.04 1.24,-1.01 1.31,-2.59 0.07,-1.59 -0.5,-5.33 -0.7,-6.39 -0.43,-1.36 -0.91,-1.37 -1.87,-1.41 -21.33,-0.89 -28.48,-2.25 -37.59,-2.63 -1.44,-0.05 -2.63,-0.11 -2.91,0.95 l -1.42,5.23 c 6.84,2.95 9.38,5.17 10.04,12.63 0.88,7.98 0.69,17.79 -0.07,36.59 -0.61,14.57 -1.17,21.96 -6.97,28.35 -4.01,4.34 -9.38,6.24 -16.32,5.95 -5.75,-0.24 -14.71,-4.32 -19.84,-7.98 -2.09,-1.95 -2.25,-3.54 -2.38,-6.47 -0.1,-9.27 1.48,-47.14 2.07,-61.44 0.16,-3.43 0.66,-3.95 13.2,-5.55 1.47,-0.19 1.72,-0.73 1.52,-1.8 l -1.2,-5.88 -20.37,-0.85 c -9.59,-0.39 -17.21,-2.03 -22,-2.23 -0.48,-0.02 -0.74,0.5 -0.79,1.55 l 0.26,5.58"
         style="fill:#6c258c;fill-opacity:1;fill-rule:nonzero;stroke:none"
         id="path46" /><path
         d="m 1291.61,1468.15 c 0.63,8.45 -0.49,19.69 -4.02,27.12 -2.9,6.33 -9.58,13.72 -20.34,14.51 -4.31,0.32 -8.29,-1.26 -12.64,-4.91 -4.57,-3.39 -7.06,-10.92 -7.6,-18.31 -0.75,-10.31 2.35,-23.82 8.59,-30.65 7.33,-8.23 12.72,-10.23 17.02,-10.54 8.86,-0.67 17.68,4.81 18.98,22.51 z m -29.99,-113.91 c 13.88,-1.02 23.73,1.98 30.66,7.85 5.11,4.16 9.1,9.17 9.55,15.51 0.27,3.69 0.32,7.68 -4.17,11.99 -4.96,4.62 -11.79,6.71 -20.16,7.33 -8.38,0.61 -18.5,0.29 -24.59,-0.59 -2.42,-0.35 -5.43,-1.99 -9.56,-5.68 -6.64,-5.36 -9.53,-12.05 -9.82,-16.02 -0.35,-4.75 3.92,-18.61 27.85,-20.37 z m 16.96,165.87 c 6.22,-0.46 13.41,-4.16 17.55,-6.86 1.57,-1.45 3.51,-1.32 3.99,-1.36 4.07,-0.3 18.16,1.86 23.2,1.49 1.91,-0.14 4.38,-2.71 4.54,-3.79 0.18,-0.81 0.43,-7.2 0.35,-8.26 -0.11,-1.58 -1.43,-3.09 -4.32,-3.13 -2.63,0.19 -9.83,0.45 -20.35,1.49 3.13,-6.61 5.34,-16.07 4.78,-23.47 -1.35,-18.49 -14.75,-33.99 -33.77,-40.83 -9.13,-3.05 -14.85,-5.81 -20.35,-8.6 -1.51,-0.7 -2.36,-2.49 -2.43,-3.28 -0.33,-4.76 5.24,-7.55 11.7,-8.03 2.87,-0.21 17.98,-0.78 20.12,-0.94 10.07,-0.74 19.06,-2.73 26.72,-9.93 3.37,-3.17 5.99,-10 5.34,-18.98 -0.62,-8.46 -3.1,-12.81 -10.21,-21.04 -13.64,-15.48 -24.97,-19.16 -31.14,-21.37 -5.67,-1.71 -16.82,-2.75 -23.75,-2.25 -26.1,1.92 -35.37,16.41 -34.6,26.98 0.67,8.99 4.55,16.14 10.61,19.95 6.33,4.31 11.38,7.67 18.96,12.42 -9.93,5.79 -15.41,9.63 -14.84,17.56 0.18,2.39 0.25,3.44 1.85,5.44 2.56,2.2 13.78,7.5 23.96,12.06 -7.25,2.67 -13.02,6.01 -18.58,12.25 -6.22,7.1 -9.25,18.22 -8.5,28.52 1.16,15.86 9.71,27.45 21.11,35.12 8.32,5.24 17.77,9.59 27.83,8.85 l 0.23,-0.01"
         style="fill:#6c258c;fill-opacity:1;fill-rule:nonzero;stroke:none"
         id="path48" /><path
         d="m 1381.97,1565.59 c 6.15,-0.98 9.28,-7.38 8.27,-13.65 -1.39,-8.9 -7.92,-13.23 -14.08,-12.25 -5.68,0.9 -9.64,6.63 -8.52,13.69 1.45,9.16 8.87,13.08 14.1,12.25 z m -26.53,-78.42 c -0.04,1.35 -1.33,2.37 -12.14,6.22 -0.9,0.41 -1.05,0.97 -0.15,2.18 2.42,4.44 2.73,4.92 3.97,5 9.75,1.93 18.69,4.54 29.74,6.82 0.5,0.17 0.74,0.14 1.24,0.06 0.45,-0.07 0.37,-0.59 0.13,-2.16 -3.79,-17.65 -10.83,-54.36 -12.99,-67.96 -2.11,-13.35 -2.87,-18.06 -3.12,-21.24 -0.11,-3.74 0.13,-5.39 2.52,-5.49 7.43,-0.65 9.32,-0.95 10.05,-1.06 0.71,-0.12 1.87,-1.9 1.51,-2.66 l -1.79,-6.69 c -0.47,-1.53 -0.95,-1.46 -2.15,-1.26 -6.86,1.08 -13.41,2.66 -21,3.85 -10.43,1.67 -20.16,1.61 -20.87,1.71 -1.18,0.19 -1.6,0.54 -1.68,1.61 -0.18,1.92 0.23,4.52 0.48,6.09 0.16,1.04 0.68,1.25 1.41,1.12 8.68,-0.3 10.71,0.18 13.28,7.29 1.37,4.07 5.71,22.16 7.86,38.72 l 3.7,27.85"
         style="fill:#6c258c;fill-opacity:1;fill-rule:nonzero;stroke:none"
         id="path50" /><path
         d="m 1391.38,1402.84 c 7.93,1 11.16,2.09 13.63,8.84 3.12,7.4 7.43,22.46 10.62,35.04 2.56,10.01 4.44,19.37 5.38,24.05 0.65,2.57 -0.02,3.84 -10,9.38 -0.61,1.52 -1.22,1.12 0.78,4.99 0.17,0.78 1.01,1.1 2.55,1.27 11.36,2.85 23.16,6.43 24.58,7.15 0.83,0.33 1.83,0.35 2.75,0.12 1.16,-0.3 2.13,-1.36 1.87,-2.38 -0.87,-4.43 -1.89,-9.36 -2.98,-13.75 -0.33,-1.26 -0.36,-2.36 0.57,-2.6 11.87,3.82 16.32,4.88 23.39,6.37 4.25,1.11 9.76,1.35 13.95,0.29 6.73,-1.71 10.93,-4.7 14.38,-9.67 4.74,-6.67 5.64,-16.74 3.77,-28.02 -0.91,-5.51 -2.48,-11.68 -5.28,-22.72 -4.76,-18.75 -7.34,-29.84 -8.82,-35.76 -0.6,-2.31 -0.43,-2.62 0.27,-2.8 2.09,-0.54 9.04,-1.46 12.58,-2.1 0.7,-0.18 0.91,-1.33 0.51,-2.88 -0.38,-1.52 -2,-4.95 -2.49,-5.92 -0.79,-1.17 -1.25,-1.04 -2.19,-0.8 -20.7,5.24 -27.94,5.99 -36.77,8.23 -1.4,0.37 -2.57,0.66 -2.54,1.75 l 0.15,5.43 c 7.39,0.85 10.49,2.25 13.23,9.2 3.12,7.41 5.76,16.86 10.39,35.11 3.61,14.11 5.2,21.36 1.47,29.13 -2.61,5.32 -7.21,8.67 -13.96,10.39 -5.57,1.42 -15.32,0.06 -21.29,-1.97 -2.53,-1.28 -3.18,-2.75 -4.12,-5.52 -2.75,-8.87 -12.07,-45.6 -15.58,-59.47 -0.85,-3.33 -0.53,-3.97 11.05,-9.09 1.32,-0.61 1.43,-1.18 0.94,-2.15 l -2.83,-5.3 -19.78,5.03 c -9.3,2.36 -17.07,2.96 -21.72,4.15 -0.46,0.1 -0.56,0.68 -0.29,1.71 l 1.83,5.27"
         style="fill:#6c258c;fill-opacity:1;fill-rule:nonzero;stroke:none"
         id="path52" /><path
         d="m 1587.26,1416.96 c 2.56,6.97 -1.78,21.56 -11.23,25.06 -1.36,0.49 -3.88,0.58 -6.55,-0.41 -8.36,-2.58 -16.77,-13.59 -20.16,-24.2 11.44,-0.83 22.53,-2.67 33.67,-3.67 1.76,-0.09 3.16,0.25 4.16,2.98 z m 0.13,31.59 c 6.97,-2.57 13.21,-9.96 15.38,-15.85 2.27,-5.64 3.5,-12.01 2.96,-19.72 2.21,-0.24 6.95,-0.59 7.25,-1.84 0.49,-0.74 0.21,-1.49 -0.38,-2.4 -1.5,-1.98 -4.73,-5.88 -6.94,-5.63 -16.76,1.68 -48.09,6.18 -58.97,6.51 -1.22,0.17 -2.13,-0.9 -3.23,-3.89 -8.41,-24.85 -0.24,-39.45 14.62,-44.94 10.36,-3.82 20.87,-2.33 31.27,2.3 1.52,0.58 4.2,-0.41 3.71,-1.08 -2.43,-5.88 -3.52,-7.45 -5.42,-8.45 -12.98,-5.37 -25.4,-6.44 -33.98,-6.1 -3.28,0.08 -6.31,0.91 -8.78,1.83 -15.75,5.82 -22.03,20 -23.45,24.47 -2.05,5.56 -4.55,18.9 1.43,35.05 8.07,21.89 25.68,34.29 41.34,39.26 7.28,2.4 16.68,2.88 22.97,0.56 l 0.22,-0.08"
         style="fill:#6c258c;fill-opacity:1;fill-rule:nonzero;stroke:none"
         id="path54" /><path
         d="m 1681.44,1375.45 c 3.19,6.69 0.19,21.61 -8.92,25.94 -1.29,0.61 -3.81,0.94 -6.55,0.19 -8.57,-1.8 -17.93,-12.01 -22.28,-22.26 11.33,-1.88 22.22,-4.71 33.22,-6.71 1.73,-0.23 3.16,-0.04 4.42,2.58 z m 2.99,31.43 c 6.72,-3.2 12.25,-11.11 13.89,-17.16 1.75,-5.83 2.39,-12.29 1.17,-19.92 2.16,-0.44 6.85,-1.2 7.05,-2.47 0.42,-0.79 0.07,-1.51 -0.59,-2.37 -1.68,-1.84 -5.24,-5.44 -7.42,-4.98 -16.56,3.18 -47.35,10.49 -58.16,11.81 -1.19,0.28 -2.2,-0.72 -3.55,-3.59 -10.62,-24 -3.81,-39.27 10.5,-46.07 9.96,-4.74 20.57,-4.21 31.35,-0.52 1.55,0.43 4.15,-0.81 3.6,-1.42 -2.96,-5.64 -4.18,-7.11 -6.16,-7.92 -13.41,-4.2 -25.89,-4.14 -34.38,-3.03 -3.28,0.38 -6.21,1.48 -8.61,2.62 -15.16,7.22 -20.13,21.89 -21.13,26.48 -1.54,5.71 -2.82,19.23 4.58,34.79 10.02,21.06 28.7,31.84 44.71,35.36 7.47,1.74 16.87,1.39 22.94,-1.49 l 0.21,-0.12"
         style="fill:#6c258c;fill-opacity:1;fill-rule:nonzero;stroke:none"
         id="path56" /><path
         d="m 1691.12,1294.22 c 5.85,-0.95 7.14,-1.09 9.3,1.64 2,2.51 5.6,8.7 17.19,28.62 l 11.99,20.61 c 3.2,5.5 3.58,7.11 -3.05,14.35 -1.27,1.65 -0.56,5.23 0.66,6.36 11.2,1.15 22.63,1.24 31.87,2.31 1.1,-0.03 2.6,-0.29 3.02,-0.54 0.83,-0.47 0.93,-2.68 -0.68,-4.51 -3.68,-5.83 -7.36,-10.73 -11.15,-17.73 5.47,-0.12 24.66,3.74 28.56,4.24 2.79,0.52 6,0.79 7.88,-0.29 5.39,-3.14 8.07,-12.36 5.15,-17.4 -2.14,-3.67 -11.19,-7.3 -14.12,-8.04 -1.77,-0.19 -3.35,-0.51 -4.58,0.22 -1.26,0.72 -1.61,1.53 -1.77,3.17 -0.2,3.48 -1.51,7.92 -4.83,9.85 -4.56,2.66 -12.56,1.78 -18.42,0.3 -2.25,-0.54 -4.4,-3.27 -10.65,-14.04 l -16.66,-28.63 c -3.33,-5.72 -4.84,-8.83 -4.88,-10.33 -0.05,-1.5 0.38,-2.67 2.79,-3.77 l 11.46,-6.06 c 1.04,-0.6 1.21,-2.22 0.46,-3.01 l -5.37,-6.4 c -9.12,5.32 -18.25,10.63 -27.38,15.93 -5.39,3.14 -10.84,5.69 -12.3,6.53 -0.84,0.49 -0.84,1.42 0.58,2.43 l 4.93,4.19"
         style="fill:#6c258c;fill-opacity:1;fill-rule:nonzero;stroke:none"
         id="path58" /><path
         d="m 1869.63,1369.34 c 5.19,-3.48 5.33,-10.6 1.8,-15.89 -5.03,-7.47 -12.76,-8.67 -17.93,-5.2 -4.8,3.2 -5.99,10.06 -2,16.01 5.16,7.7 13.55,8.14 17.94,5.2 z m -57,-60.05 c 0.53,1.23 -0.21,2.69 -8.4,10.73 -0.65,0.75 -0.56,1.33 0.79,2.02 4.04,3.04 4.54,3.34 5.68,2.89 9.69,-2.35 18.88,-3.72 29.87,-6.29 0.53,-0.05 0.75,-0.18 1.15,-0.45 0.4,-0.27 0.1,-0.71 -0.8,-2.03 -10.82,-14.43 -32.62,-44.8 -40.3,-56.24 -7.52,-11.24 -10.18,-15.19 -11.72,-17.96 -1.68,-3.35 -2.16,-4.93 -0.03,-6.05 6.47,-3.71 8.06,-4.77 8.67,-5.18 0.59,-0.39 0.92,-2.52 0.26,-3.05 l -4.44,-5.31 c -1.08,-1.19 -1.48,-0.93 -2.47,-0.26 -5.78,3.87 -11.07,8.06 -17.44,12.33 -8.78,5.88 -17.63,9.9 -18.24,10.29 -0.98,0.68 -1.24,1.17 -0.85,2.19 0.64,1.8 2.11,4 2.99,5.32 0.6,0.89 1.15,0.83 1.73,0.42 7.78,-3.92 9.82,-4.33 15.14,1.03 2.96,3.12 14.48,17.75 23.38,31.87 l 15.03,23.73"
         style="fill:#6c258c;fill-opacity:1;fill-rule:nonzero;stroke:none"
         id="path60" /><path
         d="m 1809.78,1217.65 c 7.64,-2.35 11.05,-2.68 16.07,2.48 5.87,5.48 15.97,17.43 24.03,27.59 6.43,8.1 11.98,15.87 14.76,19.75 1.64,2.08 1.56,3.49 -5.28,12.66 0.07,1.63 -0.64,1.51 2.76,4.23 0.49,0.62 1.38,0.59 2.84,0.12 11.53,-2.05 23.75,-3.64 25.36,-3.57 0.88,-0.02 1.81,-0.41 2.55,-1.02 0.95,-0.74 1.4,-2.1 0.73,-2.94 -2.59,-3.67 -5.55,-7.76 -8.35,-11.29 -0.83,-1.04 -1.29,-2.02 -0.54,-2.61 12.38,-1.38 16.89,-2.25 23.94,-3.79 4.34,-0.72 9.46,-2.76 12.84,-5.44 5.44,-4.33 8.06,-8.77 9.16,-14.71 1.59,-8.04 -1.7,-17.59 -8.04,-27.11 -3.08,-4.65 -7.04,-9.64 -14.12,-18.57 -12.02,-15.14 -18.92,-24.22 -22.71,-29 -1.47,-1.86 -1.46,-2.21 -0.9,-2.66 1.71,-1.35 7.65,-5.05 10.63,-7.08 0.56,-0.44 0.29,-1.57 -0.72,-2.81 -0.98,-1.25 -3.84,-3.72 -4.68,-4.39 -1.21,-0.74 -1.58,-0.45 -2.34,0.15 -16.73,13.27 -23.03,16.91 -30.16,22.58 -1.14,0.9 -2.07,1.64 -1.6,2.62 l 2.35,4.9 c 7.11,-2.25 10.48,-2.23 15.86,2.99 5.87,5.48 12.15,13 23.85,27.75 9.06,11.41 13.47,17.38 13.27,25.99 -0.2,5.92 -3.02,10.85 -8.47,15.19 -4.52,3.57 -13.97,6.33 -20.23,6.91 -2.84,-0.11 -4.03,-1.19 -6.02,-3.34 -6.14,-6.95 -29.7,-36.64 -38.59,-47.85 -2.14,-2.7 -2.09,-3.41 6.34,-12.83 0.98,-1.1 0.83,-1.67 -0.01,-2.33 l -4.75,-3.68 -15.98,12.67 c -7.52,5.97 -14.35,9.7 -18.1,12.69 -0.38,0.3 -0.25,0.87 0.42,1.68 l 3.83,4.07"
         style="fill:#6c258c;fill-opacity:1;fill-rule:nonzero;stroke:none"
         id="path62" /><path
         d="m 1984.59,1135.01 c 5.88,6.12 12.22,15.47 14.24,23.44 1.79,6.73 1.37,16.69 -6.4,24.17 -3.11,2.99 -7.16,4.32 -12.86,4.29 -5.68,0.32 -12.39,-3.89 -17.54,-9.24 -7.16,-7.45 -13.41,-19.83 -12.97,-29.06 0.37,-11.02 3.25,-16 6.36,-18.99 6.41,-6.15 16.68,-7.59 28.99,5.19 z m -95.84,-68.48 c 10.04,-9.63 19.52,-13.62 28.6,-13.53 6.58,-0.08 12.85,1.25 17.26,5.82 2.57,2.69 5.15,5.72 4.45,11.91 -0.87,6.71 -4.78,12.68 -10.83,18.5 -6.05,5.82 -14.05,12.04 -19.29,15.25 -2.09,1.27 -5.46,1.95 -10.97,1.74 -8.54,0.12 -15.06,-3.17 -17.8,-6.04 -3.32,-3.45 -8.88,-16.84 8.41,-33.48 z m 119,116.79 c 4.51,-4.32 7.67,-11.78 9.11,-16.48 0.3,-2.13 1.87,-3.26 2.21,-3.59 2.94,-2.83 15.16,-10.18 18.82,-13.69 1.37,-1.33 1.62,-4.86 1.06,-5.8 -0.38,-0.73 -4.26,-5.82 -5,-6.58 -1.12,-1.15 -3.08,-1.47 -5.34,0.34 -1.89,1.82 -7.27,6.64 -14.68,14.14 -1.82,-7.07 -6.18,-15.76 -11.32,-21.11 -12.85,-13.36 -33.06,-16.7 -52.07,-9.83 -8.98,3.48 -15.15,5.01 -21.16,6.39 -1.6,0.42 -3.39,-0.42 -3.95,-0.99 -3.31,-3.44 -0.81,-9.15 3.86,-13.63 2.08,-2 13.34,-12.1 14.89,-13.6 7.26,-6.99 12.92,-14.27 14.21,-24.69 0.56,-4.6 -1.78,-11.53 -8.02,-18.03 -5.88,-6.11 -10.57,-7.85 -21.3,-9.67 -20.39,-3.19 -31.46,1.22 -37.61,3.47 -5.44,2.3 -14.68,8.61 -19.7,13.43 -18.84,18.14 -16.73,35.22 -9.39,42.86 6.26,6.48 13.81,9.51 20.9,8.57 7.64,-0.72 13.66,-1.37 22.52,-2.54 -3.93,10.78 -5.71,17.25 -0.18,22.98 1.65,1.72 2.38,2.49 4.88,3.01 3.39,0.05 15.4,-3.04 26.15,-6.04 -3.89,6.69 -6.18,12.94 -6.47,21.3 -0.25,9.44 4.52,19.94 11.68,27.38 11.02,11.45 25,14.92 38.67,13.53 9.75,-1.29 19.81,-3.97 27.07,-10.96 l 0.16,-0.17"
         style="fill:#6c258c;fill-opacity:1;fill-rule:nonzero;stroke:none"
         id="path64" /></g></g></svg>
