<svg xmlns="http://www.w3.org/2000/svg" xmlns:xlink="http://www.w3.org/1999/xlink" version="1.1" id="Layer_1" x="0px" y="0px" width="626.4px" height="182.88px" viewBox="0 0 626.4 182.88" enable-background="new 0 0 626.4 182.88" xml:space="preserve">
<g>
	<path fill-rule="evenodd" clip-rule="evenodd" fill="#F0F0F0" d="M93.6,0c2.572,0.928,4.126,2.921,5.635,5.084   c8.775,12.581,18.61,24.279,29.227,35.356c8.944,9.332,18.123,18.39,28.043,26.683c7.582,6.337,15.435,12.313,23.586,17.897   c0.976,0.669,2.118,1.189,2.892,2.043c3.103,3.424,2.635,7.27-1.323,9.73c-12.242,7.609-23.174,16.897-33.888,26.44   c-18.938,16.869-35.761,35.656-50.46,56.334c-2.113,2.974-3.908,3.585-7.423,2.563c-1.161-0.337-2.106-0.929-2.731-1.993   c-3.861-6.57-8.637-12.478-13.381-18.404c-20.283-25.338-44.013-46.968-70.616-65.489C1.638,95.186,0.712,93.785,0,92.16   c0-0.721,0-1.44,0-2.16c0.642-1.953,2.033-3.289,3.65-4.441c1.009-0.718,2-1.461,3.018-2.166   c18.076-12.519,34.386-27.066,49.514-42.984c10.891-11.46,20.815-23.719,30.241-36.392C87.771,2.203,89.252,0.696,91.44,0   C92.16,0,92.88,0,93.6,0z M92.744,159.687c2.313-0.257,4.832-1.044,7.327-2.819c3.417-2.433,6.835-4.881,10.092-7.521   c14.793-11.994,28.206-25.395,40.423-39.999c3.338-3.99,6.575-8.046,8.975-12.698c0.96-1.862,1.814-3.733,1.519-5.928   c-0.303-2.248-1.292-4.204-2.606-5.978c-3.259-4.398-6.455-8.855-9.921-13.087c-8.542-10.427-17.584-20.391-27.87-29.164   c-3.891-3.319-7.627-6.824-11.591-10.051c-3.028-2.464-6.144-4.9-9.506-6.856c-4.882-2.839-9.654-2.726-14.503,0.859   c-9.956,7.361-19.266,15.436-28.189,23.992c-9.795,9.392-19.127,19.204-27.304,30.055c-1.649,2.188-3.09,4.563-4.392,6.979   c-1.785,3.312-1.225,6.583,0.81,9.615c6.64,9.894,14.286,18.979,22.757,27.322c7.23,7.12,14.745,13.955,22.251,20.787   c5.506,5.011,11.364,9.598,17.965,13.123C90.146,158.94,91.485,159.238,92.744,159.687z"/>
	<path fill-rule="evenodd" clip-rule="evenodd" fill="#F0F0F0" d="M626.104,135.585c0,9.055,0,17.886,0,26.798   c-35.054,0-70.068,0-105.162,0c0-46.028,0-92.042,0-138.142c35.036,0,70.018,0,105.101,0c0,8.838,0,17.687,0,26.703   c-22.241,0-44.491,0-66.798,0c0,9.585,0,19.004,0,28.534c20.521,0,40.981,0,61.53,0c0,8.966,0,17.821,0,26.831   c-20.472,0-40.96,0-61.52,0c0,9.816,0,19.477,0,29.276C581.508,135.585,603.759,135.585,626.104,135.585z"/>
	<path fill-rule="evenodd" clip-rule="evenodd" fill="#F0F0F0" d="M499.354,24.258c0,8.845,0,17.667,0,26.653   c-22.248,0-44.494,0-66.837,0c0,9.575,0,18.987,0,28.567c20.467,0,40.951,0,61.509,0c0,9.022,0,17.875,0,26.854   c-20.525,0-40.982,0-61.523,0c0,9.785,0,19.444,0,29.228c22.239,0,44.494,0,66.835,0c0,8.981,0,17.841,0,26.802   c-35.001,0-70.047,0-105.184,0c0-45.984,0-91.992,0-138.104C429.197,24.258,464.24,24.258,499.354,24.258z"/>
	<path fill-rule="evenodd" clip-rule="evenodd" fill="#F0F0F0" d="M305.61,50.965c0,9.631,0,19.015,0,28.524   c20.529,0,40.986,0,61.525,0c0,8.98,0,17.834,0,26.813c-20.479,0-40.936,0-61.495,0c0,9.811,0,19.496,0,29.278   c22.297,0,44.56,0,66.921,0c0,8.982,0,17.869,0,26.819c-35.053,0-70.07,0-105.187,0c0-46.031,0-92.037,0-138.144   c35.056,0,70.1,0,105.23,0c0.02,0.444,0.052,0.834,0.052,1.225c0.003,8.039-0.021,16.078,0.029,24.117   c0.008,1.131-0.334,1.39-1.409,1.388c-21.317-0.028-42.635-0.021-63.952-0.021C306.775,50.965,306.227,50.965,305.61,50.965z"/>
	<path fill-rule="evenodd" clip-rule="evenodd" fill="#F0F0F0" d="M247.12,162.426c-12.797,0-25.467,0-38.22,0   c0-46.045,0-92.052,0-138.165c12.715,0,25.436,0,38.22,0C247.12,70.309,247.12,116.319,247.12,162.426z"/>
	<path fill-rule="evenodd" clip-rule="evenodd" fill="#F0F0F0" d="M130.403,168.873c0.007,3.752-2.627,6.438-6.377,6.501   c-3.741,0.063-6.524-2.71-6.509-6.487c0.016-3.768,2.654-6.388,6.436-6.39C127.74,162.495,130.396,165.12,130.403,168.873z    M128.553,168.871c-0.015-2.768-2.099-4.962-4.658-4.904c-2.564,0.059-4.504,2.167-4.525,4.919c-0.021,2.79,1.963,4.918,4.6,4.934   C126.565,173.834,128.567,171.673,128.553,168.871z"/>
	<path fill-rule="evenodd" clip-rule="evenodd" fill="#F0F0F0" d="M92.583,27.227c1.862,0.676,3.841,1.021,5.382,2.032   c3.432,2.251,6.734,4.727,9.923,7.316c3.41,2.77,6.608,5.799,9.936,8.672c10.838,9.359,20.42,19.909,29.372,31.047   c2.678,3.332,5.149,6.83,7.713,10.253c0.167,0.224,0.309,0.468,0.478,0.69c2,2.634,2.139,5.192,0.393,8.167   c-2.835,4.828-6.315,9.132-9.92,13.361c-12.354,14.494-25.863,27.8-40.844,39.582c-1.948,1.531-3.964,2.978-5.975,4.427   c-0.808,0.582-1.678,1.08-2.537,1.588c-2.248,1.33-4.349,1.374-6.722-0.058c-5.92-3.569-11.387-7.722-16.462-12.375   c-7.513-6.888-15.052-13.758-22.308-20.913c-8.011-7.899-15.197-16.54-21.533-25.864c-1.379-2.029-1.737-4.166-0.479-6.298   c1.457-2.47,2.98-4.924,4.715-7.203c5.674-7.455,11.94-14.4,18.544-21.041c8.8-8.849,17.798-17.485,27.642-25.186   c2.896-2.265,5.838-4.479,8.859-6.573C89.829,28.111,91.193,27.8,92.583,27.227z M80.68,82.75   c-0.254-0.208-0.392-0.345-0.553-0.449c-2.585-1.667-5.159-3.351-7.776-4.966c-0.382-0.236-1.025-0.304-1.457-0.167   c-2.5,0.799-5.052,1.508-7.438,2.578c-3.427,1.537-6.808,3.276-9.22,6.301c-2.834,3.553-2.852,7.241,0.926,10.409   c2.395,2.008,5.152,3.346,8.065,4.378c17.87,6.333,35.872,6.218,53.924,0.913c3.371-0.99,6.579-2.505,9.083-5.142   c2.774-2.92,2.985-6.044,0.222-8.928c-1.489-1.554-3.468-2.64-5.235-3.925c-0.29-0.211-0.626-0.359-1.202-0.683   c1.419-0.43,2.517-0.762,3.622-1.097c-5.607-1.353-11.204-2.704-16.929-4.085c0.753,2.15,1.551,4.184,2.163,6.271   c0.333,1.137,0.753,1.402,1.912,1.052c1.356-0.409,2.89-0.955,4.185-0.68c2.248,0.478,4.358,1.586,6.041,3.263   c2.252,2.245,2.21,5.133-0.161,7.253c-1.865,1.668-4.058,2.792-6.456,3.552c-9.835,3.113-19.875,3.901-30.082,2.619   c-4.643-0.583-9.23-1.485-13.563-3.349c-1.742-0.75-3.349-1.709-4.397-3.381c-0.875-1.398-1.181-2.808-0.024-4.197   c0.789-0.947,1.547-1.945,2.468-2.75c2.09-1.827,4.661-2.744,7.277-3.519C77.562,83.583,79.063,83.195,80.68,82.75z M88.515,71.491   c0,2.562,0.077,4.909-0.015,7.25c-0.259,6.587-0.577,13.173-0.905,19.758c-0.041,0.813,0.157,1.188,1.021,1.179   c2.272-0.025,4.546-0.033,6.818,0.008c1.028,0.018,1.254-0.444,1.21-1.386c-0.375-8.103-0.716-16.207-1.058-24.311   c-0.033-0.783-0.005-1.568-0.005-2.581c2.611,0,5.015,0,7.517,0c-3.648-10.02-7.21-19.803-10.811-29.692   c-3.44,9.946-6.827,19.735-10.3,29.774C84.339,71.491,86.508,71.491,88.515,71.491z M87.412,107.361   c-0.418,9.49-0.835,18.925-1.25,28.343c3.451,0.606,10.414,0.604,12.224-0.017c-0.431-9.412-0.863-18.854-1.296-28.326   C93.768,107.361,90.664,107.361,87.412,107.361z"/>
	<path fill-rule="evenodd" clip-rule="evenodd" fill="#F0F0F0" d="M125.232,169.359c0.594,1.036,1.084,1.893,1.584,2.765   c-1.519,0.413-1.538,0.397-2.259-0.877c-0.365-0.645-0.769-1.268-1.155-1.9c-0.141,0.05-0.282,0.099-0.423,0.148   c-0.044,0.882-0.088,1.764-0.139,2.777c-0.415,0.021-0.827,0.041-1.332,0.066c0-2.286,0-4.5,0-6.979   c1.362,0.095,2.736,0.112,4.082,0.312c0.846,0.126,1.191,0.85,1.229,1.692C126.866,168.408,126.504,169.157,125.232,169.359z    M122.993,166.386c0,0.838,0,1.322,0,2.038c0.795-0.196,1.464-0.323,2.094-0.556c0.098-0.036,0.11-0.769,0.005-0.813   C124.474,166.789,123.81,166.631,122.993,166.386z"/>
</g>
<div xmlns="" id="divScriptsUsed" style="display: none"/><script xmlns="" id="globalVarsDetection" src="chrome-extension://cmkdbmfndkfgebldhnkbfhlneefdaaip/js/wrs_env.js"/></svg>