<?xml version="1.0" encoding="UTF-8" standalone="no"?>
<svg
   xmlns:dc="http://purl.org/dc/elements/1.1/"
   xmlns:cc="http://creativecommons.org/ns#"
   xmlns:rdf="http://www.w3.org/1999/02/22-rdf-syntax-ns#"
   xmlns:svg="http://www.w3.org/2000/svg"
   xmlns="http://www.w3.org/2000/svg"
   xmlns:sodipodi="http://sodipodi.sourceforge.net/DTD/sodipodi-0.dtd"
   xmlns:inkscape="http://www.inkscape.org/namespaces/inkscape"
   version="1.1"
   id="svg2"
   xml:space="preserve"
   width="498.94666"
   height="152.66667"
   viewBox="0 0 498.94666 152.66667"
   sodipodi:docname="IEEE-CS_LogoTM-orange.eps"><metadata
     id="metadata8"><rdf:RDF><cc:Work
         rdf:about=""><dc:format>image/svg+xml</dc:format><dc:type
           rdf:resource="http://purl.org/dc/dcmitype/StillImage" /></cc:Work></rdf:RDF></metadata><defs
     id="defs6" /><sodipodi:namedview
     pagecolor="#ffffff"
     bordercolor="#666666"
     borderopacity="1"
     objecttolerance="10"
     gridtolerance="10"
     guidetolerance="10"
     inkscape:pageopacity="0"
     inkscape:pageshadow="2"
     inkscape:window-width="640"
     inkscape:window-height="480"
     id="namedview4" /><g
     id="g10"
     inkscape:groupmode="layer"
     inkscape:label="ink_ext_XXXXXX"
     transform="matrix(1.3333333,0,0,-1.3333333,0,152.66667)"><g
       id="g12"
       transform="scale(0.1)"><path
         d="m 1121.95,0 c -0.76,0 -1.54,0.0703125 -2.32,0.25 -5.99,1.28125 -9.81,7.17188 -8.53,13.1484 L 1350.29,1136.18 c 1.27,5.99 7.13,9.86 13.16,8.52 5.99,-1.27 9.81,-7.16 8.54,-13.15 L 1132.79,8.78906 C 1131.68,3.57813 1127.07,0 1121.95,0"
         style="fill:#a7a5a6;fill-opacity:1;fill-rule:nonzero;stroke:none"
         id="path14" /><path
         d="m 1631.45,857.516 c -26.98,0.289 -33.8,0.289 -61.91,-0.848 l -1.14,1.422 c 0,25.555 0.29,50.828 0.58,76.105 0.27,16.184 0.56,32.375 0.56,48.571 0,24.984 -0.56,43.444 -1.71,73.844 l 1.42,1.41 c 27.84,-0.28 33.8,-0.28 61.63,0.85 l 1.14,-1.42 c -0.85,-28.4 -1.42,-45.44 -1.42,-78.102 0,-40.039 0.85,-80.653 1.99,-120.41 l -1.14,-1.422"
         style="fill:#231f20;fill-opacity:1;fill-rule:nonzero;stroke:none"
         id="path16" /><path
         d="m 1735.92,940.441 v -39.187 c 22.15,0 42.88,0.57 72.13,1.703 l 1.71,-1.703 -2.85,-42.027 -2.55,-1.711 c -38.91,0 -45.44,0.289 -53.96,0.289 -31.23,0 -47.43,-0.575 -74.41,-1.137 l -1.42,1.98 c 0.86,32.665 1.14,50.27 1.14,88.899 0,68.153 -0.57,79.803 -1.99,108.773 l 1.71,1.7 h 127.79 l 1.42,-1.14 -1.98,-39.19 -1.71,-1.42 h -65.6 v -36.063 l 62.19,1.137 1.71,-1.996 -2.27,-37.196 -1.99,-1.711 h -59.07"
         style="fill:#231f20;fill-opacity:1;fill-rule:nonzero;stroke:none"
         id="path18" /><path
         d="m 1901.43,940.441 v -39.187 c 22.14,0 42.88,0.57 72.13,1.703 l 1.7,-1.703 -2.84,-42.027 -2.56,-1.711 c -38.9,0 -45.44,0.289 -53.95,0.289 -31.24,0 -47.43,-0.575 -74.41,-1.137 l -1.42,1.98 c 0.86,32.665 1.13,50.27 1.13,88.899 0,68.153 -0.56,79.803 -1.98,108.773 l 1.71,1.7 h 127.79 l 1.42,-1.14 -1.99,-39.19 -1.7,-1.42 h -65.61 v -36.063 l 62.2,1.137 1.71,-1.996 -2.28,-37.196 -1.99,-1.711 h -59.06"
         style="fill:#231f20;fill-opacity:1;fill-rule:nonzero;stroke:none"
         id="path20" /><path
         d="m 2066.92,940.441 v -39.187 c 22.17,0 42.9,0.57 72.14,1.703 l 1.71,-1.703 -2.84,-42.027 -2.56,-1.711 c -38.89,0 -45.43,0.289 -53.95,0.289 -31.24,0 -47.44,-0.575 -74.42,-1.137 l -1.41,1.98 c 0.86,32.665 1.13,50.27 1.13,88.899 0,68.153 -0.57,79.803 -1.98,108.773 l 1.71,1.7 h 127.79 l 1.42,-1.14 -1.99,-39.19 -1.7,-1.42 h -65.61 v -36.063 l 62.21,1.137 1.68,-1.996 -2.26,-37.196 -1.99,-1.711 h -59.08"
         style="fill:#231f20;fill-opacity:1;fill-rule:nonzero;stroke:none"
         id="path22" /><path
         d="m 1640.72,694.836 c -12.63,6.379 -25.31,9.566 -38.05,9.566 -15.36,0 -29.42,-3.781 -42.17,-11.324 -12.75,-7.551 -22.77,-17.82 -30.05,-30.832 -7.29,-13.016 -10.93,-27.461 -10.93,-43.328 0,-15.879 3.64,-30.391 10.93,-43.523 7.28,-13.149 17.3,-23.555 30.05,-31.223 12.75,-7.688 26.81,-11.524 42.17,-11.524 12.22,0 24.65,2.93 37.27,8.79 12.62,5.847 23.87,13.718 33.77,23.613 l 36.3,-39.422 c -14.58,-15.102 -31.68,-27.063 -51.33,-35.918 -19.65,-8.84 -39.37,-13.273 -59.14,-13.273 -26.81,0 -51.13,6.191 -72.99,18.566 -21.87,12.344 -39.03,29.316 -51.53,50.918 -12.49,21.601 -18.73,45.672 -18.73,72.215 0,26.277 6.37,50.097 19.12,71.433 12.75,21.336 30.25,38.118 52.5,50.348 22.25,12.234 46.91,18.352 73.97,18.352 19.78,0 39.3,-4.098 58.56,-12.297 19.24,-8.203 35.64,-19.325 49.17,-33.379 l -35.9,-44.106 c -9.38,11.184 -20.37,19.973 -32.99,26.348"
         style="fill:#231f20;fill-opacity:1;fill-rule:nonzero;stroke:none"
         id="path24" /><path
         d="m 1831.4,692.883 c -13.03,-7.676 -23.3,-18.145 -30.84,-31.414 -7.55,-13.274 -11.32,-27.856 -11.32,-43.723 0,-16.133 3.83,-30.84 11.52,-44.109 7.66,-13.274 17.95,-23.813 30.83,-31.614 12.88,-7.8 26.86,-11.718 41.97,-11.718 15.07,0 28.94,3.84 41.56,11.515 12.62,7.672 22.63,18.211 30.06,31.621 7.42,13.399 11.13,28.172 11.13,44.305 0,15.867 -3.71,30.449 -11.13,43.723 -7.43,13.269 -17.44,23.738 -30.06,31.414 -12.62,7.68 -26.49,11.519 -41.56,11.519 -15.11,0 -29.16,-3.839 -42.16,-11.519 z m 115.92,47.035 c 22.38,-12.23 40.01,-29.07 52.9,-50.551 12.88,-21.465 19.32,-45.34 19.32,-71.621 0,-26.289 -6.44,-50.223 -19.32,-71.824 -12.89,-21.602 -30.52,-38.574 -52.9,-50.918 -22.38,-12.375 -47.23,-18.566 -74.55,-18.566 -27.32,0 -52.17,6.191 -74.55,18.566 -22.39,12.344 -40.01,29.258 -52.89,50.73 -12.89,21.465 -19.32,45.469 -19.32,72.012 0,26.281 6.43,50.156 19.32,71.621 12.88,21.481 30.44,38.321 52.69,50.551 22.25,12.234 47.16,18.352 74.75,18.352 27.32,0 52.17,-6.118 74.55,-18.352"
         style="fill:#231f20;fill-opacity:1;fill-rule:nonzero;stroke:none"
         id="path26" /><path
         d="m 2064.03,753.973 h 68.7 l 85.1,-167.848 84.31,167.848 h 68.32 V 480.734 h -55.43 v 184.629 l -77.68,-156.914 h -39.81 l -78.08,156.914 V 480.734 h -55.43 v 273.239"
         style="fill:#231f20;fill-opacity:1;fill-rule:nonzero;stroke:none"
         id="path28" /><path
         d="m 2587.67,622.238 c 9.23,7.93 13.86,19.582 13.86,34.934 0,15.086 -4.63,26.473 -13.86,34.156 -9.24,7.668 -22.58,11.512 -40.01,11.512 h -51.13 v -92.504 h 51.13 c 17.43,0 30.77,3.953 40.01,11.902 z m 43.92,106.95 c 19,-16.532 28.49,-39.879 28.49,-70.067 0,-31.746 -9.57,-56.402 -28.69,-73.973 -19.13,-17.558 -46.01,-26.347 -80.61,-26.347 h -54.25 v -78.067 h -61.69 v 273.239 h 115.94 c 34.87,0 61.81,-8.27 80.81,-24.785"
         style="fill:#231f20;fill-opacity:1;fill-rule:nonzero;stroke:none"
         id="path30" /><path
         d="m 2776.98,547.285 c 11.08,-11.316 25.83,-16.98 44.31,-16.98 17.96,0 32.26,5.605 42.93,16.797 10.67,11.179 16.01,26.66 16.01,46.445 v 160.426 h 61.68 V 593.547 c 0,-23.945 -4.88,-44.695 -14.63,-62.258 -9.76,-17.566 -23.76,-31.094 -41.98,-40.594 -18.2,-9.511 -39.68,-14.257 -64.39,-14.257 -24.73,0 -46.34,4.746 -64.81,14.257 -18.47,9.5 -32.66,23.028 -42.53,40.594 -9.9,17.563 -14.84,38.313 -14.84,62.258 v 160.426 h 61.67 V 593.547 c 0,-19.52 5.53,-34.934 16.58,-46.262"
         style="fill:#231f20;fill-opacity:1;fill-rule:nonzero;stroke:none"
         id="path32" /><path
         d="m 2974.3,753.973 h 228.35 v -52.301 h -83.54 V 480.734 h -61.68 v 220.938 h -83.13 v 52.301"
         style="fill:#231f20;fill-opacity:1;fill-rule:nonzero;stroke:none"
         id="path34" /><path
         d="m 3239.73,753.973 h 208.05 V 702.84 h -146.37 v -59.332 h 131.55 v -51.133 h -131.55 v -60.508 h 150.67 v -51.133 h -212.35 v 273.239"
         style="fill:#231f20;fill-opacity:1;fill-rule:nonzero;stroke:none"
         id="path36" /><path
         d="m 3566.05,610.336 h 56.98 c 17.18,0 30.37,3.953 39.63,11.902 9.24,7.93 13.85,19.582 13.85,34.934 0,15.086 -4.61,26.473 -13.85,34.156 -9.26,7.668 -22.45,11.512 -39.63,11.512 h -56.98 z m 106.17,-129.602 -43.33,78.067 h -62.84 v -78.067 h -61.67 v 273.239 h 118.65 c 35.66,0 63.24,-8.27 82.75,-24.785 19.53,-16.532 29.29,-39.879 29.29,-70.067 0,-21.07 -4.38,-39.098 -13.09,-54.058 -8.71,-14.961 -21.41,-26.348 -38.04,-34.153 l 58.14,-90.176 h -69.86"
         style="fill:#231f20;fill-opacity:1;fill-rule:nonzero;stroke:none"
         id="path38" /><path
         d="m 1515.81,308.02 c -15.75,5.07 -29.22,7.609 -40.4,7.609 -10.67,0 -19.13,-1.953 -25.38,-5.852 -6.24,-3.906 -9.36,-9.636 -9.36,-17.175 0,-9.629 4.49,-16.973 13.46,-22.051 8.99,-5.078 22.84,-10.356 41.58,-15.805 18.74,-5.476 34.15,-10.933 46.25,-16.414 12.1,-5.461 22.45,-13.652 31.03,-24.578 8.59,-10.938 12.88,-25.371 12.88,-43.344 0,-17.43 -4.62,-32.449 -13.85,-45.07 -9.24,-12.621 -21.93,-22.18 -38.06,-28.6916 -16.13,-6.5078 -34.48,-9.7578 -55.04,-9.7578 -22.12,0 -43.85,3.9102 -65.18,11.711 -21.34,7.8084 -39.82,18.4764 -55.43,32.0194 l 24.59,50.348 c 13.79,-12.489 29.66,-22.508 47.62,-30.067 17.96,-7.55 34.35,-11.312 49.19,-11.312 12.74,0 22.69,2.34 29.85,7.015 7.16,4.696 10.73,11.454 10.73,20.313 0,7.012 -2.4,12.801 -7.21,17.359 -4.82,4.551 -10.94,8.266 -18.35,11.125 -7.41,2.852 -17.63,6.114 -30.64,9.754 -18.73,5.215 -34.03,10.414 -45.87,15.625 -11.84,5.199 -22.05,13.137 -30.64,23.813 -8.59,10.652 -12.88,24.844 -12.88,42.539 0,16.402 4.43,30.769 13.27,43.144 8.85,12.352 21.21,21.844 37.09,28.477 15.87,6.641 34.35,9.969 55.43,9.969 18.73,0 37.21,-2.743 55.42,-8.203 18.22,-5.469 34.35,-12.743 48.41,-21.868 l -23.82,-51.129 c -14.05,8.602 -28.95,15.426 -44.69,20.497"
         style="fill:#231f20;fill-opacity:1;fill-rule:nonzero;stroke:none"
         id="path40" /><path
         d="m 1718.98,302.551 c -13.02,-7.676 -23.3,-18.145 -30.84,-31.414 -7.55,-13.274 -11.31,-27.864 -11.31,-43.711 0,-16.153 3.82,-30.852 11.51,-44.121 7.67,-13.274 17.95,-23.813 30.83,-31.621 12.89,-7.793 26.87,-11.715 41.97,-11.715 15.08,0 28.94,3.851 41.57,11.527 12.62,7.676 22.63,18.215 30.05,31.621 7.42,13.391 11.13,28.156 11.13,44.309 0,15.847 -3.71,30.437 -11.13,43.711 -7.42,13.269 -17.43,23.738 -30.05,31.414 -12.63,7.676 -26.49,11.523 -41.57,11.523 -15.1,0 -29.16,-3.847 -42.16,-11.523 z m 115.93,47.043 c 22.38,-12.239 40.01,-29.074 52.88,-50.559 12.88,-21.472 19.33,-45.351 19.33,-71.609 0,-26.313 -6.45,-50.235 -19.33,-71.848 -12.87,-21.578 -30.5,-38.566 -52.88,-50.918 -22.38,-12.3709 -47.24,-18.5506 -74.55,-18.5506 -27.33,0 -52.18,6.1797 -74.56,18.5506 -22.39,12.352 -40.01,29.27 -52.89,50.735 -12.88,21.464 -19.32,45.476 -19.32,72.031 0,26.258 6.44,50.137 19.32,71.609 12.88,21.485 30.45,38.32 52.69,50.559 22.26,12.234 47.16,18.347 74.76,18.347 27.31,0 52.17,-6.113 74.55,-18.347"
         style="fill:#231f20;fill-opacity:1;fill-rule:nonzero;stroke:none"
         id="path42" /><path
         d="m 2109.5,304.504 c -12.61,6.379 -25.3,9.57 -38.04,9.57 -15.36,0 -29.41,-3.777 -42.17,-11.34 -12.76,-7.539 -22.77,-17.808 -30.06,-30.816 -7.29,-13.02 -10.92,-27.465 -10.92,-43.344 0,-15.867 3.63,-30.386 10.92,-43.511 7.29,-13.137 17.3,-23.555 30.06,-31.235 12.76,-7.676 26.81,-11.519 42.17,-11.519 12.22,0 24.64,2.925 37.26,8.789 12.63,5.855 23.88,13.718 33.77,23.613 l 36.3,-39.41 c -14.57,-15.102 -31.67,-27.082 -51.32,-35.9221 -19.65,-8.8398 -39.36,-13.2695 -59.14,-13.2695 -26.81,0 -51.14,6.1797 -73,18.5506 -21.86,12.352 -39.03,29.34 -51.52,50.918 -12.5,21.613 -18.73,45.676 -18.73,72.227 0,26.281 6.37,50.09 19.11,71.433 12.75,21.332 30.25,38.117 52.51,50.356 22.25,12.234 46.9,18.347 73.97,18.347 19.77,0 39.3,-4.113 58.55,-12.304 19.25,-8.192 35.65,-19.317 49.19,-33.367 l -35.92,-44.114 c -9.37,11.192 -20.36,19.973 -32.99,26.348"
         style="fill:#231f20;fill-opacity:1;fill-rule:nonzero;stroke:none"
         id="path44" /><path
         d="m 2219.39,363.645 h 61.67 V 90.3984 h -61.67 V 363.645"
         style="fill:#231f20;fill-opacity:1;fill-rule:nonzero;stroke:none"
         id="path46" /><path
         d="m 2345.46,363.645 h 208.04 v -51.133 h -146.38 v -59.344 h 131.55 v -51.137 h -131.55 v -60.492 h 150.67 V 90.3984 H 2345.46 V 363.645"
         style="fill:#231f20;fill-opacity:1;fill-rule:nonzero;stroke:none"
         id="path48" /><path
         d="m 2583.16,363.645 h 228.35 v -52.317 h -83.53 V 90.3984 h -61.66 V 311.328 h -83.16 v 52.317"
         style="fill:#231f20;fill-opacity:1;fill-rule:nonzero;stroke:none"
         id="path50" /><path
         d="m 3079.68,363.645 -99.54,-185.02 V 90.3984 h -61.67 v 86.6566 l -101.1,186.59 h 62.06 l 69.89,-122.571 68.3,122.571 h 62.06"
         style="fill:#231f20;fill-opacity:1;fill-rule:nonzero;stroke:none"
         id="path52" /><path
         d="m 617.453,354.367 c 0.078,-64.211 4.61,-66.445 49.414,-69.402 l 46.219,-2.719 2.008,-1.062 c 9.941,-5.371 13.066,-18.047 11.754,-28.25 -1.414,-10.969 -7.68,-19.082 -16.364,-21.211 l -1.421,-0.325 -1.465,0.059 c -36.317,1.621 -99.567,2.578 -169.184,2.578 -73.391,0 -136.621,-0.937 -173.48,-2.578 l -1.465,-0.059 -1.422,0.325 c -8.684,2.129 -14.945,10.242 -16.363,21.211 -1.313,10.203 1.812,22.879 11.754,28.25 l 2.007,1.062 46.293,2.719 c 44.77,2.957 49.266,5.191 49.348,69.539 -176.422,19.836 -286.332,105.266 -286.332,228.828 0,124.449 94.797,204.16 263.551,226.586 0.605,-16.078 1.086,-37.672 1.425,-62.492 -10.3,-2.633 -20.144,-5.555 -28.945,-9 l -4.379,-1.625 c -35.179,-13.18 -59.136,-37.793 -69.687,-71.379 l -0.395,-1.121 c -6.125,-14.699 -9.492,-42.461 -9.492,-78.196 l 0.004,-1.484 -0.004,-1.473 c 0,-35.734 3.367,-63.496 9.492,-78.183 l 0.449,-1.313 c 8.149,-25.906 24.461,-46.433 47.551,-60.457 33.203,-22.097 96.637,-33.504 159.578,-33.504 68.868,0 138.301,13.661 168.09,40.047 18.11,13.653 31.094,31.848 38.09,54.075 l 0.395,1.152 c 6.125,14.687 9.492,42.449 9.492,78.183 l -0.008,1.356 0.008,1.601 c 0,35.735 -3.367,63.497 -9.492,78.196 l -0.383,1.082 c -10.567,33.625 -34.524,58.238 -69.285,71.246 l -4.532,1.691 c -15.422,6.067 -33.304,10.887 -52.836,14.368 V 439.191 c -22.644,-4.187 -49.394,-6.828 -79.539,-6.828 -31.621,0 -59.484,2.914 -82.812,7.453 v 72.598 c 1.433,67.649 2.89,174.871 1.258,250.746 l 0.015,-0.012 c -0.004,1.817 -1.285,53.172 -1.293,54.872 -0.308,49.66 -5.031,54.921 -42.336,59.011 l -52.476,6.047 c -7.953,3.567 -13.32,12.633 -13.996,23.649 -0.676,10.953 3.429,20.511 10.722,24.906 l 1.914,1.172 2.219,0.254 c 38.399,4.531 86.848,13.089 136.414,24.093 26.106,6.231 50.356,14.125 68.071,19.895 17.644,5.758 24.996,8.082 29.714,8.082 9.797,0 21.289,-5.195 24.883,-16.793 l 0.633,-2.035 -0.23,-2.141 c -1.977,-18.316 -3.161,-56.469 -3.161,-101.984 v -49.317 c 183.856,-17.847 287.481,-99.254 287.481,-229.527 0,-123.84 -110.371,-209.387 -287.469,-228.965 z M 535.648,1079.82 C 239.82,1079.82 0,860.461 0,589.887 0,319.301 239.82,99.9609 535.648,99.9609 c 295.832,0 535.652,219.3401 535.652,489.9261 0,270.574 -239.82,489.933 -535.652,489.933"
         style="fill:#f89a0f;fill-opacity:1;fill-rule:nonzero;stroke:none"
         id="path54" /><path
         d="m 909.664,130.199 h 13.57 l 22.551,-46.4177 22.395,46.4177 h 13.73 V 61.5508 H 971.285 V 113.852 L 949.543,68.7383 h -7.516 L 920.289,113.852 V 61.5508 h -10.625 z m -63.09,0 h 52.957 v -10.14 H 878.773 V 61.5508 h -11.605 v 58.5082 h -20.594 v 10.14"
         style="fill:#f89a0f;fill-opacity:1;fill-rule:nonzero;stroke:none"
         id="path56" /></g></g></svg>
